<?xml version="1.0" standalone="no"?>
  <!DOCTYPE svg PUBLIC "-//W3C//DTD SVG 1.1//EN" "http://www.w3.org/Graphics/SVG/1.1/DTD/svg11.dtd" >
  <svg>
  <metadata>
  Created by font-carrier
  </metadata>
  <defs>
  <font id="StandardCTStencil-Bold" horiz-adv-x="1876" vert-adv-y="1876" >
    <font-face
      
      font-family="Standard CT Stencil Bold"
      
      font-weight="400"
      
      font-stretch="normal"
      
      units-per-em="1000"
      
      ascent="950"
      
      descent="-240"
      
    />
      <missing-glyph />

      

      
      <glyph glyph-name="uni21" unicode="&#x21;" d="M197 700L60 700L60 471L102 187L157 187L197 471ZM198 0L198 139L62 139L62 0Z"  horiz-adv-x="258" vert-adv-y="1000"  />

      
      <glyph glyph-name="uni22" unicode="&#x22;" d="M55 365L189 365L189 700L55 700ZM258 365L392 365L392 700L258 700Z"  horiz-adv-x="435" vert-adv-y="1000"  />

      
      <glyph glyph-name="uni23" unicode="&#x23;" d="M216 306L268 686L182 686L155 489L61 489L61 410L145 410L129 306ZM31 276L31 197L115 197L86 0L172 0L201 197L276 197L287 276ZM509 410L509 489L434 489L460 686L374 686L348 489L271 489L260 410ZM332 380L279 0L366 0L392 197L478 197L478 276L405 276L419 380Z"  horiz-adv-x="545" vert-adv-y="1000"  />

      
      <glyph glyph-name="uni24" unicode="&#x24;" d="M342 567C424 558 459 506 475 480L586 547C553 605 478 674 342 681ZM315 138C225 147 184 208 164 238L50 170C99 84 193 23 315 19ZM342 19C517 22 598 120 598 227C598 341 519 398 411 414L299 431C269 435 212 446 212 499C212 534 246 567 315 568L315 681C206 679 77 624 77 479C77 365 173 318 245 307L371 287C417 280 461 262 461 212C461 157 391 138 342 138ZM287 711L373 711L373 800L287 800ZM287-100L373-100L373-11L287-11Z"  horiz-adv-x="648" vert-adv-y="1000"  />

      
      <glyph glyph-name="uni25" unicode="&#x25;" d="M206 331C166 337 137 383 137 476C137 565 164 616 206 624L206 711C112 705 30 628 30 477C30 323 111 247 206 242ZM232 242C328 249 409 323 409 480C409 631 334 705 232 711L232 624C274 617 304 571 304 479C304 371 271 337 232 331ZM257-16L368-16L782 709L674 709ZM808 77C768 83 739 129 739 222C739 311 766 362 808 370L808 457C714 451 632 374 632 223C632 69 713-7 808-12ZM834-12C930-5 1011 69 1011 226C1011 377 936 451 834 457L834 370C876 363 906 317 906 225C906 117 873 83 834 77Z"  horiz-adv-x="1041" vert-adv-y="1000"  />

      
      <glyph glyph-name="uni26" unicode="&#x26;" d="M150 383C103 356 30 299 30 184C30 46 143-9 238-15L238 107C198 114 156 146 156 199C156 240 179 270 210 290ZM341 142C323 125 295 111 268 107L268-15C332-11 384 22 413 46C466 2 507-2 540-2L594-2L594 114L565 114C533 114 523 119 497 138C522 172 563 225 579 340L458 340C458 286 435 249 424 231L290 440C281 454 261 475 261 513C261 538 264 557 292 569L292 663C214 658 142 604 142 506C142 468 157 426 176 397ZM370 370C420 400 464 440 464 512C464 617 391 658 322 663L322 569C342 564 359 546 359 518C359 488 339 468 316 454Z"  horiz-adv-x="624" vert-adv-y="1000"  />

      
      <glyph glyph-name="uni27" unicode="&#x27;" d="M55 365L189 365L189 700L55 700Z"  horiz-adv-x="251" vert-adv-y="1000"  />

      
      <glyph glyph-name="uni28" unicode="&#x28;" d="M246 870C192 798 50 615 50 350C50 86 188-90 248-170L317-143C270-59 195 96 195 355C195 606 254 739 316 844Z"  horiz-adv-x="347" vert-adv-y="1000"  />

      
      <glyph glyph-name="uni29" unicode="&#x29;" d="M31 844C93 739 152 606 152 355C152 96 77-59 30-143L99-170C159-90 297 86 297 350C297 615 155 798 101 870Z"  horiz-adv-x="347" vert-adv-y="1000"  />

      
      <glyph glyph-name="uni2a" unicode="&#x2a;" d="M261 700L189 700L191 573L79 618L55 552L171 515L96 414L154 372L225 476L299 372L356 415L280 514L400 552L376 619L260 573Z"  horiz-adv-x="455" vert-adv-y="1000"  />

      
      <glyph glyph-name="uni2b" unicode="&#x2b;" d="M360 600L237 600L237 410L50 410L50 290L237 290L237 101L360 101L360 290L546 290L546 410L360 410Z"  horiz-adv-x="596" vert-adv-y="1000"  />

      
      <glyph glyph-name="uni2c" unicode="&#x2c;" d="M202 148L60 148L60 5L126 5C126-36 103-87 64-106L92-154C149-126 202-55 202 10Z"  horiz-adv-x="262" vert-adv-y="1000"  />

      
      <glyph glyph-name="uni2d" unicode="&#x2d;" d="M60 211L293 211L293 333L60 333Z"  horiz-adv-x="353" vert-adv-y="1000"  />

      
      <glyph glyph-name="uni2e" unicode="&#x2e;" d="M60 0L200 0L200 145L60 145Z"  horiz-adv-x="260" vert-adv-y="1000"  />

      
      <glyph glyph-name="uni2f" unicode="&#x2f;" d="M20-13L136-13L421 713L306 713Z"  horiz-adv-x="441" vert-adv-y="1000"  />

      
      <glyph glyph-name="uni30" unicode="&#x30;" d="M327-18C471-8 596 106 596 355C596 594 480 710 327 718L327 595C400 586 450 511 450 353C450 167 393 115 327 107ZM297 107C228 114 178 189 178 349C178 503 224 586 297 595L297 718C155 711 30 590 30 349C30 105 153-13 297-18Z"  horiz-adv-x="626" vert-adv-y="1000"  />

      
      <glyph glyph-name="uni31" unicode="&#x31;" d="M324 0L324 700L213 700C197 646 157 578 46 578L46 481L140 481C172 481 182 480 182 447L182 0Z"  horiz-adv-x="410" vert-adv-y="1000"  />

      
      <glyph glyph-name="uni32" unicode="&#x32;" d="M39 0L80 0L381 229C466 294 549 368 549 483C549 612 464 710 310 718L310 599C368 590 402 531 402 487C402 417 380 383 243 279L39 124ZM294 124L130 0L550 0L550 124ZM280 718C119 713 40 588 40 488L40 432L180 416C180 426 178 458 178 482C178 538 221 591 280 599Z"  horiz-adv-x="593" vert-adv-y="1000"  />

      
      <glyph glyph-name="uni33" unicode="&#x33;" d="M279 101C203 105 181 162 170 239L30 223C39 73 124-12 279-18ZM309-18C446-14 559 71 559 208C559 312 478 363 440 374C481 389 542 432 542 520C542 629 448 712 309 718L309 603C356 597 401 565 401 510C401 437 335 418 292 418L237 418L237 312L290 312C311 312 414 308 414 207C414 138 356 108 309 101ZM279 718C116 711 55 592 44 492L181 476C185 536 210 595 279 603Z"  horiz-adv-x="589" vert-adv-y="1000"  />

      
      <glyph glyph-name="uni34" unicode="&#x34;" d="M317 480L317 658L41 270L41 168L317 168L317 275L171 275ZM347 700L347 0L489 0L489 168L584 168L584 275L489 275L489 700Z"  horiz-adv-x="623" vert-adv-y="1000"  />

      
      <glyph glyph-name="uni35" unicode="&#x35;" d="M269 101C206 110 171 162 166 218L30 211C40 65 120-14 269-18ZM253 579L521 579L537 700L274 700ZM243 700L122 700L55 321L174 309ZM213 355C231 368 257 378 292 378C364 378 419 322 419 240C419 179 382 106 299 100L299-18C447-10 564 89 564 244C564 405 455 495 323 495C287 495 258 488 235 479Z"  horiz-adv-x="601" vert-adv-y="1000"  />

      
      <glyph glyph-name="uni36" unicode="&#x36;" d="M209 304C230 331 259 348 299 348C373 348 416 296 416 226C416 156 373 116 317 107L317-18C460-10 561 93 561 229C561 382 460 467 328 467C274 467 235 454 209 438ZM179 433C179 532 229 587 297 595L297 718C138 705 30 577 30 335C30 109 133-12 287-18L287 107C232 113 179 166 179 308ZM327 595C400 583 410 533 412 514L551 527C537 665 423 718 327 718Z"  horiz-adv-x="591" vert-adv-y="1000"  />

      
      <glyph glyph-name="uni37" unicode="&#x37;" d="M456 700C338 541 174 360 98 0L269 0C314 332 485 533 520 576L520 700ZM418 700L20 700L20 576L325 576Z"  horiz-adv-x="535" vert-adv-y="1000"  />

      
      <glyph glyph-name="uni38" unicode="&#x38;" d="M286 105C224 112 175 149 175 204C175 263 224 301 286 307L286 423C226 429 188 467 188 512C188 560 227 591 286 597L286 718C141 713 49 626 49 521C49 440 102 390 143 369C101 354 30 297 30 200C30 103 107-11 286-18ZM316-18C494-13 578 101 578 198C578 304 502 357 460 372C496 387 554 432 554 525C554 625 466 712 316 718L316 597C380 591 414 559 414 512C414 462 374 428 316 423L316 307C379 302 429 266 429 204C429 146 379 111 316 105Z"  horiz-adv-x="608" vert-adv-y="1000"  />

      
      <glyph glyph-name="uni39" unicode="&#x39;" d="M386 389C365 362 332 349 292 349C215 349 173 404 173 474C173 544 218 586 274 595L274 718C131 710 30 607 30 471C30 318 131 233 263 233C317 233 360 244 386 260ZM416 281C416 141 362 119 294 107L294-18C453-5 564 123 564 365C564 591 458 712 304 718L304 595C360 587 416 535 416 389ZM264 107C187 115 176 167 174 186L35 173C49 35 158-18 264-18Z"  horiz-adv-x="594" vert-adv-y="1000"  />

      
      <glyph glyph-name="uni3a" unicode="&#x3a;" d="M60 370L200 370L200 516L60 516ZM60 0L200 0L200 145L60 145Z"  horiz-adv-x="260" vert-adv-y="1000"  />

      
      <glyph glyph-name="uni3b" unicode="&#x3b;" d="M64 370L204 370L204 516L64 516ZM202 148L60 148L60 5L128 5C128-35 107-86 68-105L96-154C156-127 202-56 202 10Z"  horiz-adv-x="264" vert-adv-y="1000"  />

      
      <glyph glyph-name="uni3c" unicode="&#x3c;" d="M545 607L53 411L53 282L545 87L545 215L215 346L545 478Z"  horiz-adv-x="595" vert-adv-y="1000"  />

      
      <glyph glyph-name="uni3d" unicode="&#x3d;" d="M545 296L50 296L50 176L545 176ZM545 518L50 518L50 398L545 398Z"  horiz-adv-x="595" vert-adv-y="1000"  />

      
      <glyph glyph-name="uni3e" unicode="&#x3e;" d="M50 87L542 283L542 411L50 608L50 478L380 347L50 216Z"  horiz-adv-x="595" vert-adv-y="1000"  />

      
      <glyph glyph-name="uni3f" unicode="&#x3f;" d="M321 0L321 140L183 140L183 0ZM274 595C319 590 360 560 360 502C360 395 194 413 194 259L194 192L311 192L311 234C311 350 500 310 500 516C500 591 439 703 274 710ZM244 710C58 702 26 538 25 496L147 456C147 509 164 586 244 595Z"  horiz-adv-x="530" vert-adv-y="1000"  />

      
      <glyph glyph-name="uni40" unicode="&#x40;" d="M579 34C540 11 495-2 426-3L426-85C499-83 562-64 615-32ZM396 643C189 636 35 479 35 279C35 65 195-79 396-85L396-3C247 4 132 107 132 276C132 436 237 553 396 560ZM426 393C457 384 479 354 479 310C479 243 427 151 361 151C312 151 285 186 285 238C285 304 327 387 396 395L396 485C276 481 188 359 188 229C188 133 256 62 338 62C388 62 422 85 446 118C453 89 470 59 514 59C594 59 756 145 756 343C756 518 607 637 426 643L426 560C559 555 668 477 668 328C668 193 576 144 542 144C535 144 533 150 533 158C533 165 535 178 550 234L612 466L524 466L510 419C494 456 461 477 426 483Z"  horiz-adv-x="791" vert-adv-y="1000"  />

      
      <glyph glyph-name="uni41" unicode="&#x41;" d="M228 654L10 0L154 0L188 106L421 106L380 222L226 222L298 454ZM243 700L490 0L642 0L395 700Z"  horiz-adv-x="652" vert-adv-y="1000"  />

      
      <glyph glyph-name="uni42" unicode="&#x42;" d="M236 0L378 0C524 0 613 79 613 204C613 284 562 358 497 372L497 375C551 397 589 444 589 521C589 638 496 700 374 700L236 700L236 578L354 578C394 578 441 566 441 508C441 454 410 423 333 423L236 423L236 309L354 309C411 309 466 288 466 214C466 163 421 124 363 124L236 124ZM206 700L60 700L60 0L206 0Z"  horiz-adv-x="643" vert-adv-y="1000"  />

      
      <glyph glyph-name="uni43" unicode="&#x43;" d="M378 583C458 576 509 515 526 460L658 521C612 623 532 712 378 718ZM378-18C542-12 629 93 670 187L532 252C507 174 452 123 378 117ZM348 117C239 126 182 228 182 351C182 494 253 575 348 583L348 718C209 712 30 620 30 350C30 147 147-11 348-18Z"  horiz-adv-x="695" vert-adv-y="1000"  />

      
      <glyph glyph-name="uni44" unicode="&#x44;" d="M206 700L60 700L60 0L206 0ZM236 0L314 0C487 0 643 96 643 359C643 482 586 586 515 639C456 683 387 700 304 700L236 700L236 572L289 572C436 572 497 483 497 358C497 161 395 130 306 130L236 130Z"  horiz-adv-x="673" vert-adv-y="1000"  />

      
      <glyph glyph-name="uni45" unicode="&#x45;" d="M236 570L535 570L535 700L236 700ZM236 293L519 293L519 420L236 420ZM236 0L548 0L548 130L236 130ZM206 700L60 700L60 0L206 0Z"  horiz-adv-x="588" vert-adv-y="1000"  />

      
      <glyph glyph-name="uni46" unicode="&#x46;" d="M236 271L507 271L507 399L236 399ZM206 700L60 700L60 0L206 0ZM236 570L529 570L529 700L236 700Z"  horiz-adv-x="564" vert-adv-y="1000"  />

      
      <glyph glyph-name="uni47" unicode="&#x47;" d="M378 583C472 576 515 509 533 468L657 532C632 598 549 712 378 718ZM378-18C438-15 498 8 539 58L541 58L541 0L667 0L667 386L376 386L376 264L536 264C536 196 492 123 378 117ZM348 117C239 126 182 228 182 351C182 494 253 575 348 583L348 718C209 712 30 620 30 350C30 147 147-11 348-18Z"  horiz-adv-x="722" vert-adv-y="1000"  />

      
      <glyph glyph-name="uni48" unicode="&#x48;" d="M327 432L206 432L206 700L60 700L60 0L206 0L206 303L327 303ZM357 303L479 303L479 0L625 0L625 700L479 700L479 432L357 432Z"  horiz-adv-x="685" vert-adv-y="1000"  />

      
      <glyph glyph-name="uni49" unicode="&#x49;" d="M206 0L206 700L60 700L60 0Z"  horiz-adv-x="266" vert-adv-y="1000"  />

      
      <glyph glyph-name="uni4a" unicode="&#x4a;" d="M111 0C257 0 257 95 257 213L257 700L111 700L111 193C111 149 105 130 62 130L20 130L20 0Z"  horiz-adv-x="312" vert-adv-y="1000"  />

      
      <glyph glyph-name="uni4b" unicode="&#x4b;" d="M206 700L60 700L60 0L206 0ZM650 700L490 700L236 427L236 253ZM340 321L507 0L667 0L438 427Z"  horiz-adv-x="682" vert-adv-y="1000"  />

      
      <glyph glyph-name="uni4c" unicode="&#x4c;" d="M206 700L60 700L60 0L206 0ZM236 0L506 0L506 130L236 130Z"  horiz-adv-x="526" vert-adv-y="1000"  />

      
      <glyph glyph-name="uni4d" unicode="&#x4d;" d="M60 617L60 0L198 0L198 248ZM475 43L719 700L581 700L407 225ZM198 700L60 700L322 0L459 0ZM581 245L581 0L719 0L719 617Z"  horiz-adv-x="779" vert-adv-y="1000"  />

      
      <glyph glyph-name="uni4e" unicode="&#x4e;" d="M611 116L611 700L472 700L472 331ZM60 584L60 0L199 0L199 368ZM472 0L611 0L611 60L198 700L60 700L60 640Z"  horiz-adv-x="671" vert-adv-y="1000"  />

      
      <glyph glyph-name="uni4f" unicode="&#x4f;" d="M378 583C450 576 544 520 544 350C544 193 460 124 378 117L378-18C532-12 696 96 696 350C696 627 511 712 378 718ZM348 718C209 712 30 620 30 350C30 103 190-11 348-18L348 117C264 125 182 197 182 350C182 517 273 576 348 583Z"  horiz-adv-x="726" vert-adv-y="1000"  />

      
      <glyph glyph-name="uni50" unicode="&#x50;" d="M206 700L60 700L60 0L206 0ZM236 232L335 232C506 232 583 336 583 472C583 588 514 700 330 700L236 700L236 579L319 579C392 579 437 541 437 472C437 381 379 353 319 353L236 353Z"  horiz-adv-x="613" vert-adv-y="1000"  />

      
      <glyph glyph-name="uni51" unicode="&#x51;" d="M378 583C450 576 544 520 544 350C544 193 460 124 378 117L378-18C446-15 517 7 574 54C615-9 686-37 718-37L757 93C713 97 675 115 647 142C677 196 696 265 696 350C696 627 511 712 378 718ZM348 718C209 712 30 620 30 350C30 103 190-11 348-18L348 117C264 125 182 197 182 350C182 517 273 576 348 583Z"  horiz-adv-x="747" vert-adv-y="1000"  />

      
      <glyph glyph-name="uni52" unicode="&#x52;" d="M236 371L236 252L322 252L461 0L622 0L470 275C539 306 592 365 592 480C592 621 500 700 355 700L236 700L236 577L351 577C403 577 446 545 446 477C446 401 404 371 351 371ZM206 700L60 700L60 0L206 0Z"  horiz-adv-x="642" vert-adv-y="1000"  />

      
      <glyph glyph-name="uni53" unicode="&#x53;" d="M349 591C440 581 479 523 497 494L620 569C583 633 500 710 349 718ZM319 114C219 125 173 192 151 226L25 150C79 55 183-13 319-18ZM349-18C543-14 633 95 633 213C633 340 546 403 426 421L301 440C268 445 205 457 205 516C205 554 242 591 319 592L319 718C198 716 55 655 55 493C55 367 161 315 241 302L381 280C432 272 481 252 481 197C481 136 403 114 349 114Z"  horiz-adv-x="663" vert-adv-y="1000"  />

      
      <glyph glyph-name="uni54" unicode="&#x54;" d="M392 570L558 570L558 700L392 700ZM186 570L186 700L20 700L20 570ZM216 700L216 0L362 0L362 700Z"  horiz-adv-x="578" vert-adv-y="1000"  />

      
      <glyph glyph-name="uni55" unicode="&#x55;" d="M314 116C241 121 202 164 202 261L202 700L55 700L55 215C55 45 209-13 314-18ZM344-18C556-12 613 121 613 230L613 700L466 700L466 260C466 160 430 120 344 116Z"  horiz-adv-x="668" vert-adv-y="1000"  />

      
      <glyph glyph-name="uni56" unicode="&#x56;" d="M378 0L159 700L10 700L228 0ZM395 56L593 700L449 700L322 289Z"  horiz-adv-x="603" vert-adv-y="1000"  />

      
      <glyph glyph-name="uni57" unicode="&#x57;" d="M338 0L163 700L15 700L183 0ZM285 334L352 68L427 447L545 0L690 0L503 700L359 700ZM630 341L704 63L848 700L703 700Z"  horiz-adv-x="863" vert-adv-y="1000"  />

      
      <glyph glyph-name="uni58" unicode="&#x58;" d="M211 700L45 700L492 0L663 0ZM316 220L233 353L10 0L180 0ZM356 530L440 399L628 700L461 700Z"  horiz-adv-x="673" vert-adv-y="1000"  />

      
      <glyph glyph-name="uni59" unicode="&#x59;" d="M380 282L158 700L10 700L235 282L235 0L380 0ZM323 450L397 311L607 700L461 700Z"  horiz-adv-x="617" vert-adv-y="1000"  />

      
      <glyph glyph-name="uni5a" unicode="&#x5a;" d="M461 700L67 700L67 570L358 570ZM500 700L40 121L40 0L124 0L583 577L583 700ZM164 0L593 0L593 130L267 130Z"  horiz-adv-x="633" vert-adv-y="1000"  />

      
      <glyph glyph-name="uni5b" unicode="&#x5b;" d="M50-170L288-170L288-56L195-56L195 755L288 755L288 870L50 870Z"  horiz-adv-x="318" vert-adv-y="1000"  />

      
      <glyph glyph-name="uni5c" unicode="&#x5c;" d="M139 713L20 713L305-13L425-13Z"  horiz-adv-x="445" vert-adv-y="1000"  />

      
      <glyph glyph-name="uni5d" unicode="&#x5d;" d="M269 870L30 870L30 755L123 755L123-56L30-56L30-170L269-170Z"  horiz-adv-x="319" vert-adv-y="1000"  />

      
      <glyph glyph-name="uni5e" unicode="&#x5e;" d="M64 334L169 334L294 614L419 334L523 334L358 706L230 706Z"  horiz-adv-x="600" vert-adv-y="1000"  />

      
      <glyph glyph-name="uni5f" unicode="&#x5f;" d="M0-122L490-122L490-73L0-73Z"  horiz-adv-x="500" vert-adv-y="1000"  />

      
      <glyph glyph-name="uni60" unicode="&#x60;" d="M180 576L277 576L185 710L32 710Z"  horiz-adv-x="307" vert-adv-y="1000"  />

      
      <glyph glyph-name="uni61" unicode="&#x61;" d="M338 58C338 31 343 10 345 0L485 0C481 8 467 35 467 74L467 352C467 459 428 526 253 526C152 526 58 491 53 348L176 348C179 395 201 420 257 420C323 420 338 387 338 365ZM308 126C290 109 265 98 234 98C185 98 165 125 165 155C165 189 185 208 235 216L308 227L308 325L235 316C136 304 30 279 30 160C30 43 107-5 207-5C251-5 280 2 308 18Z"  horiz-adv-x="515" vert-adv-y="1000"  />

      
      <glyph glyph-name="uni62" unicode="&#x62;" d="M184 700L50 700L50 0L184 0ZM214 13C236-1 267-12 316-12C446-12 532 88 532 256C532 445 424 526 312 526C273 526 243 517 214 501L214 378C229 395 254 410 287 410C349 410 397 358 397 255C397 153 350 106 287 106C253 106 230 118 214 136Z"  horiz-adv-x="562" vert-adv-y="1000"  />

      
      <glyph glyph-name="uni63" unicode="&#x63;" d="M303 411C353 404 381 369 396 327L502 385C466 459 403 521 303 526ZM303-12C390-7 460 40 511 127L403 190C384 147 357 109 303 103ZM273 103C196 111 166 178 166 257C166 341 197 404 273 411L273 526C115 519 30 399 30 257C30 97 122-4 273-12Z"  horiz-adv-x="536" vert-adv-y="1000"  />

      
      <glyph glyph-name="uni64" unicode="&#x64;" d="M378 0L512 0L512 700L378 700ZM348 136C332 118 309 106 275 106C212 106 165 153 165 255C165 358 213 410 275 410C308 410 333 395 348 378L348 501C319 517 289 526 250 526C138 526 30 445 30 256C30 88 116-12 246-12C295-12 326-1 348 13Z"  horiz-adv-x="562" vert-adv-y="1000"  />

      
      <glyph glyph-name="uni65" unicode="&#x65;" d="M293-12C415-7 477 57 512 115L402 180C383 141 360 107 293 103ZM200 323C195 306 193 286 193 265C193 251 193 238 195 226L514 226C514 290 502 363 468 420C433 478 375 521 293 526L293 411C348 400 364 352 368 323ZM163 265C163 338 187 408 263 411L263 526C159 520 30 453 30 248C30 61 174-5 263-12L263 103C182 119 163 196 163 265Z"  horiz-adv-x="544" vert-adv-y="1000"  />

      
      <glyph glyph-name="uni66" unicode="&#x66;" d="M334 599L334 708C315 710 264 713 223 713C120 713 91 658 91 599L91 516L10 516L10 404L91 404L91 0L226 0L226 404L332 404L332 516L226 516L226 562C226 594 246 600 276 600C293 600 324 599 334 599Z"  horiz-adv-x="354" vert-adv-y="1000"  />

      
      <glyph glyph-name="uni67" unicode="&#x67;" d="M163 277C163 375 209 412 267 412C292 412 317 401 336 380L336 498C315 513 288 526 247 526C122 526 30 438 30 277C30 101 133 29 242 29C286 29 314 39 336 54L336 169C318 153 293 142 265 142C207 142 163 182 163 277ZM366 20C366-37 340-69 262-69C184-69 178-22 178-10L45-10C45-41 45-182 270-182C451-182 496-71 496 30L496 516L366 516Z"  horiz-adv-x="546" vert-adv-y="1000"  />

      
      <glyph glyph-name="uni68" unicode="&#x68;" d="M184 700L50 700L50 0L184 0ZM214 378C232 399 257 412 287 412C351 412 355 373 355 309L355 0L489 0L489 329C489 462 438 526 313 526C272 526 240 513 214 494Z"  horiz-adv-x="537" vert-adv-y="1000"  />

      
      <glyph glyph-name="uni69" unicode="&#x69;" d="M184 576L184 700L50 700L50 576ZM184 0L184 516L50 516L50 0Z"  horiz-adv-x="234" vert-adv-y="1000"  />

      
      <glyph glyph-name="uni6a" unicode="&#x6a;" d="M194 576L194 700L60 700L60 576ZM194 516L60 516L60 51C60-2 51-22 23-22L-27-22L-27-137C-15-138 15-141 49-141C126-141 194-120 194-5Z"  horiz-adv-x="242" vert-adv-y="1000"  />

      
      <glyph glyph-name="uni6b" unicode="&#x6b;" d="M184 700L50 700L50 0L184 0ZM273 218L385 0L538 0L369 318ZM517 516L364 516L214 356L214 200Z"  horiz-adv-x="553" vert-adv-y="1000"  />

      
      <glyph glyph-name="uni6c" unicode="&#x6c;" d="M184 0L184 700L50 700L50 0Z"  horiz-adv-x="234" vert-adv-y="1000"  />

      
      <glyph glyph-name="uni6d" unicode="&#x6d;" d="M184 516L50 516L50 0L184 0ZM501 382C522 404 543 412 570 412C628 412 632 368 632 328L632 0L766 0L766 321C766 390 749 526 612 526C550 526 511 513 467 487C481 461 496 423 501 382ZM475 292C475 419 450 526 314 526C270 526 239 512 214 493L214 382C230 401 253 412 280 412C335 412 341 372 341 328L341 0L475 0Z"  horiz-adv-x="814" vert-adv-y="1000"  />

      
      <glyph glyph-name="uni6e" unicode="&#x6e;" d="M184 516L50 516L50 0L184 0ZM214 378C232 399 257 412 287 412C351 412 355 373 355 309L355 0L489 0L489 329C489 462 438 526 313 526C272 526 240 513 214 494Z"  horiz-adv-x="537" vert-adv-y="1000"  />

      
      <glyph glyph-name="uni6f" unicode="&#x6f;" d="M273 103C195 111 166 178 166 257C166 341 197 404 273 411L273 526C115 519 30 399 30 257C30 106 119-4 273-12ZM303-12C429-3 541 86 541 257C541 405 451 519 303 526L303 411C365 404 405 351 405 257C405 174 375 111 303 103Z"  horiz-adv-x="571" vert-adv-y="1000"  />

      
      <glyph glyph-name="uni70" unicode="&#x70;" d="M184 516L50 516L50-143L184-143ZM214 381C231 401 256 413 287 413C350 413 397 364 397 262C397 159 347 115 285 115C252 115 229 128 214 145L214 22C243 6 273-3 312-3C424-3 532 72 532 261C532 429 446 526 316 526C267 526 236 513 214 499Z"  horiz-adv-x="562" vert-adv-y="1000"  />

      
      <glyph glyph-name="uni71" unicode="&#x71;" d="M378-143L512-143L512 516L378 516ZM348 499C326 513 295 526 246 526C116 526 30 429 30 261C30 72 138-3 250-3C289-3 319 6 348 22L348 145C333 128 310 115 277 115C215 115 165 159 165 262C165 364 212 413 275 413C306 413 331 401 348 381Z"  horiz-adv-x="562" vert-adv-y="1000"  />

      
      <glyph glyph-name="uni72" unicode="&#x72;" d="M184 516L50 516L50 0L184 0ZM214 357C234 375 264 385 308 385L349 385L349 521L331 521C282 521 241 506 214 480Z"  horiz-adv-x="374" vert-adv-y="1000"  />

      
      <glyph glyph-name="uni73" unicode="&#x73;" d="M276-13C406-7 490 57 490 170C490 239 445 298 339 316L268 328C223 335 186 344 186 371C186 397 207 413 246 416L246 526C136 520 51 463 51 361C51 279 95 233 193 213C288 193 354 191 354 153C354 123 323 103 276 100ZM246 100C196 105 148 131 118 164L20 82C83 16 156-11 246-13ZM276 416C335 411 374 377 393 356L476 438C457 458 397 522 276 526Z"  horiz-adv-x="520" vert-adv-y="1000"  />

      
      <glyph glyph-name="uni74" unicode="&#x74;" d="M342 404L342 516L236 516L236 700L101 700L101 516L15 516L15 404L101 404L101 138C101 44 129-5 257-5C265-5 322-5 342-2L342 120C323 119 313 119 297 119C246 119 236 135 236 185L236 404Z"  horiz-adv-x="370" vert-adv-y="1000"  />

      
      <glyph glyph-name="uni75" unicode="&#x75;" d="M353 0L487 0L487 516L353 516ZM323 138C305 117 280 104 250 104C186 104 182 143 182 207L182 516L48 516L48 187C48 54 99-10 224-10C265-10 297 3 323 22Z"  horiz-adv-x="537" vert-adv-y="1000"  />

      
      <glyph glyph-name="uni76" unicode="&#x76;" d="M321 48L480 516L344 516L258 256ZM146 516L5 516L171 0L304 0Z"  horiz-adv-x="485" vert-adv-y="1000"  />

      
      <glyph glyph-name="uni77" unicode="&#x77;" d="M306 55L372 283L454 0L583 0L440 516L322 516L247 260ZM142 516L5 516L161 0L290 0ZM599 54L739 516L602 516L536 283Z"  horiz-adv-x="744" vert-adv-y="1000"  />

      
      <glyph glyph-name="uni78" unicode="&#x78;" d="M183 516L30 516L368 0L517 0ZM165 255L7 0L155 0L240 141ZM285 413L359 298L494 516L345 516Z"  horiz-adv-x="524" vert-adv-y="1000"  />

      
      <glyph glyph-name="uni79" unicode="&#x79;" d="M180 11C172-20 152-25 128-25L68-25L68-143L149-143C250-143 271-102 290-44L469 516L334 516ZM223 268L142 516L5 516L161 65Z"  horiz-adv-x="474" vert-adv-y="1000"  />

      
      <glyph glyph-name="uni7a" unicode="&#x7a;" d="M322 516L47 516L47 404L230 404ZM361 516L25 109L25 0L101 0L445 417L445 516ZM140 0L446 0L446 112L232 112Z"  horiz-adv-x="476" vert-adv-y="1000"  />

      
      <glyph glyph-name="uni7b" unicode="&#x7b;" d="M379 870L268 870C215 870 140 828 140 741L140 485C140 416 83 393 50 391L50 314C83 312 140 288 140 226L140-42C140-128 215-170 268-170L379-170L379-66L344-66C292-66 286-20 286 11L286 241C286 321 205 344 176 348L176 353C204 356 286 378 286 471L286 686C286 720 292 765 344 765L379 765Z"  horiz-adv-x="409" vert-adv-y="1000"  />

      
      <glyph glyph-name="uni7c" unicode="&#x7c;" d="M60-20L166-20L166 720L60 720Z"  horiz-adv-x="226" vert-adv-y="1000"  />

      
      <glyph glyph-name="uni7d" unicode="&#x7d;" d="M30 765L65 765C117 765 123 720 123 686L123 471C123 378 204 356 233 353L233 348C204 344 123 321 123 241L123 11C123-20 117-66 65-66L30-66L30-170L141-170C193-170 268-128 268-42L268 226C268 288 326 312 359 314L359 391C326 393 268 416 268 485L268 741C268 828 193 870 141 870L30 870Z"  horiz-adv-x="409" vert-adv-y="1000"  />

      
      <glyph glyph-name="uni7e" unicode="&#x7e;" d="M444 438C444 399 426 385 407 385C342 385 268 438 179 438C106 438 50 375 50 266L152 266C152 306 173 319 193 319C258 319 327 266 416 266C515 266 546 342 546 438Z"  horiz-adv-x="596" vert-adv-y="1000"  />

      
      <glyph glyph-name="unia1" unicode="&#xa1;" d="M62-184L199-184L199 45L156 329L101 329L62 45ZM60 516L60 376L196 376L196 516Z"  horiz-adv-x="259" vert-adv-y="1000"  />

      
      <glyph glyph-name="unia2" unicode="&#xa2;" d="M331 655L331 750L245 750L245 655ZM245 60L245-50L331-50L331 60ZM303 510C353 503 381 468 396 426L502 484C466 558 403 620 303 625ZM303 87C390 92 460 139 511 226L403 289C384 246 357 208 303 202ZM273 202C196 210 166 277 166 356C166 440 197 503 273 510L273 625C115 618 30 498 30 356C30 196 122 95 273 87Z"  horiz-adv-x="536" vert-adv-y="1000"  />

      
      <glyph glyph-name="unia3" unicode="&#xa3;" d="M300 595C355 589 384 544 389 497L509 517C496 620 422 704 300 709ZM354 102C293 102 217 135 149 135C96 135 50 114 25 59L98-3C102 8 116 25 146 25C184 25 284-12 361-12C484-12 530 75 543 145L428 145C424 136 404 102 354 102ZM163 165C199 163 239 152 275 144C289 164 300 190 300 229C300 241 299 254 297 268L413 268L413 350L272 350L253 388C231 432 205 467 205 508C205 551 227 586 270 594L270 709C143 703 66 629 66 511C66 451 90 402 116 350L40 350L40 268L154 268C164 244 170 219 170 197C170 185 168 175 163 165Z"  horiz-adv-x="573" vert-adv-y="1000"  />

      
      <glyph glyph-name="unia4" unicode="&#xa4;" d="M420 117C341 123 290 178 267 255L490 255L515 323L255 323C254 332 254 341 254 351L254 377L536 377L562 445L266 445C290 529 348 577 420 583L420 718C299 713 147 642 110 445L40 445L15 377L103 377C102 368 102 359 102 350C102 341 102 332 103 323L40 323L15 255L111 255C142 99 251-12 420-18ZM450 583C511 578 555 541 580 499L641 647C595 688 533 715 450 718ZM589 207C560 154 511 122 450 117L450-18C504-16 550-3 589 17Z"  horiz-adv-x="672" vert-adv-y="1000"  />

      
      <glyph glyph-name="unia5" unicode="&#xa5;" d="M15 700L216 342L216 327L100 327L100 259L216 259L216 206L100 206L100 138L216 138L216 0L361 0L361 138L475 138L475 206L361 206L361 259L475 259L475 327L361 327L361 342L162 700ZM416 700L303 509L379 371L564 700Z"  horiz-adv-x="579" vert-adv-y="1000"  />

      
      <glyph glyph-name="unia6" unicode="&#xa6;" d="M166 720L60 720L60 400L166 400ZM60-20L166-20L166 300L60 300Z"  horiz-adv-x="226" vert-adv-y="1000"  />

      
      <glyph glyph-name="unia7" unicode="&#xa7;" d="M291 622C337 615 364 576 364 527L471 527C469 646 394 710 291 716ZM261 716C171 710 82 652 82 551C82 462 164 401 236 361L348 299C379 282 416 256 416 217C416 198 406 178 391 164C415 148 436 130 454 109C495 137 521 183 521 235C521 423 195 436 195 552C195 594 225 617 261 622ZM261-89C210-83 177-48 175 7L68 7C73-112 148-177 261-183ZM291-183C389-178 475-120 475-22C475 25 451 99 348 155L187 242C153 260 126 283 126 319C126 342 137 365 154 380C128 400 108 419 93 438C48 412 21 366 21 312C21 203 121 152 210 107C288 68 358 34 358-20C358-61 327-84 291-89Z"  horiz-adv-x="520" vert-adv-y="1000"  />

      
      <glyph glyph-name="unia8" unicode="&#xa8;" d="M30 576L154 576L154 700L30 700ZM224 576L350 576L350 700L224 700Z"  horiz-adv-x="380" vert-adv-y="1000"  />

      
      <glyph glyph-name="unia9" unicode="&#xa9;" d="M413 482C450 477 479 448 492 404L584 430C560 510 500 563 413 569ZM413 127C508 132 569 197 586 272L495 299C483 249 450 223 413 218ZM383 218C322 227 292 286 292 351C292 426 325 472 383 482L383 570C282 564 190 489 190 346C190 234 262 137 383 128ZM383 58C232 65 112 186 112 349C112 512 231 633 383 640L383 716C187 709 30 556 30 349C30 141 186-11 383-18ZM413-18C607-10 764 142 764 349C764 556 608 708 413 716L413 640C564 632 682 511 682 349C682 187 564 66 413 58Z"  horiz-adv-x="794" vert-adv-y="1000"  />

      
      <glyph glyph-name="uniaa" unicode="&#xaa;" d="M240 409C240 392 243 378 245 372L340 372C337 377 328 394 328 419L328 597C328 666 301 709 182 709C113 709 49 686 46 595L130 595C132 625 147 641 185 641C230 641 240 620 240 606ZM219 453C207 442 190 435 169 435C136 435 122 452 122 471C122 493 136 505 170 510L219 517L219 580L170 574C102 566 30 551 30 474C30 400 83 369 151 369C181 369 200 373 219 384Z"  horiz-adv-x="370" vert-adv-y="1000"  />

      
      <glyph glyph-name="uniab" unicode="&#xab;" d="M199 119L199 237L111 308L199 377L199 495L45 374L45 242ZM398 119L398 237L310 308L398 377L398 495L244 374L244 242Z"  horiz-adv-x="448" vert-adv-y="1000"  />

      
      <glyph glyph-name="uniac" unicode="&#xac;" d="M545 410L50 410L50 291L415 291L415 97L545 97Z"  horiz-adv-x="595" vert-adv-y="1000"  />

      
      <glyph glyph-name="uniad" unicode="&#xad;" d="M60 211L293 211L293 333L60 333Z"  horiz-adv-x="353" vert-adv-y="1000"  />

      
      <glyph glyph-name="uniae" unicode="&#xae;" d="M360 291L393 291L471 151L576 151L488 306C528 326 557 361 557 428C557 511 505 559 419 559L360 559L360 479L417 479C438 479 467 461 467 426C467 385 429 370 408 370L360 370ZM330 559L240 559L240 151L330 151ZM383 58C232 65 112 186 112 349C112 512 231 633 383 640L383 716C187 709 30 556 30 349C30 141 186-11 383-18ZM413-18C607-10 764 142 764 349C764 556 608 708 413 716L413 640C564 632 682 511 682 349C682 187 564 66 413 58Z"  horiz-adv-x="794" vert-adv-y="1000"  />

      
      <glyph glyph-name="uniaf" unicode="&#xaf;" d="M30 602L325 602L325 687L30 687Z"  horiz-adv-x="355" vert-adv-y="1000"  />

      
      <glyph glyph-name="unib0" unicode="&#xb0;" d="M170 470C134 478 104 514 104 555C104 596 135 632 170 639L170 699C96 691 40 630 40 555C40 478 96 418 170 411ZM200 411C274 418 330 478 330 555C330 630 273 691 200 699L200 639C236 631 266 596 266 555C266 514 235 478 200 470Z"  horiz-adv-x="370" vert-adv-y="1000"  />

      
      <glyph glyph-name="unib1" unicode="&#xb1;" d="M360 691L237 691L237 501L50 501L50 381L237 381L237 192L360 192L360 381L546 381L546 501L360 501ZM546 130L50 130L50 10L546 10Z"  horiz-adv-x="596" vert-adv-y="1000"  />

      
      <glyph glyph-name="unib2" unicode="&#xb2;" d="M30 252L57 252L262 399C320 441 376 488 376 561C376 644 319 706 214 712L214 635C253 630 276 592 276 564C276 519 261 498 168 431L30 331ZM203 331L91 252L377 252L377 331ZM193 712C84 708 30 628 30 564L30 528L125 518C125 525 124 545 124 560C124 596 153 630 193 635Z"  horiz-adv-x="407" vert-adv-y="1000"  />

      
      <glyph glyph-name="unib3" unicode="&#xb3;" d="M200 317C148 319 133 356 126 405L30 395C37 299 94 244 200 240ZM220 240C313 243 390 297 390 385C390 452 335 484 309 491C337 501 379 528 379 585C379 655 315 708 220 712L220 638C252 634 283 614 283 578C283 532 238 520 209 520L171 520L171 452L207 452C221 452 292 449 292 384C292 340 252 321 220 317ZM200 712C89 707 47 631 40 567L133 557C136 595 153 633 200 638Z"  horiz-adv-x="420" vert-adv-y="1000"  />

      
      <glyph glyph-name="unib4" unicode="&#xb4;" d="M277 710L123 710L30 576L127 576Z"  horiz-adv-x="308" vert-adv-y="1000"  />

      
      <glyph glyph-name="unib5" unicode="&#xb5;" d="M60-177L194-177L194 19C216 4 238-3 260-3C287-3 313 7 335 22L335 138C317 117 292 114 262 114C198 114 194 153 194 217L194 516L60 516ZM365 0L499 0L499 516L365 516Z"  horiz-adv-x="559" vert-adv-y="1000"  />

      
      <glyph glyph-name="unib6" unicode="&#xb6;" d="M389 629L427 629L427-155L515-155L515 700L389 700ZM359 700L253 700C116 700 23 642 23 508C23 405 103 332 232 331L232-155L320-155L320 629L359 629Z"  horiz-adv-x="610" vert-adv-y="1000"  />

      
      <glyph glyph-name="unib7" unicode="&#xb7;" d="M60 279L200 279L200 424L60 424Z"  horiz-adv-x="260" vert-adv-y="1000"  />

      
      <glyph glyph-name="unib8" unicode="&#xb8;" d="M27-205C57-218 96-227 136-227C203-227 267-198 267-127C267-86 232-46 170-46C137-46 112-49 79-66L93-104C105-99 118-97 133-97C159-97 171-113 171-129C171-154 152-162 128-162C100-162 65-151 50-144Z"  horiz-adv-x="296" vert-adv-y="1000"  />

      
      <glyph glyph-name="unib9" unicode="&#xb9;" d="M219 252L219 700L144 700C133 665 106 622 30 622L30 560L94 560C116 560 123 559 123 538L123 252Z"  horiz-adv-x="279" vert-adv-y="1000"  />

      
      <glyph glyph-name="uniba" unicode="&#xba;" d="M196 439C143 444 123 487 123 537C123 591 144 632 196 636L196 710C88 705 30 628 30 537C30 441 91 370 196 365ZM216 365C302 371 378 428 378 537C378 632 317 705 216 710L216 636C258 632 285 598 285 537C285 484 265 444 216 439Z"  horiz-adv-x="408" vert-adv-y="1000"  />

      
      <glyph glyph-name="unibb" unicode="&#xbb;" d="M45 495L45 377L133 308L45 237L45 119L199 242L199 374ZM244 495L244 377L332 308L244 237L244 119L398 242L398 374Z"  horiz-adv-x="448" vert-adv-y="1000"  />

      
      <glyph glyph-name="unibc" unicode="&#xbc;" d="M162-16L273-16L687 709L579 709ZM219 252L219 700L144 700C133 665 106 622 30 622L30 560L94 560C116 560 123 559 123 538L123 252ZM679 307L679 421L491 173L491 108L679 108L679 176L579 176ZM699 448L699 0L796 0L796 108L860 108L860 176L796 176L796 448Z"  horiz-adv-x="888" vert-adv-y="1000"  />

      
      <glyph glyph-name="unibd" unicode="&#xbd;" d="M168-16L279-16L693 709L585 709ZM219 252L219 700L144 700C133 665 106 622 30 622L30 560L94 560C116 560 123 559 123 538L123 252ZM580 0L607 0L812 147C870 189 926 236 926 309C926 392 869 454 764 460L764 383C803 378 826 340 826 312C826 267 811 246 718 179L580 79ZM753 79L641 0L927 0L927 79ZM743 460C634 456 580 376 580 312L580 276L675 266C675 273 674 293 674 308C674 344 703 378 743 383Z"  horiz-adv-x="963" vert-adv-y="1000"  />

      
      <glyph glyph-name="unibe" unicode="&#xbe;" d="M276-16L387-16L801 709L693 709ZM803 307L803 421L615 173L615 108L803 108L803 176L703 176ZM823 448L823 0L920 0L920 108L984 108L984 176L920 176L920 448ZM200 317C148 319 133 356 126 405L30 395C37 299 94 244 200 240ZM220 240C313 243 390 297 390 385C390 452 335 484 309 491C337 501 379 528 379 585C379 655 315 708 220 712L220 638C252 634 283 614 283 578C283 532 238 520 209 520L171 520L171 452L207 452C221 452 292 449 292 384C292 340 252 321 220 317ZM200 712C89 707 47 631 40 567L133 557C136 595 153 633 200 638Z"  horiz-adv-x="1012" vert-adv-y="1000"  />

      
      <glyph glyph-name="unibf" unicode="&#xbf;" d="M209 515L209 375L347 375L347 515ZM256-80C211-75 170-45 170 13C170 120 336 102 336 256L336 323L219 323L219 281C219 165 30 205 30-1C30-76 91-188 256-195ZM286-195C472-187 504-23 505 19L383 59C383 6 366-71 286-80Z"  horiz-adv-x="530" vert-adv-y="1000"  />

      
      <glyph glyph-name="unic0" unicode="&#xc0;" d="M228 654L10 0L154 0L188 106L421 106L380 222L226 222L298 454ZM243 700L490 0L642 0L395 700ZM270 750L367 750L285 840L142 840Z"  horiz-adv-x="652" vert-adv-y="1000"  />

      
      <glyph glyph-name="unic1" unicode="&#xc1;" d="M228 654L10 0L154 0L188 106L421 106L380 222L226 222L298 454ZM243 700L490 0L642 0L395 700ZM228 654L10 0L154 0L188 106L421 106L380 222L226 222L298 454ZM243 700L490 0L642 0L395 700ZM497 840L343 840L270 750L367 750Z"  horiz-adv-x="652" vert-adv-y="1000"  />

      
      <glyph glyph-name="unic2" unicode="&#xc2;" d="M228 654L10 0L154 0L188 106L421 106L380 222L226 222L298 454ZM243 700L490 0L642 0L395 700ZM146 750L261 750L313 790L320 790L364 750L489 750L381 840L254 840Z"  horiz-adv-x="652" vert-adv-y="1000"  />

      
      <glyph glyph-name="unic3" unicode="&#xc3;" d="M228 654L10 0L154 0L188 106L421 106L380 222L226 222L298 454ZM243 700L490 0L642 0L395 700ZM215 750C215 771 227 789 246 789C304 789 345 747 404 747C462 747 497 792 497 857L433 857C433 834 420 817 404 817C362 817 318 859 246 859C181 859 152 809 152 750Z"  horiz-adv-x="652" vert-adv-y="1000"  />

      
      <glyph glyph-name="unic4" unicode="&#xc4;" d="M228 654L10 0L154 0L188 106L421 106L380 222L226 222L298 454ZM243 700L490 0L642 0L395 700ZM157 750L281 750L281 840L157 840ZM351 750L477 750L477 840L351 840Z"  horiz-adv-x="652" vert-adv-y="1000"  />

      
      <glyph glyph-name="unic5" unicode="&#xc5;" d="M228 654L10 0L154 0L188 106L421 106L380 222L226 222L298 454ZM243 700L490 0L642 0L395 700ZM224 802C224 748 266 706 319 706C373 706 416 748 416 802C416 855 373 897 319 897C266 897 224 855 224 802ZM282 802C282 825 296 844 319 844C343 844 358 825 358 802C358 779 343 760 319 760C296 760 282 779 282 802Z"  horiz-adv-x="652" vert-adv-y="1000"  />

      
      <glyph glyph-name="unic6" unicode="&#xc6;" d="M574 570L896 570L896 700L553 700ZM618 293L880 293L880 420L597 420ZM664 0L939 0L939 130L643 130ZM523 700L377 700L488 0L634 0ZM353 654L10 0L152 0L207 106L440 106L421 222L267 222L384 454Z"  horiz-adv-x="969" vert-adv-y="1000"  />

      
      <glyph glyph-name="unic7" unicode="&#xc7;" d="M378 583C458 576 509 515 526 460L658 521C612 623 532 712 378 718ZM378-18C542-12 629 93 670 187L532 252C507 174 452 123 378 117ZM348 117C239 126 182 228 182 351C182 494 253 575 348 583L348 718C209 712 30 620 30 350C30 147 147-11 348-18ZM237-215C267-228 306-237 346-237C413-237 477-208 477-137C477-96 442-56 380-56C347-56 322-59 289-76L303-114C315-109 328-107 343-107C369-107 381-123 381-139C381-164 362-172 338-172C310-172 275-161 260-154Z"  horiz-adv-x="695" vert-adv-y="1000"  />

      
      <glyph glyph-name="unic8" unicode="&#xc8;" d="M236 570L535 570L535 700L236 700ZM236 293L519 293L519 420L236 420ZM236 0L548 0L548 130L236 130ZM206 700L60 700L60 0L206 0ZM270 750L367 750L285 840L142 840Z"  horiz-adv-x="588" vert-adv-y="1000"  />

      
      <glyph glyph-name="unic9" unicode="&#xc9;" d="M236 570L535 570L535 700L236 700ZM236 293L519 293L519 420L236 420ZM236 0L548 0L548 130L236 130ZM206 700L60 700L60 0L206 0ZM467 840L313 840L240 750L337 750Z"  horiz-adv-x="588" vert-adv-y="1000"  />

      
      <glyph glyph-name="unica" unicode="&#xca;" d="M236 570L535 570L535 700L236 700ZM236 293L519 293L519 420L236 420ZM236 0L548 0L548 130L236 130ZM206 700L60 700L60 0L206 0ZM126 750L241 750L293 790L300 790L344 750L469 750L361 840L234 840Z"  horiz-adv-x="588" vert-adv-y="1000"  />

      
      <glyph glyph-name="unicb" unicode="&#xcb;" d="M236 570L535 570L535 700L236 700ZM236 293L519 293L519 420L236 420ZM236 0L548 0L548 130L236 130ZM206 700L60 700L60 0L206 0ZM136 750L260 750L260 840L136 840ZM330 750L456 750L456 840L330 840Z"  horiz-adv-x="588" vert-adv-y="1000"  />

      
      <glyph glyph-name="unicc" unicode="&#xcc;" d="M206 0L206 700L60 700L60 0ZM99 750L196 750L114 840L-29 840Z"  horiz-adv-x="266" vert-adv-y="1000"  />

      
      <glyph glyph-name="unicd" unicode="&#xcd;" d="M206 0L206 700L60 700L60 0ZM297 840L143 840L70 750L167 750Z"  horiz-adv-x="266" vert-adv-y="1000"  />

      
      <glyph glyph-name="unice" unicode="&#xce;" d="M206 0L206 700L60 700L60 0ZM0 750L89 750L130 790L135 790L169 750L266 750L183 840L84 840Z"  horiz-adv-x="266" vert-adv-y="1000"  />

      
      <glyph glyph-name="unicf" unicode="&#xcf;" d="M206 0L206 700L60 700L60 0ZM0 750L103 750L103 840L0 840ZM160 750L265 750L265 840L160 840Z"  horiz-adv-x="266" vert-adv-y="1000"  />

      
      <glyph glyph-name="unid0" unicode="&#xd0;" d="M251 0L329 0C502 0 658 96 658 359C658 482 601 586 530 639C471 683 402 700 319 700L251 700L251 572L304 572C451 572 512 483 512 358C512 161 410 130 321 130L251 130ZM221 700L75 700L75 408L15 408L15 304L75 304L75 0L221 0L221 304L354 304L354 408L221 408Z"  horiz-adv-x="688" vert-adv-y="1000"  />

      
      <glyph glyph-name="unid1" unicode="&#xd1;" d="M611 116L611 700L472 700L472 331ZM60 584L60 0L199 0L199 368ZM472 0L611 0L611 60L198 700L60 700L60 640ZM228 750C228 771 240 789 259 789C317 789 358 747 417 747C475 747 510 792 510 857L446 857C446 834 433 817 417 817C375 817 331 859 259 859C194 859 165 809 165 750Z"  horiz-adv-x="671" vert-adv-y="1000"  />

      
      <glyph glyph-name="unid2" unicode="&#xd2;" d="M378 583C450 576 544 520 544 350C544 193 460 124 378 117L378-18C532-12 696 96 696 350C696 627 511 712 378 718ZM348 718C209 712 30 620 30 350C30 103 190-11 348-18L348 117C264 125 182 197 182 350C182 517 273 576 348 583ZM315 760L412 760L330 850L187 850Z"  horiz-adv-x="726" vert-adv-y="1000"  />

      
      <glyph glyph-name="unid3" unicode="&#xd3;" d="M378 583C450 576 544 520 544 350C544 193 460 124 378 117L378-18C532-12 696 96 696 350C696 627 511 712 378 718ZM348 718C209 712 30 620 30 350C30 103 190-11 348-18L348 117C264 125 182 197 182 350C182 517 273 576 348 583ZM537 850L383 850L310 760L407 760Z"  horiz-adv-x="726" vert-adv-y="1000"  />

      
      <glyph glyph-name="unid4" unicode="&#xd4;" d="M378 583C450 576 544 520 544 350C544 193 460 124 378 117L378-18C532-12 696 96 696 350C696 627 511 712 378 718ZM348 718C209 712 30 620 30 350C30 103 190-11 348-18L348 117C264 125 182 197 182 350C182 517 273 576 348 583ZM194 760L309 760L361 800L368 800L412 760L537 760L429 850L302 850Z"  horiz-adv-x="726" vert-adv-y="1000"  />

      
      <glyph glyph-name="unid5" unicode="&#xd5;" d="M378 583C450 576 544 520 544 350C544 193 460 124 378 117L378-18C532-12 696 96 696 350C696 627 511 712 378 718ZM348 718C209 712 30 620 30 350C30 103 190-11 348-18L348 117C264 125 182 197 182 350C182 517 273 576 348 583ZM253 760C253 781 265 799 284 799C342 799 383 757 442 757C500 757 535 802 535 867L471 867C471 844 458 827 442 827C400 827 356 869 284 869C219 869 190 819 190 760Z"  horiz-adv-x="726" vert-adv-y="1000"  />

      
      <glyph glyph-name="unid6" unicode="&#xd6;" d="M378 583C450 576 544 520 544 350C544 193 460 124 378 117L378-18C532-12 696 96 696 350C696 627 511 712 378 718ZM348 718C209 712 30 620 30 350C30 103 190-11 348-18L348 117C264 125 182 197 182 350C182 517 273 576 348 583ZM204 760L328 760L328 850L204 850ZM398 760L524 760L524 850L398 850Z"  horiz-adv-x="726" vert-adv-y="1000"  />

      
      <glyph glyph-name="unid7" unicode="&#xd7;" d="M158 578L71 492L213 351L70 209L156 124L297 266L439 124L525 210L383 351L525 493L439 578L298 436Z"  horiz-adv-x="595" vert-adv-y="1000"  />

      
      <glyph glyph-name="unid8" unicode="&#xd8;" d="M378 302L517 484C533 450 544 406 544 350C544 193 460 124 378 117L378-18C532-12 696 96 696 350C696 468 662 552 613 609L696 718L601 718L556 659C499 699 434 715 378 718L378 583C407 580 440 569 469 545L378 426ZM348 397L209 216C192 251 182 295 182 350C182 517 273 576 348 583L348 718C209 712 30 620 30 350C30 237 63 152 114 92L30-18L126-18L171 41C224 4 286-15 348-18L348 117C316 120 284 132 257 155L348 273Z"  horiz-adv-x="726" vert-adv-y="1000"  />

      
      <glyph glyph-name="unid9" unicode="&#xd9;" d="M314 116C241 121 202 164 202 261L202 700L55 700L55 215C55 45 209-13 314-18ZM344-18C556-12 613 121 613 230L613 700L466 700L466 260C466 160 430 120 344 116ZM288 750L385 750L303 840L160 840Z"  horiz-adv-x="668" vert-adv-y="1000"  />

      
      <glyph glyph-name="unida" unicode="&#xda;" d="M314 116C241 121 202 164 202 261L202 700L55 700L55 215C55 45 209-13 314-18ZM344-18C556-12 613 121 613 230L613 700L466 700L466 260C466 160 430 120 344 116ZM509 840L355 840L282 750L379 750Z"  horiz-adv-x="668" vert-adv-y="1000"  />

      
      <glyph glyph-name="unidb" unicode="&#xdb;" d="M314 116C241 121 202 164 202 261L202 700L55 700L55 215C55 45 209-13 314-18ZM344-18C556-12 613 121 613 230L613 700L466 700L466 260C466 160 430 120 344 116ZM161 750L276 750L328 790L335 790L379 750L504 750L396 840L269 840Z"  horiz-adv-x="668" vert-adv-y="1000"  />

      
      <glyph glyph-name="unidc" unicode="&#xdc;" d="M314 116C241 121 202 164 202 261L202 700L55 700L55 215C55 45 209-13 314-18ZM344-18C556-12 613 121 613 230L613 700L466 700L466 260C466 160 430 120 344 116ZM175 750L299 750L299 840L175 840ZM369 750L495 750L495 840L369 840Z"  horiz-adv-x="668" vert-adv-y="1000"  />

      
      <glyph glyph-name="unidd" unicode="&#xdd;" d="M380 282L158 700L10 700L235 282L235 0L380 0ZM323 450L397 311L607 700L461 700ZM487 840L333 840L260 750L357 750Z"  horiz-adv-x="617" vert-adv-y="1000"  />

      
      <glyph glyph-name="unide" unicode="&#xde;" d="M206 700L60 700L60 0L206 0ZM236 132L335 132C506 132 583 236 583 372C583 488 514 600 330 600L236 600L236 479L319 479C392 479 437 441 437 372C437 281 379 253 319 253L236 253Z"  horiz-adv-x="613" vert-adv-y="1000"  />

      
      <glyph glyph-name="unidf" unicode="&#xdf;" d="M268 718C130 713 60 614 60 521L60 0L195 0L195 520C195 576 232 606 268 612ZM298 612C369 605 382 552 382 525C382 458 335 433 295 433L250 433L250 325L301 325C334 325 414 308 414 216C414 140 351 99 291 99C280 99 256 101 250 104L250-13C263-15 280-18 298-18C443-18 555 58 555 217C555 321 475 376 431 386C474 399 520 455 520 528C520 640 431 712 298 718Z"  horiz-adv-x="585" vert-adv-y="1000"  />

      
      <glyph glyph-name="unie0" unicode="&#xe0;" d="M338 58C338 31 343 10 345 0L485 0C481 8 467 35 467 74L467 352C467 459 428 526 253 526C152 526 58 491 53 348L176 348C179 395 201 420 257 420C323 420 338 387 338 365ZM308 126C290 109 265 98 234 98C185 98 165 125 165 155C165 189 185 208 235 216L308 227L308 325L235 316C136 304 30 279 30 160C30 43 107-5 207-5C251-5 280 2 308 18ZM224 576L321 576L229 710L76 710Z"  horiz-adv-x="515" vert-adv-y="1000"  />

      
      <glyph glyph-name="unie1" unicode="&#xe1;" d="M338 58C338 31 343 10 345 0L485 0C481 8 467 35 467 74L467 352C467 459 428 526 253 526C152 526 58 491 53 348L176 348C179 395 201 420 257 420C323 420 338 387 338 365ZM308 126C290 109 265 98 234 98C185 98 165 125 165 155C165 189 185 208 235 216L308 227L308 325L235 316C136 304 30 279 30 160C30 43 107-5 207-5C251-5 280 2 308 18ZM454 710L300 710L207 576L304 576Z"  horiz-adv-x="521" vert-adv-y="1000"  />

      
      <glyph glyph-name="unie2" unicode="&#xe2;" d="M338 58C338 31 343 10 345 0L485 0C481 8 467 35 467 74L467 352C467 459 428 526 253 526C152 526 58 491 53 348L176 348C179 395 201 420 257 420C323 420 338 387 338 365ZM308 126C290 109 265 98 234 98C185 98 165 125 165 155C165 189 185 208 235 216L308 227L308 325L235 316C136 304 30 279 30 160C30 43 107-5 207-5C251-5 280 2 308 18ZM94 576L199 576L261 653L322 576L437 576L329 713L202 713Z"  horiz-adv-x="521" vert-adv-y="1000"  />

      
      <glyph glyph-name="unie3" unicode="&#xe3;" d="M338 58C338 31 343 10 345 0L485 0C481 8 467 35 467 74L467 352C467 459 428 526 253 526C152 526 58 491 53 348L176 348C179 395 201 420 257 420C323 420 338 387 338 365ZM308 126C290 109 265 98 234 98C185 98 165 125 165 155C165 189 185 208 235 216L308 227L308 325L235 316C136 304 30 279 30 160C30 43 107-5 207-5C251-5 280 2 308 18ZM377 697C375 677 366 660 336 660C291 660 251 700 207 700C121 700 97 637 86 580L145 580C152 605 160 618 186 618C234 618 281 580 335 580C414 580 435 649 445 697Z"  horiz-adv-x="521" vert-adv-y="1000"  />

      
      <glyph glyph-name="unie4" unicode="&#xe4;" d="M338 58C338 31 343 10 345 0L485 0C481 8 467 35 467 74L467 352C467 459 428 526 253 526C152 526 58 491 53 348L176 348C179 395 201 420 257 420C323 420 338 387 338 365ZM308 126C290 109 265 98 234 98C185 98 165 125 165 155C165 189 185 208 235 216L308 227L308 325L235 316C136 304 30 279 30 160C30 43 107-5 207-5C251-5 280 2 308 18ZM106 576L230 576L230 700L106 700ZM300 576L426 576L426 700L300 700Z"  horiz-adv-x="521" vert-adv-y="1000"  />

      
      <glyph glyph-name="unie5" unicode="&#xe5;" d="M338 58C338 31 343 10 345 0L485 0C481 8 467 35 467 74L467 352C467 459 428 526 253 526C152 526 58 491 53 348L176 348C179 395 201 420 257 420C323 420 338 387 338 365ZM308 126C290 109 265 98 234 98C185 98 165 125 165 155C165 189 185 208 235 216L308 227L308 325L235 316C136 304 30 279 30 160C30 43 107-5 207-5C251-5 280 2 308 18ZM142 674C142 607 195 554 261 554C328 554 382 607 382 674C382 741 328 793 261 793C195 793 142 741 142 674ZM203 674C203 710 225 739 261 739C298 739 321 710 321 674C321 638 298 609 261 609C225 609 203 638 203 674Z"  horiz-adv-x="521" vert-adv-y="1000"  />

      
      <glyph glyph-name="unie6" unicode="&#xe6;" d="M338 37C345 41 364 63 385 89C432 20 508-7 565-12L565 103C488 118 467 188 465 254L465 265C465 338 489 408 565 411L565 526C518 523 468 505 427 468C396 504 343 526 253 526C152 526 58 491 53 348L176 348C179 395 201 420 257 420C323 420 338 387 338 365ZM308 126C290 109 265 98 234 98C185 98 165 125 165 155C165 189 185 208 235 216L308 227L308 325L235 316C136 304 30 279 30 160C30 43 107-5 207-5C251-5 280 2 308 18ZM502 323C497 306 495 286 495 265C495 251 495 238 497 226L816 226C816 290 804 363 770 420C735 478 677 521 595 526L595 411C650 400 666 352 670 323ZM595-12C717-7 779 57 814 115L704 180C685 141 662 107 595 103Z"  horiz-adv-x="846" vert-adv-y="1000"  />

      
      <glyph glyph-name="unie7" unicode="&#xe7;" d="M303 411C353 404 381 369 396 327L502 385C466 459 403 521 303 526ZM303-12C390-7 460 40 511 127L403 190C384 147 357 109 303 103ZM273 103C196 111 166 178 166 257C166 341 197 404 273 411L273 526C115 519 30 399 30 257C30 97 122-4 273-12ZM159-215C189-228 228-237 268-237C335-237 399-208 399-137C399-96 364-56 302-56C269-56 244-59 211-76L225-114C237-109 250-107 265-107C291-107 303-123 303-139C303-164 284-172 260-172C232-172 197-161 182-154Z"  horiz-adv-x="536" vert-adv-y="1000"  />

      
      <glyph glyph-name="unie8" unicode="&#xe8;" d="M293-12C415-7 477 57 512 115L402 180C383 141 360 107 293 103ZM200 323C195 306 193 286 193 265C193 251 193 238 195 226L514 226C514 290 502 363 468 420C433 478 375 521 293 526L293 411C348 400 364 352 368 323ZM163 265C163 338 187 408 263 411L263 526C159 520 30 453 30 248C30 61 174-5 263-12L263 103C182 119 163 196 163 265ZM234 576L331 576L239 710L86 710Z"  horiz-adv-x="544" vert-adv-y="1000"  />

      
      <glyph glyph-name="unie9" unicode="&#xe9;" d="M293-12C415-7 477 57 512 115L402 180C383 141 360 107 293 103ZM200 323C195 306 193 286 193 265C193 251 193 238 195 226L514 226C514 290 502 363 468 420C433 478 375 521 293 526L293 411C348 400 364 352 368 323ZM163 265C163 338 187 408 263 411L263 526C159 520 30 453 30 248C30 61 174-5 263-12L263 103C182 119 163 196 163 265ZM467 710L313 710L220 576L317 576Z"  horiz-adv-x="544" vert-adv-y="1000"  />

      
      <glyph glyph-name="uniea" unicode="&#xea;" d="M293-12C415-7 477 57 512 115L402 180C383 141 360 107 293 103ZM200 323C195 306 193 286 193 265C193 251 193 238 195 226L514 226C514 290 502 363 468 420C433 478 375 521 293 526L293 411C348 400 364 352 368 323ZM163 265C163 338 187 408 263 411L263 526C159 520 30 453 30 248C30 61 174-5 263-12L263 103C182 119 163 196 163 265ZM100 576L205 576L267 653L328 576L443 576L335 713L208 713Z"  horiz-adv-x="544" vert-adv-y="1000"  />

      
      <glyph glyph-name="unieb" unicode="&#xeb;" d="M293-12C415-7 477 57 512 115L402 180C383 141 360 107 293 103ZM200 323C195 306 193 286 193 265C193 251 193 238 195 226L514 226C514 290 502 363 468 420C433 478 375 521 293 526L293 411C348 400 364 352 368 323ZM163 265C163 338 187 408 263 411L263 526C159 520 30 453 30 248C30 61 174-5 263-12L263 103C182 119 163 196 163 265ZM111 576L235 576L235 700L111 700ZM305 576L431 576L431 700L305 700Z"  horiz-adv-x="544" vert-adv-y="1000"  />

      
      <glyph glyph-name="uniec" unicode="&#xec;" d="M184 0L184 516L50 516L50 0ZM184 0L184 516L50 516L50 0ZM108 576L184 576L112 710L-9 710Z"  horiz-adv-x="234" vert-adv-y="1000"  />

      
      <glyph glyph-name="unied" unicode="&#xed;" d="M184 0L184 516L50 516L50 0ZM244 710L129 710L59 576L132 576Z"  horiz-adv-x="234" vert-adv-y="1000"  />

      
      <glyph glyph-name="uniee" unicode="&#xee;" d="M184 0L184 516L50 516L50 0ZM184 0L184 516L50 516L50 0ZM-24 576L61 576L112 653L161 576L254 576L167 713L64 713Z"  horiz-adv-x="234" vert-adv-y="1000"  />

      
      <glyph glyph-name="unief" unicode="&#xef;" d="M184 0L184 516L50 516L50 0ZM-21 576L86 576L86 700L-21 700ZM146 576L255 576L255 700L146 700Z"  horiz-adv-x="234" vert-adv-y="1000"  />

      
      <glyph glyph-name="unif0" unicode="&#xf0;" d="M272 103C196 114 167 178 167 255C167 335 202 404 287 404C322 404 348 392 367 373C364 401 350 451 332 482C303 492 278 493 256 493C114 493 30 390 30 250C30 110 122-4 272-12ZM302-12C430-5 538 97 538 264C538 425 487 546 394 639L494 689L443 740L337 688C303 714 253 742 222 759L155 686C181 673 199 660 230 636L150 597L203 547L285 587C383 493 406 395 406 276C406 188 376 115 302 103Z"  horiz-adv-x="568" vert-adv-y="1000"  />

      
      <glyph glyph-name="unif1" unicode="&#xf1;" d="M184 516L50 516L50 0L184 0ZM214 378C232 399 257 412 287 412C351 412 355 373 355 309L355 0L489 0L489 329C489 462 438 526 313 526C272 526 240 513 214 494ZM378 697C376 677 367 660 337 660C292 660 252 700 208 700C122 700 98 637 87 580L146 580C153 605 161 618 187 618C235 618 282 580 336 580C415 580 436 649 446 697Z"  horiz-adv-x="537" vert-adv-y="1000"  />

      
      <glyph glyph-name="unif2" unicode="&#xf2;" d="M273 103C195 111 166 178 166 257C166 341 197 404 273 411L273 526C115 519 30 399 30 257C30 106 119-4 273-12ZM303-12C429-3 541 86 541 257C541 405 451 519 303 526L303 411C365 404 405 351 405 257C405 174 375 111 303 103ZM240 576L337 576L245 710L92 710Z"  horiz-adv-x="571" vert-adv-y="1000"  />

      
      <glyph glyph-name="unif3" unicode="&#xf3;" d="M273 103C195 111 166 178 166 257C166 341 197 404 273 411L273 526C115 519 30 399 30 257C30 106 119-4 273-12ZM303-12C429-3 541 86 541 257C541 405 451 519 303 526L303 411C365 404 405 351 405 257C405 174 375 111 303 103ZM479 710L325 710L232 576L329 576Z"  horiz-adv-x="571" vert-adv-y="1000"  />

      
      <glyph glyph-name="unif4" unicode="&#xf4;" d="M273 103C195 111 166 178 166 257C166 341 197 404 273 411L273 526C115 519 30 399 30 257C30 106 119-4 273-12ZM303-12C429-3 541 86 541 257C541 405 451 519 303 526L303 411C365 404 405 351 405 257C405 174 375 111 303 103ZM114 576L219 576L281 653L342 576L457 576L349 713L222 713Z"  horiz-adv-x="571" vert-adv-y="1000"  />

      
      <glyph glyph-name="unif5" unicode="&#xf5;" d="M273 103C195 111 166 178 166 257C166 341 197 404 273 411L273 526C115 519 30 399 30 257C30 106 119-4 273-12ZM303-12C429-3 541 86 541 257C541 405 451 519 303 526L303 411C365 404 405 351 405 257C405 174 375 111 303 103ZM397 697C395 677 386 660 356 660C311 660 271 700 227 700C141 700 117 637 106 580L165 580C172 605 180 618 206 618C254 618 301 580 355 580C434 580 455 649 465 697Z"  horiz-adv-x="571" vert-adv-y="1000"  />

      
      <glyph glyph-name="unif6" unicode="&#xf6;" d="M273 103C195 111 166 178 166 257C166 341 197 404 273 411L273 526C115 519 30 399 30 257C30 106 119-4 273-12ZM303-12C429-3 541 86 541 257C541 405 451 519 303 526L303 411C365 404 405 351 405 257C405 174 375 111 303 103ZM125 576L249 576L249 700L125 700ZM319 576L445 576L445 700L319 700Z"  horiz-adv-x="571" vert-adv-y="1000"  />

      
      <glyph glyph-name="unif7" unicode="&#xf7;" d="M229 483L369 483L369 629L229 629ZM229 73L369 73L369 218L229 218ZM546 410L50 410L50 290L546 290Z"  horiz-adv-x="596" vert-adv-y="1000"  />

      
      <glyph glyph-name="unif8" unicode="&#xf8;" d="M273 285L181 170C170 195 166 225 166 257C166 341 197 404 273 411L273 526C115 519 30 399 30 257C30 179 53 113 97 65L30-18L101-18L138 30C175 5 220-9 273-12L273 103C249 105 230 113 214 126L273 200ZM303 227L392 338C400 316 405 289 405 257C405 174 375 111 303 103L303-12C429-3 541 86 541 257C541 331 518 397 477 445L541 526L473 526L437 481C401 507 355 523 303 526L303 411C325 408 345 399 361 385L303 312Z"  horiz-adv-x="571" vert-adv-y="1000"  />

      
      <glyph glyph-name="unif9" unicode="&#xf9;" d="M353 0L487 0L487 516L353 516ZM323 138C305 117 280 104 250 104C186 104 182 143 182 207L182 516L48 516L48 187C48 54 99-10 224-10C265-10 297 3 323 22ZM226 576L323 576L231 710L78 710Z"  horiz-adv-x="537" vert-adv-y="1000"  />

      
      <glyph glyph-name="unifa" unicode="&#xfa;" d="M353 0L487 0L487 516L353 516ZM323 138C305 117 280 104 250 104C186 104 182 143 182 207L182 516L48 516L48 187C48 54 99-10 224-10C265-10 297 3 323 22ZM466 710L312 710L219 576L316 576Z"  horiz-adv-x="537" vert-adv-y="1000"  />

      
      <glyph glyph-name="unifb" unicode="&#xfb;" d="M353 0L487 0L487 516L353 516ZM323 138C305 117 280 104 250 104C186 104 182 143 182 207L182 516L48 516L48 187C48 54 99-10 224-10C265-10 297 3 323 22ZM98 576L203 576L265 653L326 576L441 576L333 713L206 713Z"  horiz-adv-x="537" vert-adv-y="1000"  />

      
      <glyph glyph-name="unifc" unicode="&#xfc;" d="M353 0L487 0L487 516L353 516ZM323 138C305 117 280 104 250 104C186 104 182 143 182 207L182 516L48 516L48 187C48 54 99-10 224-10C265-10 297 3 323 22ZM109 576L233 576L233 700L109 700ZM303 576L429 576L429 700L303 700Z"  horiz-adv-x="537" vert-adv-y="1000"  />

      
      <glyph glyph-name="unifd" unicode="&#xfd;" d="M180 11C172-20 152-25 128-25L68-25L68-143L149-143C250-143 271-102 290-44L469 516L334 516ZM223 268L142 516L5 516L161 65ZM432 710L278 710L185 576L282 576Z"  horiz-adv-x="474" vert-adv-y="1000"  />

      
      <glyph glyph-name="unife" unicode="&#xfe;" d="M184 700L50 700L50-143L184-143ZM214 381C231 401 256 413 287 413C350 413 397 364 397 262C397 159 347 115 285 115C252 115 229 128 214 145L214 22C243 6 273-3 312-3C424-3 532 72 532 261C532 429 446 526 316 526C267 526 236 513 214 499Z"  horiz-adv-x="562" vert-adv-y="1000"  />

      
      <glyph glyph-name="uniff" unicode="&#xff;" d="M180 11C172-20 152-25 128-25L68-25L68-143L149-143C250-143 271-102 290-44L469 516L334 516ZM223 268L142 516L5 516L161 65ZM81 576L205 576L205 700L81 700ZM275 576L401 576L401 700L275 700Z"  horiz-adv-x="474" vert-adv-y="1000"  />

      
      <glyph glyph-name="uni0100" unicode="&#x0100;" d="M228 654L10 0L154 0L188 106L421 106L380 222L226 222L298 454ZM243 700L490 0L642 0L395 700ZM171 759L466 759L466 840L171 840Z"  horiz-adv-x="652" vert-adv-y="1000"  />

      
      <glyph glyph-name="uni0101" unicode="&#x0101;" d="M338 58C338 31 343 10 345 0L485 0C481 8 467 35 467 74L467 352C467 459 428 526 253 526C152 526 58 491 53 348L176 348C179 395 201 420 257 420C323 420 338 387 338 365ZM308 126C290 109 265 98 234 98C185 98 165 125 165 155C165 189 185 208 235 216L308 227L308 325L235 316C136 304 30 279 30 160C30 43 107-5 207-5C251-5 280 2 308 18ZM113 602L408 602L408 687L113 687Z"  horiz-adv-x="515" vert-adv-y="1000"  />

      
      <glyph glyph-name="uni0102" unicode="&#x0102;" d="M228 654L10 0L154 0L188 106L421 106L380 222L226 222L298 454ZM243 700L490 0L642 0L395 700ZM159 883C164 770 218 746 313 746C411 746 473 770 478 883L396 883C391 833 372 829 314 829C274 829 246 832 241 883Z"  horiz-adv-x="652" vert-adv-y="1000"  />

      
      <glyph glyph-name="uni0103" unicode="&#x0103;" d="M338 58C338 31 343 10 345 0L485 0C481 8 467 35 467 74L467 352C467 459 428 526 253 526C152 526 58 491 53 348L176 348C179 395 201 420 257 420C323 420 338 387 338 365ZM308 126C290 109 265 98 234 98C185 98 165 125 165 155C165 189 185 208 235 216L308 227L308 325L235 316C136 304 30 279 30 160C30 43 107-5 207-5C251-5 280 2 308 18ZM108 714C116 619 164 576 268 576C364 576 417 610 427 714L347 714C336 664 308 655 268 655C235 655 196 663 188 714Z"  horiz-adv-x="515" vert-adv-y="1000"  />

      
      <glyph glyph-name="uni0104" unicode="&#x0104;" d="M553-145C543-152 529-157 514-157C484-157 472-142 472-122C472-76 534 0 582 0L642 0L395 700L243 700L490 0C380-63 378-110 378-127C378-191 428-217 484-217C507-217 531-213 553-205ZM228 654L10 0L154 0L188 106L421 106L380 222L226 222L298 454Z"  horiz-adv-x="652" vert-adv-y="1000"  />

      
      <glyph glyph-name="uni0105" unicode="&#x0105;" d="M408-145C398-152 384-157 369-157C339-157 328-143 328-123C328-72 392 0 440 0L485 0C481 8 467 35 467 74L467 352C467 459 428 526 253 526C152 526 58 491 53 348L176 348C179 395 201 420 257 420C323 420 338 387 338 365L338 58C338 31 343 10 345 0C235-63 233-110 233-127C233-191 283-217 339-217C362-217 386-213 408-205ZM308 126C290 109 265 98 234 98C185 98 165 125 165 155C165 189 185 208 235 216L308 227L308 325L235 316C136 304 30 279 30 160C30 43 107-5 207-5C251-5 280 2 308 18Z"  horiz-adv-x="521" vert-adv-y="1000"  />

      
      <glyph glyph-name="uni0106" unicode="&#x0106;" d="M378 583C458 576 509 515 526 460L658 521C612 623 532 712 378 718ZM378-18C542-12 629 93 670 187L532 252C507 174 452 123 378 117ZM348 117C239 126 182 228 182 351C182 494 253 575 348 583L348 718C209 712 30 620 30 350C30 147 147-11 348-18ZM541 850L387 850L314 760L411 760Z"  horiz-adv-x="695" vert-adv-y="1000"  />

      
      <glyph glyph-name="uni0107" unicode="&#x0107;" d="M303 411C353 404 381 369 396 327L502 385C466 459 403 521 303 526ZM303-12C390-7 460 40 511 127L403 190C384 147 357 109 303 103ZM273 103C196 111 166 178 166 257C166 341 197 404 273 411L273 526C115 519 30 399 30 257C30 97 122-4 273-12ZM471 710L317 710L224 576L321 576Z"  horiz-adv-x="536" vert-adv-y="1000"  />

      
      <glyph glyph-name="uni0108" unicode="&#x0108;" d="M378 583C458 576 509 515 526 460L658 521C612 623 532 712 378 718ZM378-18C542-12 629 93 670 187L532 252C507 174 452 123 378 117ZM348 117C239 126 182 228 182 351C182 494 253 575 348 583L348 718C209 712 30 620 30 350C30 147 147-11 348-18ZM193 760L308 760L360 800L367 800L411 760L536 760L428 850L301 850Z"  horiz-adv-x="695" vert-adv-y="1000"  />

      
      <glyph glyph-name="uni0109" unicode="&#x0109;" d="M303 411C353 404 381 369 396 327L502 385C466 459 403 521 303 526ZM303-12C390-7 460 40 511 127L403 190C384 147 357 109 303 103ZM273 103C196 111 166 178 166 257C166 341 197 404 273 411L273 526C115 519 30 399 30 257C30 97 122-4 273-12ZM112 576L217 576L279 653L340 576L455 576L347 713L220 713Z"  horiz-adv-x="536" vert-adv-y="1000"  />

      
      <glyph glyph-name="uni010A" unicode="&#x010A;" d="M378 583C458 576 509 515 526 460L658 521C612 623 532 712 378 718ZM378-18C542-12 629 93 670 187L532 252C507 174 452 123 378 117ZM348 117C239 126 182 228 182 351C182 494 253 575 348 583L348 718C209 712 30 620 30 350C30 147 147-11 348-18ZM297 760L429 760L429 850L297 850Z"  horiz-adv-x="695" vert-adv-y="1000"  />

      
      <glyph glyph-name="uni010B" unicode="&#x010B;" d="M303 411C353 404 381 369 396 327L502 385C466 459 403 521 303 526ZM303-12C390-7 460 40 511 127L403 190C384 147 357 109 303 103ZM273 103C196 111 166 178 166 257C166 341 197 404 273 411L273 526C115 519 30 399 30 257C30 97 122-4 273-12ZM213 590L345 590L345 705L213 705Z"  horiz-adv-x="530" vert-adv-y="1000"  />

      
      <glyph glyph-name="uni010C" unicode="&#x010C;" d="M378 583C458 576 509 515 526 460L658 521C612 623 532 712 378 718ZM378-18C542-12 629 93 670 187L532 252C507 174 452 123 378 117ZM348 117C239 126 182 228 182 351C182 494 253 575 348 583L348 718C209 712 30 620 30 350C30 147 147-11 348-18ZM533 850L418 850L366 810L359 810L315 850L190 850L298 760L425 760Z"  horiz-adv-x="695" vert-adv-y="1000"  />

      
      <glyph glyph-name="uni010D" unicode="&#x010D;" d="M303 411C353 404 381 369 396 327L502 385C466 459 403 521 303 526ZM303-12C390-7 460 40 511 127L403 190C384 147 357 109 303 103ZM273 103C196 111 166 178 166 257C166 341 197 404 273 411L273 526C115 519 30 399 30 257C30 97 122-4 273-12ZM453 713L345 713L281 636L219 713L110 713L218 576L345 576Z"  horiz-adv-x="530" vert-adv-y="1000"  />

      
      <glyph glyph-name="uni010E" unicode="&#x010E;" d="M206 700L60 700L60 0L206 0ZM236 0L314 0C487 0 643 96 643 359C643 482 586 586 515 639C456 683 387 700 304 700L236 700L236 572L289 572C436 572 497 483 497 358C497 161 395 130 306 130L236 130ZM493 840L378 840L326 800L319 800L275 840L150 840L258 750L385 750Z"  horiz-adv-x="673" vert-adv-y="1000"  />

      
      <glyph glyph-name="uni010F" unicode="&#x010F;" d="M378 0L512 0L512 700L378 700ZM348 136C332 118 309 106 275 106C212 106 165 153 165 255C165 358 213 410 275 410C308 410 333 395 348 378L348 501C319 517 289 526 250 526C138 526 30 445 30 256C30 88 116-12 246-12C295-12 326-1 348 13ZM689 710L578 692C593 649 602 618 602 588C602 557 593 525 571 478L611 454C643 479 697 549 697 644C697 665 695 687 689 710Z"  horiz-adv-x="707" vert-adv-y="1000"  />

      
      <glyph glyph-name="uni0110" unicode="&#x0110;" d="M248 0L326 0C499 0 655 96 655 359C655 482 598 586 527 639C468 683 399 700 316 700L248 700L248 572L301 572C448 572 509 483 509 358C509 161 407 130 318 130L248 130ZM218 700L72 700L72 408L12 408L12 304L72 304L72 0L218 0L218 304L351 304L351 408L218 408Z"  horiz-adv-x="691" vert-adv-y="1000"  />

      
      <glyph glyph-name="uni0111" unicode="&#x0111;" d="M245 571L378 571L378 483L375 481C345 505 311 521 247 521C138 521 30 440 30 258C30 83 117-8 251-8C327-8 354 19 376 38C377 38 377 37 378 37L378 0L511 0L511 571L571 571L571 656L511 656L511 700L378 700L378 656L245 656ZM378 224C378 143 330 105 273 105C213 105 164 144 164 259C164 363 214 409 273 409C362 409 378 326 378 286Z"  horiz-adv-x="571" vert-adv-y="1000"  />

      
      <glyph glyph-name="uni0112" unicode="&#x0112;" d="M236 570L535 570L535 700L236 700ZM236 293L519 293L519 420L236 420ZM236 0L548 0L548 130L236 130ZM206 700L60 700L60 0L206 0ZM148 759L443 759L443 840L148 840Z"  horiz-adv-x="588" vert-adv-y="1000"  />

      
      <glyph glyph-name="uni0113" unicode="&#x0113;" d="M293-12C415-7 477 57 512 115L402 180C383 141 360 107 293 103ZM200 323C195 306 193 286 193 265C193 251 193 238 195 226L514 226C514 290 502 363 468 420C433 478 375 521 293 526L293 411C348 400 364 352 368 323ZM163 265C163 338 187 408 263 411L263 526C159 520 30 453 30 248C30 61 174-5 263-12L263 103C182 119 163 196 163 265ZM128 602L423 602L423 687L128 687Z"  horiz-adv-x="544" vert-adv-y="1000"  />

      
      <glyph glyph-name="uni0114" unicode="&#x0114;" d="M236 570L535 570L535 700L236 700ZM236 293L519 293L519 420L236 420ZM236 0L548 0L548 130L236 130ZM206 700L60 700L60 0L206 0ZM140 883C145 770 199 746 294 746C392 746 454 770 459 883L377 883C372 833 353 829 295 829C255 829 227 832 222 883Z"  horiz-adv-x="588" vert-adv-y="1000"  />

      
      <glyph glyph-name="uni0115" unicode="&#x0115;" d="M293-12C415-7 477 57 512 115L402 180C383 141 360 107 293 103ZM200 323C195 306 193 286 193 265C193 251 193 238 195 226L514 226C514 290 502 363 468 420C433 478 375 521 293 526L293 411C348 400 364 352 368 323ZM163 265C163 338 187 408 263 411L263 526C159 520 30 453 30 248C30 61 174-5 263-12L263 103C182 119 163 196 163 265ZM116 714C124 619 172 576 276 576C372 576 425 610 435 714L355 714C344 664 316 655 276 655C243 655 204 663 196 714Z"  horiz-adv-x="544" vert-adv-y="1000"  />

      
      <glyph glyph-name="uni0116" unicode="&#x0116;" d="M236 570L535 570L535 700L236 700ZM236 293L519 293L519 420L236 420ZM236 0L548 0L548 130L236 130ZM206 700L60 700L60 0L206 0ZM230 750L362 750L362 840L230 840Z"  horiz-adv-x="588" vert-adv-y="1000"  />

      
      <glyph glyph-name="uni0117" unicode="&#x0117;" d="M293-12C415-7 477 57 512 115L402 180C383 141 360 107 293 103ZM200 323C195 306 193 286 193 265C193 251 193 238 195 226L514 226C514 290 502 363 468 420C433 478 375 521 293 526L293 411C348 400 364 352 368 323ZM163 265C163 338 187 408 263 411L263 526C159 520 30 453 30 248C30 61 174-5 263-12L263 103C182 119 163 196 163 265ZM210 590L342 590L342 705L210 705Z"  horiz-adv-x="544" vert-adv-y="1000"  />

      
      <glyph glyph-name="uni0118" unicode="&#x0118;" d="M206 700L60 700L60 0L206 0ZM236 0L479 0C375-61 373-107 373-124C373-188 423-214 479-214C502-214 526-210 548-202L548-142C538-149 524-154 509-154C479-154 467-140 467-120C467-85 500-36 548 0L548 130L236 130ZM236 570L535 570L535 700L236 700ZM236 293L519 293L519 420L236 420Z"  horiz-adv-x="588" vert-adv-y="1000"  />

      
      <glyph glyph-name="uni0119" unicode="&#x0119;" d="M163 265C163 338 187 408 263 411L263 526C159 520 30 453 30 248C30 61 174-5 263-12L263 103C182 119 163 196 163 265ZM200 323C195 306 193 286 193 265C193 251 193 238 195 226L514 226C514 290 502 363 468 420C433 478 375 521 293 526L293 411C348 400 364 352 368 323ZM385-139C375-146 361-151 346-151C316-151 304-137 304-117C304-81 338-31 384 5C448 29 487 73 512 115L402 180C383 141 360 107 293 103L293-12C211-66 210-105 210-121C210-185 260-211 316-211C339-211 363-207 385-199Z"  horiz-adv-x="544" vert-adv-y="1000"  />

      
      <glyph glyph-name="uni011A" unicode="&#x011A;" d="M236 570L535 570L535 700L236 700ZM236 293L519 293L519 420L236 420ZM236 0L548 0L548 130L236 130ZM206 700L60 700L60 0L206 0ZM471 840L356 840L304 800L297 800L253 840L128 840L236 750L363 750Z"  horiz-adv-x="588" vert-adv-y="1000"  />

      
      <glyph glyph-name="uni011B" unicode="&#x011B;" d="M293-12C415-7 477 57 512 115L402 180C383 141 360 107 293 103ZM200 323C195 306 193 286 193 265C193 251 193 238 195 226L514 226C514 290 502 363 468 420C433 478 375 521 293 526L293 411C348 400 364 352 368 323ZM163 265C163 338 187 408 263 411L263 526C159 520 30 453 30 248C30 61 174-5 263-12L263 103C182 119 163 196 163 265ZM447 713L339 713L275 636L213 713L104 713L212 576L339 576Z"  horiz-adv-x="544" vert-adv-y="1000"  />

      
      <glyph glyph-name="uni011C" unicode="&#x011C;" d="M378 583C472 576 515 509 533 468L657 532C632 598 549 712 378 718ZM378-18C438-15 498 8 539 58L541 58L541 0L667 0L667 386L376 386L376 264L536 264C536 196 492 123 378 117ZM348 117C239 126 182 228 182 351C182 494 253 575 348 583L348 718C209 712 30 620 30 350C30 147 147-11 348-18ZM193 760L308 760L360 800L367 800L411 760L536 760L428 850L301 850Z"  horiz-adv-x="722" vert-adv-y="1000"  />

      
      <glyph glyph-name="uni011D" unicode="&#x011D;" d="M163 277C163 375 209 412 267 412C292 412 317 401 336 380L336 498C315 513 288 526 247 526C122 526 30 438 30 277C30 101 133 29 242 29C286 29 314 39 336 54L336 169C318 153 293 142 265 142C207 142 163 182 163 277ZM366 20C366-37 340-69 262-69C184-69 178-22 178-10L45-10C45-41 45-182 270-182C451-182 496-71 496 30L496 516L366 516ZM104 576L209 576L271 653L332 576L447 576L339 713L212 713Z"  horiz-adv-x="546" vert-adv-y="1000"  />

      
      <glyph glyph-name="uni011E" unicode="&#x011E;" d="M378 583C472 576 515 509 533 468L657 532C632 598 549 712 378 718ZM378-18C438-15 498 8 539 58L541 58L541 0L667 0L667 386L376 386L376 264L536 264C536 196 492 123 378 117ZM348 117C239 126 182 228 182 351C182 494 253 575 348 583L348 718C209 712 30 620 30 350C30 147 147-11 348-18ZM206 893C211 780 265 756 360 756C458 756 520 780 525 893L443 893C438 843 419 839 361 839C321 839 293 842 288 893Z"  horiz-adv-x="722" vert-adv-y="1000"  />

      
      <glyph glyph-name="uni011F" unicode="&#x011F;" d="M163 277C163 375 209 412 267 412C292 412 317 401 336 380L336 498C315 513 288 526 247 526C122 526 30 438 30 277C30 101 133 29 242 29C286 29 314 39 336 54L336 169C318 153 293 142 265 142C207 142 163 182 163 277ZM366 20C366-37 340-69 262-69C184-69 178-22 178-10L45-10C45-41 45-182 270-182C451-182 496-71 496 30L496 516L366 516ZM116 714C124 619 172 576 276 576C372 576 425 610 435 714L355 714C344 664 316 655 276 655C243 655 204 663 196 714Z"  horiz-adv-x="554" vert-adv-y="1000"  />

      
      <glyph glyph-name="uni0120" unicode="&#x0120;" d="M378 583C472 576 515 509 533 468L657 532C632 598 549 712 378 718ZM378-18C438-15 498 8 539 58L541 58L541 0L667 0L667 386L376 386L376 264L536 264C536 196 492 123 378 117ZM348 117C239 126 182 228 182 351C182 494 253 575 348 583L348 718C209 712 30 620 30 350C30 147 147-11 348-18ZM297 760L429 760L429 850L297 850Z"  horiz-adv-x="722" vert-adv-y="1000"  />

      
      <glyph glyph-name="uni0121" unicode="&#x0121;" d="M163 277C163 375 209 412 267 412C292 412 317 401 336 380L336 498C315 513 288 526 247 526C122 526 30 438 30 277C30 101 133 29 242 29C286 29 314 39 336 54L336 169C318 153 293 142 265 142C207 142 163 182 163 277ZM366 20C366-37 340-69 262-69C184-69 178-22 178-10L45-10C45-41 45-182 270-182C451-182 496-71 496 30L496 516L366 516ZM210 590L342 590L342 705L210 705Z"  horiz-adv-x="554" vert-adv-y="1000"  />

      
      <glyph glyph-name="uni0122" unicode="&#x0122;" d="M378 583C472 576 515 509 533 468L657 532C632 598 549 712 378 718ZM378-18C438-15 498 8 539 58L541 58L541 0L667 0L667 386L376 386L376 264L536 264C536 196 492 123 378 117ZM348 117C239 126 182 228 182 351C182 494 253 575 348 583L348 718C209 712 30 620 30 350C30 147 147-11 348-18ZM420-70L311-70L311-168L361-168C361-199 342-227 313-242L334-279C377-258 420-214 420-165Z"  horiz-adv-x="722" vert-adv-y="1000"  />

      
      <glyph glyph-name="uni0123" unicode="&#x0123;" d="M211 587L320 587L320 685L270 685C270 716 289 744 318 759L297 796C254 775 211 731 211 682ZM163 277C163 375 209 412 267 412C292 412 317 401 336 380L336 498C315 513 288 526 247 526C122 526 30 438 30 277C30 101 133 29 242 29C286 29 314 39 336 54L336 169C318 153 293 142 265 142C207 142 163 182 163 277ZM366 20C366-37 340-69 262-69C184-69 178-22 178-10L45-10C45-41 45-182 270-182C451-182 496-71 496 30L496 516L366 516Z"  horiz-adv-x="554" vert-adv-y="1000"  />

      
      <glyph glyph-name="uni0124" unicode="&#x0124;" d="M327 432L206 432L206 700L60 700L60 0L206 0L206 303L327 303ZM357 303L479 303L479 0L625 0L625 700L479 700L479 432L357 432ZM171 750L286 750L338 790L345 790L389 750L514 750L406 840L279 840Z"  horiz-adv-x="685" vert-adv-y="1000"  />

      
      <glyph glyph-name="uni0125" unicode="&#x0125;" d="M184 700L50 700L50 0L184 0ZM214 378C232 399 257 412 287 412C351 412 355 373 355 309L355 0L489 0L489 329C489 462 438 526 313 526C272 526 240 513 214 494ZM111 750L226 750L278 790L285 790L329 750L454 750L346 840L219 840Z"  horiz-adv-x="537" vert-adv-y="1000"  />

      
      <glyph glyph-name="uni0126" unicode="&#x0126;" d="M367 539L489 539L489 432L367 432L367 303L489 303L489 0L635 0L635 539L696 539L696 609L635 609L635 700L489 700L489 609L367 609ZM337 609L216 609L216 700L70 700L70 609L10 609L10 539L70 539L70 0L216 0L216 303L337 303L337 432L216 432L216 539L337 539Z"  horiz-adv-x="706" vert-adv-y="1000"  />

      
      <glyph glyph-name="uni0127" unicode="&#x0127;" d="M194 700L60 700L60 647L0 647L0 577L60 577L60 0L194 0L194 577L327 577L327 647L194 647ZM224 368C242 389 267 402 297 402C361 402 365 363 365 299L365 0L499 0L499 319C499 452 448 516 323 516C282 516 250 503 224 484Z"  horiz-adv-x="547" vert-adv-y="1000"  />

      
      <glyph glyph-name="uni0128" unicode="&#x0128;" d="M206 0L206 700L60 700L60 0ZM49 751C49 772 58 790 73 790C117 790 149 748 195 748C239 748 266 793 266 857L217 857C217 835 207 818 195 818C162 818 128 859 73 859C23 859 0 810 0 751Z"  horiz-adv-x="266" vert-adv-y="1000"  />

      
      <glyph glyph-name="uni0129" unicode="&#x0129;" d="M184 0L184 516L50 516L50 0ZM208 697C206 677 199 659 174 659C137 659 105 700 69 700C-2 700-21 635-30 576L18 576C24 602 30 616 51 616C91 616 129 576 173 576C238 576 255 648 264 697Z"  horiz-adv-x="234" vert-adv-y="1000"  />

      
      <glyph glyph-name="uni012A" unicode="&#x012A;" d="M206 0L206 700L60 700L60 0ZM10 759L257 759L257 840L10 840Z"  horiz-adv-x="266" vert-adv-y="1000"  />

      
      <glyph glyph-name="uni012B" unicode="&#x012B;" d="M184 0L184 516L50 516L50 0ZM0 603L234 603L234 687L0 687Z"  horiz-adv-x="234" vert-adv-y="1000"  />

      
      <glyph glyph-name="uni012C" unicode="&#x012C;" d="M206 0L206 700L60 700L60 0ZM-27 883C-22 770 32 746 127 746C225 746 287 770 292 883L210 883C205 833 186 829 128 829C88 829 60 832 55 883Z"  horiz-adv-x="266" vert-adv-y="1000"  />

      
      <glyph glyph-name="uni012D" unicode="&#x012D;" d="M184 0L184 516L50 516L50 0ZM-41 714C-33 619 15 576 119 576C215 576 268 610 278 714L198 714C187 664 159 655 119 655C86 655 47 663 39 714Z"  horiz-adv-x="234" vert-adv-y="1000"  />

      
      <glyph glyph-name="uni012E" unicode="&#x012E;" d="M196-142C186-149 172-154 157-154C127-154 115-140 115-120C115-72 157-23 206 0L206 700L60 700L60 0L127 0C23-61 21-107 21-124C21-188 71-214 127-214C150-214 174-210 196-202Z"  horiz-adv-x="266" vert-adv-y="1000"  />

      
      <glyph glyph-name="uni012F" unicode="&#x012F;" d="M184-142C174-149 160-154 145-154C115-154 103-140 103-120C103-85 138-30 184 0L184 516L50 516L50 0L115 0C11-61 9-107 9-124C9-188 59-214 115-214C138-214 162-210 184-202ZM184 576L184 700L50 700L50 576Z"  horiz-adv-x="234" vert-adv-y="1000"  />

      
      <glyph glyph-name="uni0130" unicode="&#x0130;" d="M206 0L206 700L60 700L60 0ZM64 750L196 750L196 840L64 840Z"  horiz-adv-x="266" vert-adv-y="1000"  />

      
      <glyph glyph-name="uni0131" unicode="&#x0131;" d="M184 0L184 516L50 516L50 0Z"  horiz-adv-x="234" vert-adv-y="1000"  />

      
      <glyph glyph-name="uni0134" unicode="&#x0134;" d="M111 0C257 0 257 95 257 213L257 700L111 700L111 193C111 149 105 130 62 130L20 130L20 0ZM13 750L128 750L180 790L187 790L231 750L356 750L248 840L121 840Z"  horiz-adv-x="312" vert-adv-y="1000"  />

      
      <glyph glyph-name="uni0135" unicode="&#x0135;" d="M194 516L60 516L60 51C60-2 51-22 23-22L-27-22L-27-137C-15-138 15-141 49-141C126-141 194-120 194-5ZM-43 576L62 576L124 653L185 576L300 576L192 713L65 713Z"  horiz-adv-x="254" vert-adv-y="1000"  />

      
      <glyph glyph-name="uni0136" unicode="&#x0136;" d="M206 700L60 700L60 0L206 0ZM650 700L490 700L236 427L236 253ZM340 321L507 0L667 0L438 427ZM393-60L284-60L284-158L334-158C334-189 315-217 286-232L307-269C350-248 393-204 393-155Z"  horiz-adv-x="682" vert-adv-y="1000"  />

      
      <glyph glyph-name="uni0137" unicode="&#x0137;" d="M184 700L50 700L50 0L184 0ZM273 218L385 0L538 0L369 318ZM517 516L364 516L214 356L214 200ZM326-60L217-60L217-158L267-158C267-189 248-217 219-232L240-269C283-248 326-204 326-155Z"  horiz-adv-x="553" vert-adv-y="1000"  />

      
      <glyph glyph-name="uni0138" unicode="&#x0138;" d="M184 516L50 516L50 0L184 0ZM214 325L214 226L383 0L536 0L323 280L520 516L367 516Z"  horiz-adv-x="551" vert-adv-y="1000"  />

      
      <glyph glyph-name="uni0139" unicode="&#x0139;" d="M206 700L60 700L60 0L206 0ZM236 0L506 0L506 130L236 130ZM311 840L157 840L84 750L181 750Z"  horiz-adv-x="526" vert-adv-y="1000"  />

      
      <glyph glyph-name="uni013A" unicode="&#x013A;" d="M184 0L184 700L50 700L50 0ZM287 840L133 840L60 750L157 750Z"  horiz-adv-x="234" vert-adv-y="1000"  />

      
      <glyph glyph-name="uni013B" unicode="&#x013B;" d="M206 700L60 700L60 0L206 0ZM236 0L506 0L506 130L236 130ZM338-60L229-60L229-158L279-158C279-189 260-217 231-232L252-269C295-248 338-204 338-155Z"  horiz-adv-x="526" vert-adv-y="1000"  />

      
      <glyph glyph-name="uni013C" unicode="&#x013C;" d="M184 0L184 700L50 700L50 0ZM173-60L64-60L64-158L114-158C114-189 95-217 66-232L87-269C130-248 173-204 173-155Z"  horiz-adv-x="234" vert-adv-y="1000"  />

      
      <glyph glyph-name="uni013D" unicode="&#x013D;" d="M206 700L60 700L60 0L206 0ZM236 0L506 0L506 130L236 130ZM428 710L317 692C332 649 341 618 341 588C341 557 332 525 310 478L350 454C382 479 436 549 436 644C436 665 434 687 428 710Z"  horiz-adv-x="526" vert-adv-y="1000"  />

      
      <glyph glyph-name="uni013E" unicode="&#x013E;" d="M184 0L184 700L50 700L50 0ZM358 710L247 692C262 649 271 618 271 588C271 557 262 525 240 478L280 454C312 479 366 549 366 644C366 665 364 687 358 710Z"  horiz-adv-x="376" vert-adv-y="1000"  />

      
      <glyph glyph-name="uni013F" unicode="&#x013F;" d="M206 700L60 700L60 0L206 0ZM236 0L506 0L506 130L236 130ZM287 320L419 320L419 410L287 410Z"  horiz-adv-x="526" vert-adv-y="1000"  />

      
      <glyph glyph-name="uni0140" unicode="&#x0140;" d="M184 0L184 700L50 700L50 0ZM246 302L378 302L378 417L246 417Z"  horiz-adv-x="388" vert-adv-y="1000"  />

      
      <glyph glyph-name="uni0141" unicode="&#x0141;" d="M349 435L349 548L218 456L218 700L72 700L72 363L5 316L5 203L72 250L72 0L218 0L218 343ZM248 0L518 0L518 130L248 130Z"  horiz-adv-x="538" vert-adv-y="1000"  />

      
      <glyph glyph-name="uni0142" unicode="&#x0142;" d="M5 213L68 260L68 0L202 0L202 344L275 399L275 507L202 452L202 700L68 700L68 368L5 322Z"  horiz-adv-x="280" vert-adv-y="1000"  />

      
      <glyph glyph-name="uni0143" unicode="&#x0143;" d="M611 116L611 700L472 700L472 331ZM60 584L60 0L199 0L199 368ZM472 0L611 0L611 60L198 700L60 700L60 640ZM502 840L348 840L275 750L372 750Z"  horiz-adv-x="671" vert-adv-y="1000"  />

      
      <glyph glyph-name="uni0144" unicode="&#x0144;" d="M184 516L50 516L50 0L184 0ZM214 378C232 399 257 412 287 412C351 412 355 373 355 309L355 0L489 0L489 329C489 462 438 526 313 526C272 526 240 513 214 494ZM468 710L314 710L221 576L318 576Z"  horiz-adv-x="537" vert-adv-y="1000"  />

      
      <glyph glyph-name="uni0145" unicode="&#x0145;" d="M611 116L611 700L472 700L472 331ZM60 584L60 0L199 0L199 368ZM472 0L611 0L611 60L198 700L60 700L60 640ZM400-60L291-60L291-158L341-158C341-189 322-217 293-232L314-269C357-248 400-204 400-155Z"  horiz-adv-x="671" vert-adv-y="1000"  />

      
      <glyph glyph-name="uni0146" unicode="&#x0146;" d="M184 516L50 516L50 0L184 0ZM214 378C232 399 257 412 287 412C351 412 355 373 355 309L355 0L489 0L489 329C489 462 438 526 313 526C272 526 240 513 214 494ZM323-60L214-60L214-158L264-158C264-189 245-217 216-232L237-269C280-248 323-204 323-155Z"  horiz-adv-x="537" vert-adv-y="1000"  />

      
      <glyph glyph-name="uni0147" unicode="&#x0147;" d="M611 116L611 700L472 700L472 331ZM60 584L60 0L199 0L199 368ZM472 0L611 0L611 60L198 700L60 700L60 640ZM509 840L394 840L342 800L335 800L291 840L166 840L274 750L401 750Z"  horiz-adv-x="671" vert-adv-y="1000"  />

      
      <glyph glyph-name="uni0148" unicode="&#x0148;" d="M184 516L50 516L50 0L184 0ZM214 378C232 399 257 412 287 412C351 412 355 373 355 309L355 0L489 0L489 329C489 462 438 526 313 526C272 526 240 513 214 494ZM439 713L331 713L267 636L205 713L96 713L204 576L331 576Z"  horiz-adv-x="537" vert-adv-y="1000"  />

      
      <glyph glyph-name="uni014A" unicode="&#x014A;" d="M611 60L198 700L60 700L60 640L471 0C467-44 429-46 401-46L338-46L338-170L420-170C579-170 611-113 611-7ZM611 116L611 700L472 700L472 331ZM60 584L60 0L199 0L199 368Z"  horiz-adv-x="671" vert-adv-y="1000"  />

      
      <glyph glyph-name="uni014B" unicode="&#x014B;" d="M184 516L50 516L50 0L184 0ZM355 20C355-27 340-37 316-37L265-37L265-156L362-156C451-156 489-112 489-26L489 329C489 462 438 526 313 526C272 526 240 513 214 494L214 378C232 399 257 412 287 412C351 412 355 373 355 309Z"  horiz-adv-x="537" vert-adv-y="1000"  />

      
      <glyph glyph-name="uni014C" unicode="&#x014C;" d="M378 583C450 576 544 520 544 350C544 193 460 124 378 117L378-18C532-12 696 96 696 350C696 627 511 712 378 718ZM348 718C209 712 30 620 30 350C30 103 190-11 348-18L348 117C264 125 182 197 182 350C182 517 273 576 348 583ZM216 769L511 769L511 850L216 850Z"  horiz-adv-x="726" vert-adv-y="1000"  />

      
      <glyph glyph-name="uni014D" unicode="&#x014D;" d="M273 103C195 111 166 178 166 257C166 341 197 404 273 411L273 526C115 519 30 399 30 257C30 106 119-4 273-12ZM303-12C429-3 541 86 541 257C541 405 451 519 303 526L303 411C365 404 405 351 405 257C405 174 375 111 303 103ZM138 602L433 602L433 687L138 687Z"  horiz-adv-x="571" vert-adv-y="1000"  />

      
      <glyph glyph-name="uni014E" unicode="&#x014E;" d="M378 583C450 576 544 520 544 350C544 193 460 124 378 117L378-18C532-12 696 96 696 350C696 627 511 712 378 718ZM348 718C209 712 30 620 30 350C30 103 190-11 348-18L348 117C264 125 182 197 182 350C182 517 273 576 348 583ZM204 893C209 780 263 756 358 756C456 756 518 780 523 893L441 893C436 843 417 839 359 839C319 839 291 842 286 893Z"  horiz-adv-x="726" vert-adv-y="1000"  />

      
      <glyph glyph-name="uni014F" unicode="&#x014F;" d="M273 103C195 111 166 178 166 257C166 341 197 404 273 411L273 526C115 519 30 399 30 257C30 106 119-4 273-12ZM303-12C429-3 541 86 541 257C541 405 451 519 303 526L303 411C365 404 405 351 405 257C405 174 375 111 303 103ZM126 714C134 619 182 576 286 576C382 576 435 610 445 714L365 714C354 664 326 655 286 655C253 655 214 663 206 714Z"  horiz-adv-x="571" vert-adv-y="1000"  />

      
      <glyph glyph-name="uni0150" unicode="&#x0150;" d="M378 583C450 576 544 520 544 350C544 193 460 124 378 117L378-18C532-12 696 96 696 350C696 627 511 712 378 718ZM348 718C209 712 30 620 30 350C30 103 190-11 348-18L348 117C264 125 182 197 182 350C182 517 273 576 348 583ZM449 850L295 850L219 760L315 760ZM652 850L498 850L421 760L518 760Z"  horiz-adv-x="726" vert-adv-y="1000"  />

      
      <glyph glyph-name="uni0151" unicode="&#x0151;" d="M273 103C195 111 166 178 166 257C166 341 197 404 273 411L273 526C115 519 30 399 30 257C30 106 119-4 273-12ZM303-12C429-3 541 86 541 257C541 405 451 519 303 526L303 411C365 404 405 351 405 257C405 174 375 111 303 103ZM368 710L214 710L128 576L224 576ZM571 710L417 710L330 576L427 576Z"  horiz-adv-x="571" vert-adv-y="1000"  />

      
      <glyph glyph-name="uni0152" unicode="&#x0152;" d="M613 700L534 700C499 700 440 714 378 718L378 583C406 582 438 579 467 559L467 135C440 121 409 119 378 117L378-18C417-17 501 0 535 0L613 0ZM348 718C209 712 30 620 30 350C30 103 190-11 348-18L348 117C264 125 182 197 182 350C182 517 273 576 348 583ZM643 0L955 0L955 130L643 130ZM643 570L942 570L942 700L643 700ZM643 293L926 293L926 420L643 420Z"  horiz-adv-x="995" vert-adv-y="1000"  />

      
      <glyph glyph-name="uni0153" unicode="&#x0153;" d="M303-12C368-7 428 19 471 67C521 15 588-8 638-12L638 103C557 119 538 196 538 265C538 338 562 408 638 411L638 526C581 522 517 501 471 449C431 494 374 522 303 526L303 411C365 404 405 351 405 257C405 174 375 111 303 103ZM273 103C195 111 166 178 166 257C166 341 197 404 273 411L273 526C115 519 30 399 30 257C30 106 119-4 273-12ZM575 323C570 306 568 286 568 265C568 251 568 238 570 226L889 226C889 290 877 363 843 420C808 478 750 521 668 526L668 411C723 400 739 352 743 323ZM668-12C790-7 852 57 887 115L777 180C758 141 735 107 668 103Z"  horiz-adv-x="919" vert-adv-y="1000"  />

      
      <glyph glyph-name="uni0154" unicode="&#x0154;" d="M236 371L236 252L322 252L461 0L622 0L470 275C539 306 592 365 592 480C592 621 500 700 355 700L236 700L236 577L351 577C403 577 446 545 446 477C446 401 404 371 351 371ZM206 700L60 700L60 0L206 0ZM467 840L313 840L240 750L337 750Z"  horiz-adv-x="642" vert-adv-y="1000"  />

      
      <glyph glyph-name="uni0155" unicode="&#x0155;" d="M184 516L50 516L50 0L184 0ZM214 357C234 375 264 385 308 385L349 385L349 521L331 521C282 521 241 506 214 480ZM366 710L212 710L119 576L216 576Z"  horiz-adv-x="374" vert-adv-y="1000"  />

      
      <glyph glyph-name="uni0156" unicode="&#x0156;" d="M236 371L236 252L322 252L461 0L622 0L470 275C539 306 592 365 592 480C592 621 500 700 355 700L236 700L236 577L351 577C403 577 446 545 446 477C446 401 404 371 351 371ZM206 700L60 700L60 0L206 0ZM383-60L274-60L274-158L324-158C324-189 305-217 276-232L297-269C340-248 383-204 383-155Z"  horiz-adv-x="642" vert-adv-y="1000"  />

      
      <glyph glyph-name="uni0157" unicode="&#x0157;" d="M184 516L50 516L50 0L184 0ZM214 357C234 375 264 385 308 385L349 385L349 521L331 521C282 521 241 506 214 480ZM171-60L62-60L62-158L112-158C112-189 93-217 64-232L85-269C128-248 171-204 171-155Z"  horiz-adv-x="374" vert-adv-y="1000"  />

      
      <glyph glyph-name="uni0158" unicode="&#x0158;" d="M236 371L236 252L322 252L461 0L622 0L470 275C539 306 592 365 592 480C592 621 500 700 355 700L236 700L236 577L351 577C403 577 446 545 446 477C446 401 404 371 351 371ZM206 700L60 700L60 0L206 0ZM484 840L369 840L317 800L310 800L266 840L141 840L249 750L376 750Z"  horiz-adv-x="642" vert-adv-y="1000"  />

      
      <glyph glyph-name="uni0159" unicode="&#x0159;" d="M184 516L50 516L50 0L184 0ZM214 357C234 375 264 385 308 385L349 385L349 521L331 521C282 521 241 506 214 480ZM371 713L263 713L199 636L137 713L28 713L136 576L263 576Z"  horiz-adv-x="374" vert-adv-y="1000"  />

      
      <glyph glyph-name="uni015A" unicode="&#x015A;" d="M349 591C440 581 479 523 497 494L620 569C583 633 500 710 349 718ZM319 114C219 125 173 192 151 226L25 150C79 55 183-13 319-18ZM349-18C543-14 633 95 633 213C633 340 546 403 426 421L301 440C268 445 205 457 205 516C205 554 242 591 319 592L319 718C198 716 55 655 55 493C55 367 161 315 241 302L381 280C432 272 481 252 481 197C481 136 403 114 349 114ZM497 850L343 850L270 760L367 760Z"  horiz-adv-x="663" vert-adv-y="1000"  />

      
      <glyph glyph-name="uni015B" unicode="&#x015B;" d="M276-13C406-7 490 57 490 170C490 239 445 298 339 316L268 328C223 335 186 344 186 371C186 397 207 413 246 416L246 526C136 520 51 463 51 361C51 279 95 233 193 213C288 193 354 191 354 153C354 123 323 103 276 100ZM246 100C196 105 148 131 118 164L20 82C83 16 156-11 246-13ZM276 416C335 411 374 377 393 356L476 438C457 458 397 522 276 526ZM456 710L302 710L209 576L306 576Z"  horiz-adv-x="520" vert-adv-y="1000"  />

      
      <glyph glyph-name="uni015C" unicode="&#x015C;" d="M349 591C440 581 479 523 497 494L620 569C583 633 500 710 349 718ZM319 114C219 125 173 192 151 226L25 150C79 55 183-13 319-18ZM349-18C543-14 633 95 633 213C633 340 546 403 426 421L301 440C268 445 205 457 205 516C205 554 242 591 319 592L319 718C198 716 55 655 55 493C55 367 161 315 241 302L381 280C432 272 481 252 481 197C481 136 403 114 349 114ZM161 760L276 760L328 800L335 800L379 760L504 760L396 850L269 850Z"  horiz-adv-x="663" vert-adv-y="1000"  />

      
      <glyph glyph-name="uni015D" unicode="&#x015D;" d="M276-13C406-7 490 57 490 170C490 239 445 298 339 316L268 328C223 335 186 344 186 371C186 397 207 413 246 416L246 526C136 520 51 463 51 361C51 279 95 233 193 213C288 193 354 191 354 153C354 123 323 103 276 100ZM246 100C196 105 148 131 118 164L20 82C83 16 156-11 246-13ZM276 416C335 411 374 377 393 356L476 438C457 458 397 522 276 526ZM89 576L194 576L256 653L317 576L432 576L324 713L197 713Z"  horiz-adv-x="520" vert-adv-y="1000"  />

      
      <glyph glyph-name="uni015E" unicode="&#x015E;" d="M349 591C440 581 479 523 497 494L620 569C583 633 500 710 349 718ZM319 114C219 125 173 192 151 226L25 150C79 55 183-13 319-18ZM349-18C543-14 633 95 633 213C633 340 546 403 426 421L301 440C268 445 205 457 205 516C205 554 242 591 319 592L319 718C198 716 55 655 55 493C55 367 161 315 241 302L381 280C432 272 481 252 481 197C481 136 403 114 349 114ZM211-215C241-228 280-237 320-237C387-237 451-208 451-137C451-96 416-56 354-56C321-56 296-59 263-76L277-114C289-109 302-107 317-107C343-107 355-123 355-139C355-164 336-172 312-172C284-172 249-161 234-154Z"  horiz-adv-x="663" vert-adv-y="1000"  />

      
      <glyph glyph-name="uni015F" unicode="&#x015F;" d="M276-13C406-7 490 57 490 170C490 239 445 298 339 316L268 328C223 335 186 344 186 371C186 397 207 413 246 416L246 526C136 520 51 463 51 361C51 279 95 233 193 213C288 193 354 191 354 153C354 123 323 103 276 100ZM246 100C196 105 148 131 118 164L20 82C83 16 156-11 246-13ZM276 416C335 411 374 377 393 356L476 438C457 458 397 522 276 526ZM137-215C167-228 206-237 246-237C313-237 377-208 377-137C377-96 342-56 280-56C247-56 222-59 189-76L203-114C215-109 228-107 243-107C269-107 281-123 281-139C281-164 262-172 238-172C210-172 175-161 160-154Z"  horiz-adv-x="520" vert-adv-y="1000"  />

      
      <glyph glyph-name="uni0160" unicode="&#x0160;" d="M349 591C440 581 479 523 497 494L620 569C583 633 500 710 349 718ZM319 114C219 125 173 192 151 226L25 150C79 55 183-13 319-18ZM349-18C543-14 633 95 633 213C633 340 546 403 426 421L301 440C268 445 205 457 205 516C205 554 242 591 319 592L319 718C198 716 55 655 55 493C55 367 161 315 241 302L381 280C432 272 481 252 481 197C481 136 403 114 349 114ZM503 850L388 850L336 810L329 810L285 850L160 850L268 760L395 760Z"  horiz-adv-x="663" vert-adv-y="1000"  />

      
      <glyph glyph-name="uni0161" unicode="&#x0161;" d="M276-13C406-7 490 57 490 170C490 239 445 298 339 316L268 328C223 335 186 344 186 371C186 397 207 413 246 416L246 526C136 520 51 463 51 361C51 279 95 233 193 213C288 193 354 191 354 153C354 123 323 103 276 100ZM246 100C196 105 148 131 118 164L20 82C83 16 156-11 246-13ZM276 416C335 411 374 377 393 356L476 438C457 458 397 522 276 526ZM426 713L318 713L254 636L192 713L83 713L191 576L318 576Z"  horiz-adv-x="520" vert-adv-y="1000"  />

      
      <glyph glyph-name="uni0162" unicode="&#x0162;" d="M392 570L558 570L558 700L392 700ZM186 570L186 700L20 700L20 570ZM216 700L216 0L362 0L362 700ZM162-205C192-218 231-227 271-227C338-227 402-198 402-127C402-86 367-46 305-46C272-46 247-49 214-66L228-104C240-99 253-97 268-97C294-97 306-113 306-129C306-154 287-162 263-162C235-162 200-151 185-144Z"  horiz-adv-x="578" vert-adv-y="1000"  />

      
      <glyph glyph-name="uni0163" unicode="&#x0163;" d="M342 404L342 516L236 516L236 700L101 700L101 516L15 516L15 404L101 404L101 138C101 44 129-5 257-5C265-5 322-5 342-2L342 120C323 119 313 119 297 119C246 119 236 135 236 185L236 404ZM97-205C127-218 166-227 206-227C273-227 337-198 337-127C337-86 302-46 240-46C207-46 182-49 149-66L163-104C175-99 188-97 203-97C229-97 241-113 241-129C241-154 222-162 198-162C170-162 135-151 120-144Z"  horiz-adv-x="370" vert-adv-y="1000"  />

      
      <glyph glyph-name="uni0164" unicode="&#x0164;" d="M392 570L558 570L558 700L392 700ZM186 570L186 700L20 700L20 570ZM216 700L216 0L362 0L362 700ZM458 840L343 840L291 800L284 800L240 840L115 840L223 750L350 750Z"  horiz-adv-x="578" vert-adv-y="1000"  />

      
      <glyph glyph-name="uni0165" unicode="&#x0165;" d="M342 404L342 516L236 516L236 700L101 700L101 516L15 516L15 404L101 404L101 138C101 44 129-5 257-5C265-5 322-5 342-2L342 120C323 119 313 119 297 119C246 119 236 135 236 185L236 404ZM516 710L405 692C420 649 429 618 429 588C429 557 420 525 398 478L438 454C470 479 524 549 524 644C524 665 522 687 516 710Z"  horiz-adv-x="543" vert-adv-y="1000"  />

      
      <glyph glyph-name="uni0166" unicode="&#x0166;" d="M216 700L216 392L80 392L80 307L216 307L216 0L362 0L362 307L499 307L499 392L362 392L362 700ZM392 570L558 570L558 700L392 700ZM186 570L186 700L20 700L20 570Z"  horiz-adv-x="579" vert-adv-y="1000"  />

      
      <glyph glyph-name="uni0167" unicode="&#x0167;" d="M342 404L342 516L236 516L236 700L101 700L101 516L15 516L15 404L101 404L101 340L25 340L25 246L101 246L101 138C101 44 129-4 257-4C283-4 309-4 345-2L345 120C345 120 324 119 297 119C246 119 236 135 236 185L236 246L332 246L332 340L236 340L236 404Z"  horiz-adv-x="370" vert-adv-y="1000"  />

      
      <glyph glyph-name="uni0168" unicode="&#x0168;" d="M314 116C241 121 202 164 202 261L202 700L55 700L55 215C55 45 209-13 314-18ZM344-18C556-12 613 121 613 230L613 700L466 700L466 260C466 160 430 120 344 116ZM223 750C223 771 235 789 254 789C312 789 353 747 412 747C470 747 505 792 505 857L441 857C441 834 428 817 412 817C370 817 326 859 254 859C189 859 160 809 160 750Z"  horiz-adv-x="668" vert-adv-y="1000"  />

      
      <glyph glyph-name="uni0169" unicode="&#x0169;" d="M353 0L487 0L487 516L353 516ZM323 138C305 117 280 104 250 104C186 104 182 143 182 207L182 516L48 516L48 187C48 54 99-10 224-10C265-10 297 3 323 22ZM381 697C379 677 370 660 340 660C295 660 255 700 211 700C125 700 101 637 90 580L149 580C156 605 164 618 190 618C238 618 285 580 339 580C418 580 439 649 449 697Z"  horiz-adv-x="537" vert-adv-y="1000"  />

      
      <glyph glyph-name="uni016A" unicode="&#x016A;" d="M314 116C241 121 202 164 202 261L202 700L55 700L55 215C55 45 209-13 314-18ZM344-18C556-12 613 121 613 230L613 700L466 700L466 260C466 160 430 120 344 116ZM186 759L481 759L481 840L186 840Z"  horiz-adv-x="668" vert-adv-y="1000"  />

      
      <glyph glyph-name="uni016B" unicode="&#x016B;" d="M353 0L487 0L487 516L353 516ZM323 138C305 117 280 104 250 104C186 104 182 143 182 207L182 516L48 516L48 187C48 54 99-10 224-10C265-10 297 3 323 22ZM122 602L417 602L417 687L122 687Z"  horiz-adv-x="537" vert-adv-y="1000"  />

      
      <glyph glyph-name="uni016C" unicode="&#x016C;" d="M314 116C241 121 202 164 202 261L202 700L55 700L55 215C55 45 209-13 314-18ZM344-18C556-12 613 121 613 230L613 700L466 700L466 260C466 160 430 120 344 116ZM170 883C175 770 229 746 324 746C422 746 484 770 489 883L407 883C402 833 383 829 325 829C285 829 257 832 252 883Z"  horiz-adv-x="668" vert-adv-y="1000"  />

      
      <glyph glyph-name="uni016D" unicode="&#x016D;" d="M353 0L487 0L487 516L353 516ZM323 138C305 117 280 104 250 104C186 104 182 143 182 207L182 516L48 516L48 187C48 54 99-10 224-10C265-10 297 3 323 22ZM110 714C118 619 166 576 270 576C366 576 419 610 429 714L349 714C338 664 310 655 270 655C237 655 198 663 190 714Z"  horiz-adv-x="537" vert-adv-y="1000"  />

      
      <glyph glyph-name="uni016E" unicode="&#x016E;" d="M314 116C241 121 202 164 202 261L202 700L55 700L55 215C55 45 209-13 314-18ZM344-18C556-12 613 121 613 230L613 700L466 700L466 260C466 160 430 120 344 116ZM235 813C235 759 277 717 330 717C384 717 427 759 427 813C427 866 384 908 330 908C277 908 235 866 235 813ZM293 813C293 836 307 855 330 855C354 855 369 836 369 813C369 790 354 771 330 771C307 771 293 790 293 813Z"  horiz-adv-x="668" vert-adv-y="1000"  />

      
      <glyph glyph-name="uni016F" unicode="&#x016F;" d="M353 0L487 0L487 516L353 516ZM323 138C305 117 280 104 250 104C186 104 182 143 182 207L182 516L48 516L48 187C48 54 99-10 224-10C265-10 297 3 323 22ZM150 674C150 607 203 554 269 554C336 554 390 607 390 674C390 741 336 793 269 793C203 793 150 741 150 674ZM211 674C211 710 233 739 269 739C306 739 329 710 329 674C329 638 306 609 269 609C233 609 211 638 211 674Z"  horiz-adv-x="537" vert-adv-y="1000"  />

      
      <glyph glyph-name="uni0170" unicode="&#x0170;" d="M314 116C241 121 202 164 202 261L202 700L55 700L55 215C55 45 209-13 314-18ZM344-18C556-12 613 121 613 230L613 700L466 700L466 260C466 160 430 120 344 116ZM413 840L259 840L183 750L279 750ZM616 840L462 840L385 750L482 750Z"  horiz-adv-x="671" vert-adv-y="1000"  />

      
      <glyph glyph-name="uni0171" unicode="&#x0171;" d="M353 0L487 0L487 516L353 516ZM323 138C305 117 280 104 250 104C186 104 182 143 182 207L182 516L48 516L48 187C48 54 99-10 224-10C265-10 297 3 323 22ZM358 710L204 710L118 576L214 576ZM561 710L407 710L320 576L417 576Z"  horiz-adv-x="537" vert-adv-y="1000"  />

      
      <glyph glyph-name="uni0172" unicode="&#x0172;" d="M344-18C267-70 266-109 266-124C266-188 316-214 372-214C395-214 419-210 441-202L441-142C431-149 417-154 402-154C372-154 360-140 360-120C360-87 389-42 428-7C572 27 613 137 613 230L613 700L466 700L466 260C466 160 430 120 344 116ZM314 116C241 121 202 164 202 261L202 700L55 700L55 215C55 45 209-13 314-18Z"  horiz-adv-x="668" vert-adv-y="1000"  />

      
      <glyph glyph-name="uni0173" unicode="&#x0173;" d="M353 0C249-61 247-107 247-124C247-188 297-214 353-214C376-214 400-210 422-202L422-142C412-149 398-154 383-154C353-154 341-140 341-120C341-85 391 0 448 0L487 0L487 516L353 516ZM323 138C305 117 280 104 250 104C186 104 182 143 182 207L182 516L48 516L48 187C48 54 99-10 224-10C265-10 297 3 323 22Z"  horiz-adv-x="537" vert-adv-y="1000"  />

      
      <glyph glyph-name="uni0174" unicode="&#x0174;" d="M338 0L163 700L15 700L183 0ZM285 334L352 68L427 447L545 0L690 0L503 700L359 700ZM630 341L704 63L848 700L703 700ZM262 750L377 750L429 790L436 790L480 750L605 750L497 840L370 840Z"  horiz-adv-x="863" vert-adv-y="1000"  />

      
      <glyph glyph-name="uni0175" unicode="&#x0175;" d="M306 55L372 283L454 0L583 0L440 516L322 516L247 260ZM142 516L5 516L161 0L290 0ZM599 54L739 516L602 516L536 283ZM211 576L316 576L378 653L439 576L554 576L446 713L319 713Z"  horiz-adv-x="744" vert-adv-y="1000"  />

      
      <glyph glyph-name="uni0176" unicode="&#x0176;" d="M380 282L158 700L10 700L235 282L235 0L380 0ZM323 450L397 311L607 700L461 700ZM143 750L258 750L310 790L317 790L361 750L486 750L378 840L251 840Z"  horiz-adv-x="617" vert-adv-y="1000"  />

      
      </font>
</defs>
</svg>
