<?xml version="1.0" standalone="no"?>
  <!DOCTYPE svg PUBLIC "-//W3C//DTD SVG 1.1//EN" "http://www.w3.org/Graphics/SVG/1.1/DTD/svg11.dtd" >
  <svg>
  <metadata>
  Created by font-carrier
  </metadata>
  <defs>
  <font id="Tele2TextSansSHORT-Regular" horiz-adv-x="990" vert-adv-y="990" >
    <font-face
      
      font-family="Tele2 TextSans SHORT"
      
      font-weight="400"
      
      font-stretch="normal"
      
      units-per-em="1000"
      
      ascent="1117"
      
      descent="-287"
      
    />
      <missing-glyph />

      

      
      <glyph glyph-name="uni41" unicode="&#x41;" d="M184 274L402 274L296 603L287 603L184 274M431 187L157 187L99 0L10 0L250 750L344 750L594 0L491 0L431 187Z"  horiz-adv-x="604" vert-adv-y="1000"  />

      
      <glyph glyph-name="uni42" unicode="&#x42;" d="M79 0L79 750L284 750Q348 750 394 736.50Q440 723 470 698.50Q500 674 514 639.50Q528 605 528 563Q528 498 495 458.50Q462 419 404 399L404 391Q484 373 520 324.50Q556 276 556 210Q556 166 542.50 128Q529 90 499 61.50Q469 33 419.50 16.50Q370 0 298 0L79 0M277 426Q346 426 384 460Q422 494 422 556Q422 613 384 639Q346 665 277 665L180 665L180 426L277 426M289 85Q364 85 407 114.50Q450 144 450 211Q450 247 437.50 272.50Q425 298 402.50 313.50Q380 329 349.50 336.50Q319 344 282 344L180 344L180 85L289 85Z"  horiz-adv-x="589" vert-adv-y="1000"  />

      
      <glyph glyph-name="uni43" unicode="&#x43;" d="M366-10Q282-10 221 17Q160 44 120.50 94Q81 144 61.50 215Q42 286 42 375Q42 463 64 534.50Q86 606 128 656Q170 706 230.50 733Q291 760 368 760Q386 760 406 758.50Q426 757 445.50 754Q465 751 482.50 746.50Q500 742 513 736L513 644Q463 672 375 672Q328 672 286.50 653.50Q245 635 214 598Q183 561 165.50 505.50Q148 450 148 375Q148 222 208.50 150Q269 78 376 78Q390 78 408.50 79Q427 80 447.50 84.50Q468 89 489 97.50Q510 106 530 121L530 27Q492 4 448-3Q404-10 366-10Z"  horiz-adv-x="570" vert-adv-y="1000"  />

      
      <glyph glyph-name="uni44" unicode="&#x44;" d="M79 0L79 750L234 750Q413 750 509 654.50Q605 559 605 376Q605 193 508.50 96.50Q412 0 234 0L79 0M234 89Q357 89 428 160.50Q499 232 499 376Q499 521 428 591Q357 661 234 661L180 661L180 89L234 89Z"  horiz-adv-x="647" vert-adv-y="1000"  />

      
      <glyph glyph-name="uni45" unicode="&#x45;" d="M79 750L485 750L485 661L180 661L180 430L429 430L429 341L180 341L180 89L498 89L498 0L79 0L79 750Z"  horiz-adv-x="532" vert-adv-y="1000"  />

      
      <glyph glyph-name="uni46" unicode="&#x46;" d="M79 750L465 750L465 661L180 661L180 425L412 425L412 336L180 336L180 0L79 0L79 750Z"  horiz-adv-x="485" vert-adv-y="1000"  />

      
      <glyph glyph-name="uni47" unicode="&#x47;" d="M562 17Q544 9 521.50 3.50Q499-2 474.50-5Q450-8 425.50-9Q401-10 379-10Q296-10 233 16Q170 42 127.50 91.50Q85 141 63.50 212.50Q42 284 42 375Q42 467 67 539Q92 611 137 660Q182 709 245.50 734.50Q309 760 386 760Q403 760 425 758.50Q447 757 469 754Q491 751 511 746.50Q531 742 543 736L543 645Q517 658 477.50 665Q438 672 393 672Q339 672 294 651.50Q249 631 216.50 592.50Q184 554 166 499Q148 444 148 375Q148 306 162.50 251Q177 196 206.50 157.50Q236 119 280.50 98.50Q325 78 384 78Q398 78 419 79Q440 80 463 84L463 292L325 292L325 377L562 377L562 17L562 17Z"  horiz-adv-x="617" vert-adv-y="1000"  />

      
      <glyph glyph-name="uni48" unicode="&#x48;" d="M79 750L180 750L180 428L496 428L496 750L597 750L597 0L496 0L496 339L180 339L180 0L79 0L79 750Z"  horiz-adv-x="676" vert-adv-y="1000"  />

      
      <glyph glyph-name="uni49" unicode="&#x49;" d="M79 750L180 750L180 0L79 0L79 750Z"  horiz-adv-x="259" vert-adv-y="1000"  />

      
      <glyph glyph-name="uni4a" unicode="&#x4a;" d="M206 750L307 750L307 237Q307 181 298 135.50Q289 90 268 57.50Q247 25 213 7.50Q179-10 128-10Q92-10 59.50-4Q27 2 8 13L8 109Q33 91 60.50 85.50Q88 80 108 80Q164 80 185 116.50Q206 153 206 233L206 750Z"  horiz-adv-x="376" vert-adv-y="1000"  />

      
      <glyph glyph-name="uni4b" unicode="&#x4b;" d="M255 309L180 204L180 0L79 0L79 750L180 750L180 342L466 750L575 750L329 393L618 0L486 0L255 309Z"  horiz-adv-x="625" vert-adv-y="1000"  />

      
      <glyph glyph-name="uni4c" unicode="&#x4c;" d="M79 750L180 750L180 89L476 89L476 0L79 0L79 750Z"  horiz-adv-x="487" vert-adv-y="1000"  />

      
      <glyph glyph-name="uni4d" unicode="&#x4d;" d="M79 750L212 750L408 153L413 153L608 750L737 750L737 0L636 0L636 599L630 599L438 0L363 0L171 599L165 599L165 0L79 0L79 750Z"  horiz-adv-x="816" vert-adv-y="1000"  />

      
      <glyph glyph-name="uni4e" unicode="&#x4e;" d="M79 750L183 750L507 184L512 184L512 750L603 750L603 0L501 0L175 567L168 567L168 0L79 0L79 750Z"  horiz-adv-x="682" vert-adv-y="1000"  />

      
      <glyph glyph-name="uni4f" unicode="&#x4f;" d="M344-10Q273-10 217 16.50Q161 43 122 93Q83 143 62.50 214.50Q42 286 42 375Q42 465 62.50 536.50Q83 608 122 657.50Q161 707 217 733.50Q273 760 344 760Q416 760 472.50 733.50Q529 707 567.50 657.50Q606 608 626.50 537Q647 466 647 376Q647 286 626.50 214.50Q606 143 567 93Q528 43 472 16.50Q416-10 344-10M344 78Q436 78 488.50 154Q541 230 541 376Q541 521 488.50 596.50Q436 672 344 672Q253 672 200.50 596.50Q148 521 148 375Q148 229 200.50 153.50Q253 78 344 78Z"  horiz-adv-x="688" vert-adv-y="1000"  />

      
      <glyph glyph-name="uni50" unicode="&#x50;" d="M79 750L272 750Q342 750 390.50 731Q439 712 469 680.50Q499 649 512.50 609Q526 569 526 528Q526 484 512.50 442.50Q499 401 468.50 369Q438 337 389.50 317Q341 297 272 297L180 297L180 0L79 0L79 750M267 387Q336 387 378 422Q420 457 420 529Q420 593 378 627Q336 661 267 661L180 661L180 387L267 387Z"  horiz-adv-x="548" vert-adv-y="1000"  />

      
      <glyph glyph-name="uni51" unicode="&#x51;" d="M590-68L590-153L260-133L260-48L590-68M344-10Q273-10 217 16.50Q161 43 122 93Q83 143 62.50 214.50Q42 286 42 375Q42 465 62.50 536.50Q83 608 122 657.50Q161 707 217 733.50Q273 760 344 760Q416 760 472.50 733.50Q529 707 567.50 657.50Q606 608 626.50 537Q647 466 647 376Q647 286 626.50 214.50Q606 143 567 93Q528 43 472 16.50Q416-10 344-10M344 78Q436 78 488.50 154Q541 230 541 376Q541 521 488.50 596.50Q436 672 344 672Q253 672 200.50 596.50Q148 521 148 375Q148 229 200.50 153.50Q253 78 344 78Z"  horiz-adv-x="688" vert-adv-y="1000"  />

      
      <glyph glyph-name="uni52" unicode="&#x52;" d="M267 386Q337 386 379.50 419.50Q422 453 422 525Q422 594 379.50 627.50Q337 661 267 661L180 661L180 386L267 386M180 0L79 0L79 750L265 750Q338 750 388.50 731.50Q439 713 470 682Q501 651 514.50 611Q528 571 528 528Q528 496 519.50 464.50Q511 433 493 405.50Q475 378 447 356Q419 334 380 321L593 0L467 0L276 297Q268 296 261 296Q254 296 248 296L180 296L180 0Z"  horiz-adv-x="612" vert-adv-y="1000"  />

      
      <glyph glyph-name="uni53" unicode="&#x53;" d="M237 78Q264 78 288 83Q312 88 329.50 101.50Q347 115 357 137Q367 159 367 194Q367 224 355 245Q343 266 322.50 282Q302 298 275 311Q248 324 217 338Q180 355 148 374.50Q116 394 93 419.50Q70 445 56.50 479Q43 513 43 561Q43 618 64 656Q85 694 119 717Q153 740 196 750Q239 760 283 760Q330 760 373.50 753.50Q417 747 441 733L441 637Q414 654 373.50 663Q333 672 287 672Q263 672 238.50 667Q214 662 194 649.50Q174 637 161.50 615.50Q149 594 149 561Q149 532 160 511.50Q171 491 189 475.50Q207 460 231 447Q255 434 281 422Q319 404 354 384.50Q389 365 415.50 339.50Q442 314 457.50 279.50Q473 245 473 196Q473 154 460 116.50Q447 79 419.50 51Q392 23 348 6.50Q304-10 242-10Q222-10 197-8.50Q172-7 144.50-2Q117 3 89.50 12Q62 21 37 35L37 139Q88 105 140 91.50Q192 78 237 78Z"  horiz-adv-x="510" vert-adv-y="1000"  />

      
      <glyph glyph-name="uni54" unicode="&#x54;" d="M228 661L20 661L20 750L537 750L537 661L329 661L329 0L228 0L228 661Z"  horiz-adv-x="557" vert-adv-y="1000"  />

      
      <glyph glyph-name="uni55" unicode="&#x55;" d="M580 273Q580 213 567.50 161.50Q555 110 526.50 72Q498 34 450 12Q402-10 332-10Q262-10 213.50 10.50Q165 31 134.50 68.50Q104 106 90.50 157.50Q77 209 77 272L77 750L178 750L178 277Q178 231 186 194Q194 157 212.50 131.50Q231 106 260.50 92.50Q290 79 333 79Q378 79 407 92.50Q436 106 453.50 132Q471 158 477.50 194.50Q484 231 484 278L484 750L580 750L580 273L580 273Z"  horiz-adv-x="657" vert-adv-y="1000"  />

      
      <glyph glyph-name="uni56" unicode="&#x56;" d="M308 160L317 160L493 750L584 750L353 0L263 0L10 750L115 750L308 160Z"  horiz-adv-x="594" vert-adv-y="1000"  />

      
      <glyph glyph-name="uni57" unicode="&#x57;" d="M208 0L13 750L115 750L256 200L263 200L401 750L478 750L618 200L627 200L764 750L855 750L661 0L576 0L434 547L425 547L289 0L208 0Z"  horiz-adv-x="868" vert-adv-y="1000"  />

      
      <glyph glyph-name="uni58" unicode="&#x58;" d="M302 307L122 0L22 0L251 390L33 750L147 750L310 483L466 750L567 750L362 399L603 0L489 0L302 307Z"  horiz-adv-x="625" vert-adv-y="1000"  />

      
      <glyph glyph-name="uni59" unicode="&#x59;" d="M247 0L247 304L7 750L121 750L302 411L307 411L475 750L570 750L348 304L348 0L247 0Z"  horiz-adv-x="577" vert-adv-y="1000"  />

      
      <glyph glyph-name="uni5a" unicode="&#x5a;" d="M27 0L27 68L366 661L39 661L39 750L483 750L483 682L143 89L490 89L490 0L27 0Z"  horiz-adv-x="517" vert-adv-y="1000"  />

      
      <glyph glyph-name="uni0410" unicode="&#x0410;" d="M184 274L402 274L296 603L287 603L184 274M431 187L157 187L99 0L10 0L250 750L344 750L594 0L491 0L431 187Z"  horiz-adv-x="604" vert-adv-y="1000"  />

      
      <glyph glyph-name="uni0411" unicode="&#x0411;" d="M548 226Q548 183 533 142Q518 101 485.50 69.50Q453 38 402.50 19Q352 0 280 0L79 0L79 750L497 750L497 661L180 661L180 459L283 459Q353 459 403.50 442Q454 425 486 394Q518 363 533 320.50Q548 278 548 226M277 89Q355 89 398.50 122.50Q442 156 442 225Q442 300 398 334.50Q354 369 276 369L180 369L180 89L277 89Z"  horiz-adv-x="582" vert-adv-y="1000"  />

      
      <glyph glyph-name="uni0412" unicode="&#x0412;" d="M79 0L79 750L284 750Q348 750 394 736.50Q440 723 470 698.50Q500 674 514 639.50Q528 605 528 563Q528 498 495 458.50Q462 419 404 399L404 391Q484 373 520 324.50Q556 276 556 210Q556 166 542.50 128Q529 90 499 61.50Q469 33 419.50 16.50Q370 0 298 0L79 0M277 426Q346 426 384 460Q422 494 422 556Q422 613 384 639Q346 665 277 665L180 665L180 426L277 426M289 85Q364 85 407 114.50Q450 144 450 211Q450 247 437.50 272.50Q425 298 402.50 313.50Q380 329 349.50 336.50Q319 344 282 344L180 344L180 85L289 85Z"  horiz-adv-x="589" vert-adv-y="1000"  />

      
      <glyph glyph-name="uni0413" unicode="&#x0413;" d="M79 750L468 750L468 661L180 661L180 0L79 0L79 750Z"  horiz-adv-x="488" vert-adv-y="1000"  />

      
      <glyph glyph-name="uni0414" unicode="&#x0414;" d="M469 89L469 661L256 661Q256 575 253.50 490.50Q251 406 242 330.50Q233 255 214.50 192.50Q196 130 164 89L469 89M101 0L91-155L5-155L5 89L58 89Q87 117 106.50 160Q126 203 138 256Q150 309 156 369.50Q162 430 164.50 494Q167 558 166.50 623Q166 688 166 750L570 750L570 89L658 89L658-155L572-155L561 0L101 0Z"  horiz-adv-x="687" vert-adv-y="1000"  />

      
      <glyph glyph-name="uni0415" unicode="&#x0415;" d="M79 750L485 750L485 661L180 661L180 430L429 430L429 341L180 341L180 89L498 89L498 0L79 0L79 750Z"  horiz-adv-x="532" vert-adv-y="1000"  />

      
      <glyph glyph-name="uni0401" unicode="&#x0401;" d="M79 750L485 750L485 661L180 661L180 430L429 430L429 341L180 341L180 89L498 89L498 0L79 0L79 750M190 793Q162 793 144.50 810.50Q127 828 127 854Q127 880 144.50 898Q162 916 190 916Q217 916 235 898Q253 880 253 854Q253 828 235 810.50Q217 793 190 793M385 793Q357 793 339.50 810.50Q322 828 322 854Q322 880 339.50 898Q357 916 385 916Q413 916 430.50 898Q448 880 448 854Q448 828 430.50 810.50Q413 793 385 793Z"  horiz-adv-x="532" vert-adv-y="1000"  />

      
      <glyph glyph-name="uni0416" unicode="&#x0416;" d="M392 750L493 750L493 402L540 421L754 750L855 750L623 393L878 0L758 0L538 336L493 319L493 0L392 0L392 319L348 336L127 0L10 0L261 384L24 750L132 750L346 420L392 402L392 750Z"  horiz-adv-x="888" vert-adv-y="1000"  />

      
      <glyph glyph-name="uni0417" unicode="&#x0417;" d="M209-10Q159-10 112.50-0.50Q66 9 31 27L31 123Q71 100 113 89Q155 78 209 78Q282 78 322.50 110.50Q363 143 363 212Q363 247 349.50 272Q336 297 313.50 313.50Q291 330 260 337.50Q229 345 195 345L127 345L127 435L195 435Q261 435 297 469Q333 503 333 565Q333 618 298.50 644.50Q264 671 206 671Q158 671 119.50 658Q81 645 44 611L44 708Q77 736 124 748Q171 760 217 760Q279 760 321.50 745Q364 730 390 704Q416 678 427.50 643.50Q439 609 439 571Q439 508 403.50 465Q368 422 308 403L308 394Q397 374 433 324.50Q469 275 469 206Q469 161 455 121.50Q441 82 410 53Q379 24 329.50 7Q280-10 209-10Z"  horiz-adv-x="502" vert-adv-y="1000"  />

      
      <glyph glyph-name="uni0418" unicode="&#x0418;" d="M502 0L502 564L493 564L177 0L79 0L79 750L180 750L180 191L189 191L505 750L603 750L603 0L502 0Z"  horiz-adv-x="682" vert-adv-y="1000"  />

      
      <glyph glyph-name="uni0419" unicode="&#x0419;" d="M502 0L502 564L493 564L177 0L79 0L79 750L180 750L180 191L189 191L505 750L603 750L603 0L502 0M346 769Q313 769 284 777.50Q255 786 234 803.50Q213 821 200.50 848Q188 875 188 913L271 913Q271 899 274.50 885.50Q278 872 286.50 861.50Q295 851 309.50 844.50Q324 838 346 838Q388 838 405 861Q422 884 422 913L505 913Q505 875 493 848Q481 821 459.50 803.50Q438 786 409 777.50Q380 769 346 769Z"  horiz-adv-x="682" vert-adv-y="1000"  />

      
      <glyph glyph-name="uni041A" unicode="&#x041A;" d="M180 0L79 0L79 750L180 750L180 407L235 426L462 750L566 750L320 394L588 0L467 0L233 335L180 317L180 0Z"  horiz-adv-x="599" vert-adv-y="1000"  />

      
      <glyph glyph-name="uni041B" unicode="&#x041B;" d="M62-7Q46-7 34-5Q22-3 12 0L12 94Q14 94 22 92.50Q30 91 42 91Q70 91 92 109.50Q114 128 129.50 177.50Q145 227 153 313Q161 399 161 535L161 750L558 750L558 0L457 0L457 661L251 661L251 530Q251 413 244.50 314.50Q238 216 218 144.50Q198 73 161 33Q124-7 62-7Z"  horiz-adv-x="636" vert-adv-y="1000"  />

      
      <glyph glyph-name="uni041C" unicode="&#x041C;" d="M79 750L212 750L408 153L413 153L608 750L737 750L737 0L636 0L636 599L630 599L438 0L363 0L171 599L165 599L165 0L79 0L79 750Z"  horiz-adv-x="816" vert-adv-y="1000"  />

      
      <glyph glyph-name="uni041D" unicode="&#x041D;" d="M79 750L180 750L180 428L496 428L496 750L597 750L597 0L496 0L496 339L180 339L180 0L79 0L79 750Z"  horiz-adv-x="676" vert-adv-y="1000"  />

      
      <glyph glyph-name="uni041E" unicode="&#x041E;" d="M344-10Q273-10 217 16.50Q161 43 122 93Q83 143 62.50 214.50Q42 286 42 375Q42 465 62.50 536.50Q83 608 122 657.50Q161 707 217 733.50Q273 760 344 760Q416 760 472.50 733.50Q529 707 567.50 657.50Q606 608 626.50 537Q647 466 647 376Q647 286 626.50 214.50Q606 143 567 93Q528 43 472 16.50Q416-10 344-10M344 78Q436 78 488.50 154Q541 230 541 376Q541 521 488.50 596.50Q436 672 344 672Q253 672 200.50 596.50Q148 521 148 375Q148 229 200.50 153.50Q253 78 344 78Z"  horiz-adv-x="688" vert-adv-y="1000"  />

      
      <glyph glyph-name="uni041F" unicode="&#x041F;" d="M79 750L581 750L581 0L480 0L480 661L180 661L180 0L79 0L79 750Z"  horiz-adv-x="660" vert-adv-y="1000"  />

      
      <glyph glyph-name="uni0420" unicode="&#x0420;" d="M79 750L272 750Q342 750 390.50 731Q439 712 469 680.50Q499 649 512.50 609Q526 569 526 528Q526 484 512.50 442.50Q499 401 468.50 369Q438 337 389.50 317Q341 297 272 297L180 297L180 0L79 0L79 750M267 387Q336 387 378 422Q420 457 420 529Q420 593 378 627Q336 661 267 661L180 661L180 387L267 387Z"  horiz-adv-x="548" vert-adv-y="1000"  />

      
      <glyph glyph-name="uni0421" unicode="&#x0421;" d="M366-10Q282-10 221 17Q160 44 120.50 94Q81 144 61.50 215Q42 286 42 375Q42 463 64 534.50Q86 606 128 656Q170 706 230.50 733Q291 760 368 760Q386 760 406 758.50Q426 757 445.50 754Q465 751 482.50 746.50Q500 742 513 736L513 644Q463 672 375 672Q328 672 286.50 653.50Q245 635 214 598Q183 561 165.50 505.50Q148 450 148 375Q148 222 208.50 150Q269 78 376 78Q390 78 408.50 79Q427 80 447.50 84.50Q468 89 489 97.50Q510 106 530 121L530 27Q492 4 448-3Q404-10 366-10Z"  horiz-adv-x="570" vert-adv-y="1000"  />

      
      <glyph glyph-name="uni0422" unicode="&#x0422;" d="M228 661L20 661L20 750L537 750L537 661L329 661L329 0L228 0L228 661Z"  horiz-adv-x="556" vert-adv-y="1000"  />

      
      <glyph glyph-name="uni0423" unicode="&#x0423;" d="M161 0L249 210L8 750L117 750L298 341L304 341L476 750L572 750L257 0L161 0Z"  horiz-adv-x="580" vert-adv-y="1000"  />

      
      <glyph glyph-name="uni0424" unicode="&#x0424;" d="M355 86Q281 86 221.50 106Q162 126 120 163.50Q78 201 55.50 254.50Q33 308 33 375Q33 443 55.50 496.50Q78 550 120 587.50Q162 625 221.50 645Q281 665 355 666L355 760L456 760L456 666Q530 665 589.50 644.50Q649 624 690.50 586.50Q732 549 754.50 495.50Q777 442 777 374Q777 306 754.50 253Q732 200 690.50 163Q649 126 589.50 106Q530 86 456 86L456-10L355-10L355 86M456 170Q559 170 615 225.50Q671 281 671 374Q671 420 656.50 458.50Q642 497 614.50 524Q587 551 547 566Q507 581 456 581L456 170M355 581Q252 581 195.50 525Q139 469 139 375Q139 330 153.50 292Q168 254 195.50 227Q223 200 263.50 185Q304 170 355 170L355 581Z"  horiz-adv-x="811" vert-adv-y="1000"  />

      
      <glyph glyph-name="uni0425" unicode="&#x0425;" d="M302 307L122 0L22 0L251 390L33 750L147 750L310 483L466 750L567 750L362 399L603 0L489 0L302 307Z"  horiz-adv-x="625" vert-adv-y="1000"  />

      
      <glyph glyph-name="uni0426" unicode="&#x0426;" d="M563 0L79 0L79 750L180 750L180 89L470 89L470 750L571 750L571 89L659 89L659-155L573-155L563 0Z"  horiz-adv-x="687" vert-adv-y="1000"  />

      
      <glyph glyph-name="uni0427" unicode="&#x0427;" d="M429 320Q412 312 389 306Q369 301 342 297Q315 293 281 293Q227 293 184 307Q141 321 111 351Q81 381 64.50 427.50Q48 474 48 539L48 750L149 750L149 546Q149 498 159 466Q169 434 188 415Q207 396 233.50 388Q260 380 293 380Q325 380 351 384Q377 388 394 393Q414 398 429 406L429 750L530 750L530 0L429 0L429 320Z"  horiz-adv-x="609" vert-adv-y="1000"  />

      
      <glyph glyph-name="uni0428" unicode="&#x0428;" d="M79 750L180 750L180 89L412 89L412 750L513 750L513 89L745 89L745 750L846 750L846 0L79 0L79 750Z"  horiz-adv-x="924" vert-adv-y="1000"  />

      
      <glyph glyph-name="uni0429" unicode="&#x0429;" d="M79 0L79 750L180 750L180 89L412 89L412 750L513 750L513 89L745 89L745 750L846 750L846 89L934 89L934-155L848-155L837 0L79 0Z"  horiz-adv-x="963" vert-adv-y="1000"  />

      
      <glyph glyph-name="uni042A" unicode="&#x042A;" d="M167 0L167 661L18 661L18 750L268 750L268 474L371 474Q441 474 491.50 456Q542 438 574 406.50Q606 375 621 330.50Q636 286 636 234Q636 190 621 148Q606 106 573.50 73Q541 40 490.50 20Q440 0 368 0L167 0M365 89Q443 89 486.50 125Q530 161 530 233Q530 311 486 347.50Q442 384 364 384L268 384L268 89L365 89Z"  horiz-adv-x="660" vert-adv-y="1000"  />

      
      <glyph glyph-name="uni042B" unicode="&#x042B;" d="M79 750L180 750L180 474L283 474Q353 474 403.50 456Q454 438 486 406.50Q518 375 533 330.50Q548 286 548 234Q548 190 533 148Q518 106 485.50 73Q453 40 402.50 20Q352 0 280 0L79 0L79 750M277 89Q355 89 398.50 125Q442 161 442 233Q442 311 398 347.50Q354 384 276 384L180 384L180 89L277 89M639 750L740 750L740 0L639 0L639 750Z"  horiz-adv-x="819" vert-adv-y="1000"  />

      
      <glyph glyph-name="uni042C" unicode="&#x042C;" d="M79 750L180 750L180 474L283 474Q353 474 403.50 456Q454 438 486 406.50Q518 375 533 330.50Q548 286 548 234Q548 190 533 148Q518 106 485.50 73Q453 40 402.50 20Q352 0 280 0L79 0L79 750M277 89Q355 89 398.50 125Q442 161 442 233Q442 311 398 347.50Q354 384 276 384L180 384L180 89L277 89Z"  horiz-adv-x="572" vert-adv-y="1000"  />

      
      <glyph glyph-name="uni042D" unicode="&#x042D;" d="M218-10Q169-10 126.50-1Q84 8 49 27L49 119Q89 96 128 87Q167 78 212 78Q302 78 355.50 139Q409 200 415 339L162 339L162 428L414 428Q403 550 347 611Q291 672 205 672Q160 672 124 662.50Q88 653 52 624L52 716Q83 739 126 749.50Q169 760 211 760Q288 760 346 733Q404 706 443 656Q482 606 502 535Q522 464 522 376Q522 193 446 91.50Q370-10 218-10Z"  horiz-adv-x="564" vert-adv-y="1000"  />

      
      <glyph glyph-name="uni042E" unicode="&#x042E;" d="M573-10Q507-10 454 15Q401 40 364 85.50Q327 131 305.50 195.50Q284 260 281 339L180 339L180 0L79 0L79 750L180 750L180 428L284 428Q290 504 311.50 565.50Q333 627 370 670Q407 713 457.50 736.50Q508 760 573 760Q644 760 698.50 732.50Q753 705 790.50 655Q828 605 847 534Q866 463 866 376Q866 289 846.50 217.50Q827 146 790 95.50Q753 45 698 17.50Q643-10 573-10M573 81Q661 81 709.50 157Q758 233 760 376Q762 518 711.50 593.50Q661 669 573 669Q487 669 438 594Q389 519 387 375Q385 232 436 156.50Q487 81 573 81Z"  horiz-adv-x="908" vert-adv-y="1000"  />

      
      <glyph glyph-name="uni042F" unicode="&#x042F;" d="M413 397L413 661L320 661Q249 661 207 627.50Q165 594 165 530Q165 464 207.50 430.50Q250 397 322 397L413 397M133 0L15 0L217 327Q176 338 146.50 358.50Q117 379 97.50 406.50Q78 434 68.50 466Q59 498 59 533Q59 574 72 613Q85 652 115.50 682.50Q146 713 196 731.50Q246 750 321 750L514 750L514 0L413 0L413 307L322 307L133 0Z"  horiz-adv-x="580" vert-adv-y="1000"  />

      
      <glyph glyph-name="uni61" unicode="&#x61;" d="M235 69Q258 69 280 77.50Q302 86 319.50 103.50Q337 121 347.50 147.50Q358 174 358 210L358 237Q300 237 260 232Q220 227 195 216Q170 205 159 187Q148 169 148 143Q148 111 167.50 90Q187 69 235 69M199-10Q123-10 85 30Q47 70 47 132Q47 175 64 207Q81 239 118.50 259Q156 279 215 289Q274 299 358 299L358 322Q358 376 327 403.50Q296 431 236 431Q194 431 155 421Q116 411 78 386L78 476Q113 497 160 505Q207 513 249 513Q355 513 404.50 462.50Q454 412 454 321L454 0L363 0L363 79L356 79Q332 37 297 13.50Q262-10 199-10Z"  horiz-adv-x="519" vert-adv-y="1000"  />

      
      <glyph glyph-name="uni62" unicode="&#x62;" d="M71 750L167 750L167 510L162 432L169 432Q192 467 231.50 490Q271 513 328 513Q374 513 412.50 494.50Q451 476 479 442.50Q507 409 522.50 361Q538 313 538 253Q538 191 522.50 142Q507 93 479 59Q451 25 412 7.50Q373-10 327-10Q219-10 169 70L162 70L162 0L71 0L71 750M300 74Q327 74 352 84Q377 94 396 116Q415 138 426 171.50Q437 205 437 253Q437 299 426 332.50Q415 366 396 387.50Q377 409 352 419Q327 429 300 429Q241 429 204 395Q167 361 167 292L167 222Q167 185 177.50 157.50Q188 130 206 111.50Q224 93 248.50 83.50Q273 74 300 74Z"  horiz-adv-x="575" vert-adv-y="1000"  />

      
      <glyph glyph-name="uni63" unicode="&#x63;" d="M282-10Q165-10 101 57.50Q37 125 37 250Q37 312 55.50 361Q74 410 106 443.50Q138 477 182.50 495Q227 513 279 513Q323 513 352.50 506.50Q382 500 405 488L405 395Q379 414 347 420.50Q315 427 288 427Q256 427 228.50 416.50Q201 406 181 384Q161 362 149.50 328.50Q138 295 138 250Q138 204 149.50 171Q161 138 181 117Q201 96 229.50 86Q258 76 293 76Q370 76 412 112L412 17Q396 8 364.50-1Q333-10 282-10Z"  horiz-adv-x="447" vert-adv-y="1000"  />

      
      <glyph glyph-name="uni64" unicode="&#x64;" d="M278 74Q303 74 326.50 82.50Q350 91 368 108.50Q386 126 397 154Q408 182 408 221L408 290Q408 356 372 392.50Q336 429 279 429Q250 429 224 418.50Q198 408 179 386.50Q160 365 149 331Q138 297 138 249Q138 203 149 170Q160 137 179 115.50Q198 94 223.50 84Q249 74 278 74M413 0L413 70L406 70Q385 32 344 11Q303-10 247-10Q150-10 93.50 58Q37 126 37 249Q37 310 52.50 358.50Q68 407 96.50 441.50Q125 476 165 494.50Q205 513 254 513Q306 513 344.50 495Q383 477 406 433L413 433L408 510L408 750L504 750L504 0L413 0Z"  horiz-adv-x="575" vert-adv-y="1000"  />

      
      <glyph glyph-name="uni65" unicode="&#x65;" d="M287-10Q170-10 103.50 54Q37 118 37 250Q37 312 54 361Q71 410 101 443.50Q131 477 173 495Q215 513 266 513Q310 513 348 500.50Q386 488 413.50 462.50Q441 437 457 398Q473 359 473 307Q473 287 471 270Q469 253 467 245L141 245Q140 159 182 116.50Q224 74 299 74Q344 74 384 85Q424 96 456 122L456 33Q431 13 386.50 1.50Q342-10 287-10M377 311Q375 346 365 370Q355 394 339 408.50Q323 423 303 429.50Q283 436 261 436Q213 436 181 406Q149 376 140 311L377 311Z"  horiz-adv-x="510" vert-adv-y="1000"  />

      
      <glyph glyph-name="uni66" unicode="&#x66;" d="M185 503L306 503L306 420L185 420L185 0L89 0L89 420L19 420L19 503L89 503L89 568Q89 660 133.50 710Q178 760 259 760Q286 760 310 756.50Q334 753 356 745L356 656Q328 676 281 676Q235 676 210 651Q185 626 185 566L185 503Z"  horiz-adv-x="319" vert-adv-y="1000"  />

      
      <glyph glyph-name="uni67" unicode="&#x67;" d="M249 220Q291 220 320.50 247.50Q350 275 350 329Q350 385 320.50 412.50Q291 440 249 440Q206 440 177.50 411.50Q149 383 149 328Q149 274 177.50 247Q206 220 249 220M500-87Q500-128 483-160.50Q466-193 434.50-215Q403-237 359.50-248.50Q316-260 262-260Q209-260 165.50-250.50Q122-241 91.50-223Q61-205 44.50-178Q28-151 28-116Q28-89 35.50-68.50Q43-48 56.50-32.50Q70-17 87.50-6.50Q105 4 126 12Q85 34 85 82Q85 109 101.50 132Q118 155 153 168Q105 188 77 228.50Q49 269 49 329Q49 372 64 406Q79 440 105.50 464Q132 488 168.50 500.50Q205 513 249 513Q315 513 365 485L507 503L507 420L428 421Q450 382 450 330Q450 287 435 253.50Q420 220 393.50 197Q367 174 330 162Q293 150 249 150L248 150Q222 150 200 141.50Q178 133 178 111Q178 97 186.50 88.50Q195 80 211 75Q227 70 248 68Q269 66 295 65Q343 63 381.50 53.50Q420 44 446 26Q472 8 486-19.50Q500-47 500-87M270-189Q300-189 325.50-183.50Q351-178 370.50-166.50Q390-155 401-137Q412-119 412-95Q412-71 401-56.50Q390-42 371.50-33.50Q353-25 327.50-21.50Q302-18 272-16Q244-15 220.50-12.50Q197-10 178-6Q146-22 134.50-43Q123-64 123-92Q123-141 164-165Q205-189 270-189Z"  horiz-adv-x="515" vert-adv-y="1000"  />

      
      <glyph glyph-name="uni68" unicode="&#x68;" d="M71 750L167 750L167 510L162 433L169 433Q196 477 237.50 495Q279 513 324 513Q414 513 454 464.50Q494 416 494 325L494 0L398 0L398 289Q398 360 371 393.50Q344 427 286 427Q235 427 201 396.50Q167 366 167 296L167 0L71 0L71 750Z"  horiz-adv-x="560" vert-adv-y="1000"  />

      
      <glyph glyph-name="uni69" unicode="&#x69;" d="M71 503L167 503L167 0L71 0L71 503M119 605Q90 605 71 623.50Q52 642 52 670Q52 699 71 717.50Q90 736 119 736Q145 736 165.50 717.50Q186 699 186 670Q186 642 165.50 623.50Q145 605 119 605Z"  horiz-adv-x="237" vert-adv-y="1000"  />

      
      <glyph glyph-name="uni6a" unicode="&#x6a;" d="M91 503L187 503L187-42Q187-102 178-144Q169-186 151-211.50Q133-237 106-248.50Q79-260 42-260Q13-260-8.50-255.50Q-30-251-43-244L-43-157Q-18-176 18-176Q37-176 51-170Q65-164 74-147.50Q83-131 87-101Q91-71 91-23L91 503M139 605Q110 605 91 623.50Q72 642 72 670Q72 699 91 717.50Q110 736 139 736Q165 736 185.50 717.50Q206 699 206 670Q206 642 185.50 623.50Q165 605 139 605Z"  horiz-adv-x="254" vert-adv-y="1000"  />

      
      <glyph glyph-name="uni6b" unicode="&#x6b;" d="M219 191L167 124L167 0L71 0L71 750L167 750L167 241L367 503L470 503L285 265L495 0L375 0L219 191Z"  horiz-adv-x="502" vert-adv-y="1000"  />

      
      <glyph glyph-name="uni6c" unicode="&#x6c;" d="M65 750L161 750L161 129Q161 96 175 86Q189 76 209 76Q227 75 238.50 79Q250 83 261 89L261 6Q250-1 232-5.50Q214-10 189-10Q131-10 98 17.50Q65 45 65 115L65 750Z"  horiz-adv-x="271" vert-adv-y="1000"  />

      
      <glyph glyph-name="uni6d" unicode="&#x6d;" d="M167 0L71 0L71 503L162 503L162 432L169 432Q192 470 229 491.50Q266 513 317 513Q371 513 404 491Q437 469 452 432L459 432Q472 455 489 470.50Q506 486 525.50 495.50Q545 505 565.50 509Q586 513 605 513Q649 513 679 500.50Q709 488 727 463.50Q745 439 753 404Q761 369 761 324L761 0L665 0L665 292Q665 362 642 394.50Q619 427 569 427Q524 427 494 397.50Q464 368 464 302L464 0L368 0L368 292Q368 362 344.50 394.50Q321 427 271 427Q227 427 197 398Q167 369 167 302L167 0Z"  horiz-adv-x="826" vert-adv-y="1000"  />

      
      <glyph glyph-name="uni6e" unicode="&#x6e;" d="M71 503L162 503L162 432L169 432Q194 475 234.50 494Q275 513 324 513Q414 513 454 464.50Q494 416 494 325L494 0L398 0L398 289Q398 360 371 393.50Q344 427 286 427Q232 427 199.50 392.50Q167 358 167 296L167 0L71 0L71 503Z"  horiz-adv-x="560" vert-adv-y="1000"  />

      
      <glyph glyph-name="uni6f" unicode="&#x6f;" d="M272-10Q221-10 178 7.50Q135 25 103.50 58Q72 91 54.50 139.50Q37 188 37 250Q37 312 54.50 361Q72 410 103.50 443.50Q135 477 178 495Q221 513 272 513Q321 513 364 495.50Q407 478 439 444Q471 410 489 361.50Q507 313 507 251Q507 189 489 140.50Q471 92 439.50 58.50Q408 25 365 7.50Q322-10 272-10M272 74Q299 74 323.50 84Q348 94 366.50 116Q385 138 395.50 171Q406 204 406 251Q406 297 395 331Q384 365 365.50 386.50Q347 408 323 418.50Q299 429 272 429Q244 429 219.50 418.50Q195 408 177 386.50Q159 365 148.50 331Q138 297 138 250Q138 203 148.50 170Q159 137 177 115.50Q195 94 219.50 84Q244 74 272 74Z"  horiz-adv-x="544" vert-adv-y="1000"  />

      
      <glyph glyph-name="uni70" unicode="&#x70;" d="M300 74Q327 74 352 84Q377 94 396 116Q415 138 426 171.50Q437 205 437 253Q437 299 426 332.50Q415 366 396 387.50Q377 409 352 419Q327 429 299 429Q241 429 204 395Q167 361 167 292L167 222Q167 185 177.50 157.50Q188 130 206 111.50Q224 93 248.50 83.50Q273 74 300 74M71 503L162 503L162 432L169 432Q190 467 228.50 490Q267 513 328 513Q374 513 412.50 494.50Q451 476 479 442.50Q507 409 522.50 361Q538 313 538 253Q538 191 522.50 142Q507 93 479 59Q451 25 412 7.50Q373-10 327-10Q272-10 232.50 11.50Q193 33 169 70L162 70L167-10L167-250L71-250L71 503Z"  horiz-adv-x="575" vert-adv-y="1000"  />

      
      <glyph glyph-name="uni71" unicode="&#x71;" d="M408 0L413 70L406 70Q358-10 247-10Q150-10 93.50 58Q37 126 37 249Q37 310 52.50 358.50Q68 407 96.50 441.50Q125 476 165 494.50Q205 513 254 513Q306 513 344 495Q382 477 406 433L413 433L413 503L504 503L504-250L408-250L408 0M278 74Q303 74 326.50 82.50Q350 91 368 108.50Q386 126 397 154Q408 182 408 221L408 290Q408 356 372 392.50Q336 429 279 429Q250 429 224 418.50Q198 408 179 386.50Q160 365 149 331Q138 297 138 249Q138 203 149 170Q160 137 179 115.50Q198 94 223.50 84Q249 74 278 74Z"  horiz-adv-x="575" vert-adv-y="1000"  />

      
      <glyph glyph-name="uni72" unicode="&#x72;" d="M71 503L162 503L162 424L169 424Q183 460 216.50 486.50Q250 513 304 513Q322 513 338.50 511.50Q355 510 366 505L366 408Q351 413 332 416.50Q313 420 289 420Q270 420 248.50 414.50Q227 409 209 394Q191 379 179 352.50Q167 326 167 284L167 0L71 0L71 503Z"  horiz-adv-x="376" vert-adv-y="1000"  />

      
      <glyph glyph-name="uni73" unicode="&#x73;" d="M213-10Q169-10 122-2.50Q75 5 39 27L39 119Q78 91 125.50 80.50Q173 70 211 70Q298 70 298 138Q298 169 274 184.50Q250 200 218 211Q190 221 159 230.50Q128 240 102.50 256Q77 272 60.50 297Q44 322 44 362Q44 431 93 472Q142 513 245 513Q258 513 274.50 512Q291 511 308.50 509Q326 507 343 503.50Q360 500 372 494L372 406Q343 422 310.50 427.50Q278 433 249 433Q203 433 175.50 415.50Q148 398 148 363Q148 336 169.50 322.50Q191 309 223 298Q250 289 280.50 279.50Q311 270 336.50 253Q362 236 379 208.50Q396 181 396 137Q396 107 386 80Q376 53 354 33Q332 13 297 1.50Q262-10 213-10Z"  horiz-adv-x="434" vert-adv-y="1000"  />

      
      <glyph glyph-name="uni74" unicode="&#x74;" d="M248-10Q203-10 172.50 3Q142 16 123.50 41Q105 66 97 101.50Q89 137 89 181L89 420L19 420L19 503L89 503L89 647L185 647L185 503L342 503L342 420L185 420L185 185Q185 131 201 102Q217 73 262 73Q294 72 314.50 77Q335 82 349 87L349 6Q327-3 302-6.50Q277-10 248-10Z"  horiz-adv-x="383" vert-adv-y="1000"  />

      
      <glyph glyph-name="uni75" unicode="&#x75;" d="M233-10Q149-10 107.50 39Q66 88 66 178L66 503L162 503L162 214Q162 139 190 107.50Q218 76 272 76Q291 76 312 82.50Q333 89 350.50 105.50Q368 122 379 149.50Q390 177 390 218L390 503L486 503L486 0L395 0L395 70L388 70Q365 32 326.50 11Q288-10 233-10Z"  horiz-adv-x="557" vert-adv-y="1000"  />

      
      <glyph glyph-name="uni76" unicode="&#x76;" d="M5 503L105 503L243 127L252 127L377 503L466 503L291 0L195 0L5 503Z"  horiz-adv-x="471" vert-adv-y="1000"  />

      
      <glyph glyph-name="uni77" unicode="&#x77;" d="M346 378L339 378L249 0L149 0L5 503L99 503L205 118L214 118L305 503L392 503L499 118L507 118L599 503L681 503L551 0L451 0L346 378Z"  horiz-adv-x="686" vert-adv-y="1000"  />

      
      <glyph glyph-name="uni78" unicode="&#x78;" d="M247 187L126 0L31 0L198 251L27 503L140 503L258 322L375 503L470 503L307 258L483 0L369 0L247 187Z"  horiz-adv-x="502" vert-adv-y="1000"  />

      
      <glyph glyph-name="uni79" unicode="&#x79;" d="M114-250L202-6L2 503L104 503L245 133L254 133L385 503L476 503L205-250L114-250Z"  horiz-adv-x="478" vert-adv-y="1000"  />

      
      <glyph glyph-name="uni7a" unicode="&#x7a;" d="M44 0L44 63L302 420L49 420L49 503L413 503L413 440L155 83L435 83L435 0L44 0Z"  horiz-adv-x="468" vert-adv-y="1000"  />

      
      <glyph glyph-name="uni0430" unicode="&#x0430;" d="M235 69Q258 69 280 77.50Q302 86 319.50 103.50Q337 121 347.50 147.50Q358 174 358 210L358 237Q300 237 260 232Q220 227 195 216Q170 205 159 187Q148 169 148 143Q148 111 167.50 90Q187 69 235 69M199-10Q123-10 85 30Q47 70 47 132Q47 175 64 207Q81 239 118.50 259Q156 279 215 289Q274 299 358 299L358 322Q358 376 327 403.50Q296 431 236 431Q194 431 155 421Q116 411 78 386L78 476Q113 497 160 505Q207 513 249 513Q355 513 404.50 462.50Q454 412 454 321L454 0L363 0L363 79L356 79Q332 37 297 13.50Q262-10 199-10Z"  horiz-adv-x="519" vert-adv-y="1000"  />

      
      <glyph glyph-name="uni0431" unicode="&#x0431;" d="M279-10Q232-10 188 4.50Q144 19 110.50 56Q77 93 57 155Q37 217 37 313Q37 428 56.50 508Q76 588 116.50 639Q157 690 220 716Q283 742 371 748Q424 751 450.50 754Q477 757 485 759L485 668Q477 666 449.50 662.50Q422 659 376 657Q311 652 263.50 636.50Q216 621 184.50 588.50Q153 556 137 504.50Q121 453 118 377L125 377Q140 431 186 463.50Q232 496 304 496Q350 496 389.50 479Q429 462 458 430Q487 398 503.50 351.50Q520 305 520 247Q520 187 501.50 139.50Q483 92 450.50 59Q418 26 374 8Q330-10 279-10M279 74Q309 74 334.50 85.50Q360 97 378.50 118.50Q397 140 408 172.50Q419 205 419 247Q419 289 408 320Q397 351 378.50 372Q360 393 334.50 403.50Q309 414 279 414Q219 414 179 372Q139 330 139 246Q139 161 179 117.50Q219 74 279 74Z"  horiz-adv-x="556" vert-adv-y="1000"  />

      
      <glyph glyph-name="uni0432" unicode="&#x0432;" d="M71 503L229 503Q292 503 333 493Q374 483 399 466Q424 449 434 426.50Q444 404 444 378Q444 331 418 304Q392 277 344 268L344 261Q405 252 435.50 220.50Q466 189 466 146Q466 116 455.50 89.50Q445 63 420 43Q395 23 355 11.50Q315 0 257 0L71 0L71 503M232 291Q294 291 318.50 311Q343 331 343 366Q343 395 316.50 412.50Q290 430 232 430L167 430L167 291L232 291M253 72Q307 72 336 91.50Q365 111 365 146Q365 186 335.50 204Q306 222 253 222L167 222L167 72L253 72Z"  horiz-adv-x="501" vert-adv-y="1000"  />

      
      <glyph glyph-name="uni0433" unicode="&#x0433;" d="M71 503L380 503L380 420L167 420L167 0L71 0L71 503Z"  horiz-adv-x="389" vert-adv-y="1000"  />

      
      <glyph glyph-name="uni0434" unicode="&#x0434;" d="M373 83L373 420L217 420Q217 371 214 322.50Q211 274 203.50 229.50Q196 185 184 147.50Q172 110 154 83L373 83M93-132L12-132L12 83L61 83Q80 107 94.50 141.50Q109 176 118.50 225.50Q128 275 133 343Q138 411 138 503L470 503L470 83L555 83L555-132L474-132L464 0L103 0L93-132Z"  horiz-adv-x="577" vert-adv-y="1000"  />

      
      <glyph glyph-name="uni0435" unicode="&#x0435;" d="M287-10Q170-10 103.50 54Q37 118 37 250Q37 312 54 361Q71 410 101 443.50Q131 477 173 495Q215 513 266 513Q310 513 348 500.50Q386 488 413.50 462.50Q441 437 457 398Q473 359 473 307Q473 287 471 270Q469 253 467 245L141 245Q140 159 182 116.50Q224 74 299 74Q344 74 384 85Q424 96 456 122L456 33Q431 13 386.50 1.50Q342-10 287-10M377 311Q375 346 365 370Q355 394 339 408.50Q323 423 303 429.50Q283 436 261 436Q213 436 181 406Q149 376 140 311L377 311Z"  horiz-adv-x="510" vert-adv-y="1000"  />

      
      <glyph glyph-name="uni0451" unicode="&#x0451;" d="M287-10Q170-10 103.50 54Q37 118 37 250Q37 312 54 361Q71 410 101 443.50Q131 477 173 495Q215 513 266 513Q310 513 348 500.50Q386 488 413.50 462.50Q441 437 457 398Q473 359 473 307Q473 287 471 270Q469 253 467 245L141 245Q140 159 182 116.50Q224 74 299 74Q344 74 384 85Q424 96 456 122L456 33Q431 13 386.50 1.50Q342-10 287-10M377 311Q375 346 365 370Q355 394 339 408.50Q323 423 303 429.50Q283 436 261 436Q213 436 181 406Q149 376 140 311L377 311M153 605Q124 605 105.50 623.50Q87 642 87 670Q87 697 105.50 716.50Q124 736 153 736Q179 736 199 716.50Q219 697 219 670Q219 642 199 623.50Q179 605 153 605M361 605Q334 605 314.50 623.50Q295 642 295 670Q295 697 314.50 716.50Q334 736 361 736Q388 736 407.50 716.50Q427 697 427 670Q427 642 407.50 623.50Q388 605 361 605Z"  horiz-adv-x="510" vert-adv-y="1000"  />

      
      <glyph glyph-name="uni0436" unicode="&#x0436;" d="M121 0L8 0L196 269L12 503L110 503L276 294L312 285L312 503L408 503L408 285L442 294L608 503L702 503L522 273L712 0L595 0L441 219L408 210L408 0L312 0L312 210L276 220L121 0Z"  horiz-adv-x="720" vert-adv-y="1000"  />

      
      <glyph glyph-name="uni0437" unicode="&#x0437;" d="M195-10Q158-10 115-2Q72 6 39 25L39 113Q77 90 116.50 79Q156 68 196 68Q250 68 274.50 89Q299 110 299 146Q299 168 290 182Q281 196 266 204Q251 212 231.50 215.50Q212 219 190 219L113 219L113 296L190 296Q238 296 259.50 316Q281 336 281 368Q281 435 182 435Q144 435 112 426Q80 417 49 398L49 484Q79 498 117 505.50Q155 513 191 513Q243 513 279 502.50Q315 492 337.50 474Q360 456 369.50 432.50Q379 409 379 384Q379 345 356 314.50Q333 284 275 270L275 263Q341 251 369 218Q397 185 397 140Q397 111 388 84Q379 57 356 36Q333 15 294 2.50Q255-10 195-10Z"  horiz-adv-x="439" vert-adv-y="1000"  />

      
      <glyph glyph-name="uni0438" unicode="&#x0438;" d="M71 503L167 503L167 158L174 158L393 503L478 503L478 0L382 0L382 346L374 346L155 0L71 0L71 503Z"  horiz-adv-x="548" vert-adv-y="1000"  />

      
      <glyph glyph-name="uni0439" unicode="&#x0439;" d="M71 503L167 503L167 158L174 158L393 503L478 503L478 0L382 0L382 346L374 346L155 0L71 0L71 503M275 571Q242 571 213 580Q184 589 162.50 607.50Q141 626 129 654.50Q117 683 117 723L202 723Q202 691 217.50 668Q233 645 275 645Q316 645 332 668Q348 691 348 723L433 723Q433 683 421 654Q409 625 387.50 606.50Q366 588 337 579.50Q308 571 275 571Z"  horiz-adv-x="548" vert-adv-y="1000"  />

      
      <glyph glyph-name="uni043A" unicode="&#x043A;" d="M167 0L71 0L71 503L167 503L167 286L208 295L367 503L462 503L288 274L479 0L362 0L208 219L167 208L167 0Z"  horiz-adv-x="487" vert-adv-y="1000"  />

      
      <glyph glyph-name="uni043B" unicode="&#x043B;" d="M54-7Q46-7 40-6.50Q34-6 29-5Q24-4 19-3L19 87Q22 86 26 85Q29 84 33 84Q37 84 41 84Q72 84 90.50 116.50Q109 149 119 206Q129 263 131.50 339.50Q134 416 134 503L462 503L462 0L366 0L366 420L216 420Q216 337 210.50 260Q205 183 187.50 123.50Q170 64 138.50 28.50Q107-7 54-7Z"  horiz-adv-x="532" vert-adv-y="1000"  />

      
      <glyph glyph-name="uni043C" unicode="&#x043C;" d="M71 503L207 503L349 121L353 121L496 503L630 503L630 0L534 0L534 390L526 390L381 0L305 0L161 390L153 390L153 0L71 0L71 503Z"  horiz-adv-x="704" vert-adv-y="1000"  />

      
      <glyph glyph-name="uni043D" unicode="&#x043D;" d="M382 218L167 218L167 0L71 0L71 503L167 503L167 301L382 301L382 503L478 503L478 0L382 0L382 218Z"  horiz-adv-x="548" vert-adv-y="1000"  />

      
      <glyph glyph-name="uni043E" unicode="&#x043E;" d="M272-10Q221-10 178 7.50Q135 25 103.50 58Q72 91 54.50 139.50Q37 188 37 250Q37 312 54.50 361Q72 410 103.50 443.50Q135 477 178 495Q221 513 272 513Q321 513 364 495.50Q407 478 439 444Q471 410 489 361.50Q507 313 507 251Q507 189 489 140.50Q471 92 439.50 58.50Q408 25 365 7.50Q322-10 272-10M272 74Q299 74 323.50 84Q348 94 366.50 116Q385 138 395.50 171Q406 204 406 251Q406 297 395 331Q384 365 365.50 386.50Q347 408 323 418.50Q299 429 272 429Q244 429 219.50 418.50Q195 408 177 386.50Q159 365 148.50 331Q138 297 138 250Q138 203 148.50 170Q159 137 177 115.50Q195 94 219.50 84Q244 74 272 74Z"  horiz-adv-x="544" vert-adv-y="1000"  />

      
      <glyph glyph-name="uni043F" unicode="&#x043F;" d="M372 420L167 420L167 0L71 0L71 503L468 503L468 0L372 0L372 420Z"  horiz-adv-x="538" vert-adv-y="1000"  />

      
      <glyph glyph-name="uni0440" unicode="&#x0440;" d="M300 74Q327 74 352 84Q377 94 396 116Q415 138 426 171.50Q437 205 437 253Q437 299 426 332.50Q415 366 396 387.50Q377 409 352 419Q327 429 299 429Q241 429 204 395Q167 361 167 292L167 222Q167 185 177.50 157.50Q188 130 206 111.50Q224 93 248.50 83.50Q273 74 300 74M71 503L162 503L162 432L169 432Q190 467 228.50 490Q267 513 328 513Q374 513 412.50 494.50Q451 476 479 442.50Q507 409 522.50 361Q538 313 538 253Q538 191 522.50 142Q507 93 479 59Q451 25 412 7.50Q373-10 327-10Q272-10 232.50 11.50Q193 33 169 70L162 70L167-10L167-250L71-250L71 503Z"  horiz-adv-x="575" vert-adv-y="1000"  />

      
      <glyph glyph-name="uni0441" unicode="&#x0441;" d="M282-10Q165-10 101 57.50Q37 125 37 250Q37 312 55.50 361Q74 410 106 443.50Q138 477 182.50 495Q227 513 279 513Q323 513 352.50 506.50Q382 500 405 488L405 395Q379 414 347 420.50Q315 427 288 427Q256 427 228.50 416.50Q201 406 181 384Q161 362 149.50 328.50Q138 295 138 250Q138 204 149.50 171Q161 138 181 117Q201 96 229.50 86Q258 76 293 76Q370 76 412 112L412 17Q396 8 364.50-1Q333-10 282-10Z"  horiz-adv-x="447" vert-adv-y="1000"  />

      
      <glyph glyph-name="uni0442" unicode="&#x0442;" d="M158 420L10 420L10 503L402 503L402 420L254 420L254 0L158 0L158 420Z"  horiz-adv-x="412" vert-adv-y="1000"  />

      
      <glyph glyph-name="uni0443" unicode="&#x0443;" d="M114-250L202-6L2 503L104 503L245 133L254 133L385 503L476 503L205-250L114-250Z"  horiz-adv-x="478" vert-adv-y="1000"  />

      
      <glyph glyph-name="uni0444" unicode="&#x0444;" d="M294-250L294-9Q231-8 182 11.50Q133 31 100 65Q67 99 49.50 146Q32 193 32 250Q32 307 49.50 355.50Q67 404 100.50 438.50Q134 473 182.50 492.50Q231 512 294 512L294 750L390 750L390 512Q453 510 502 491Q551 472 584 438Q617 404 634.50 357Q652 310 652 254Q652 196 634.50 148Q617 100 583.50 65Q550 30 501.50 10.50Q453-9 390-9L390-250L294-250M294 435Q215 434 174 384.50Q133 335 133 250Q133 165 174.50 117.50Q216 70 294 68L294 435M390 68Q469 69 510 119Q551 169 551 254Q551 339 509.50 386Q468 433 390 435L390 68Z"  horiz-adv-x="684" vert-adv-y="1000"  />

      
      <glyph glyph-name="uni0445" unicode="&#x0445;" d="M247 187L126 0L31 0L198 251L27 503L140 503L258 322L375 503L470 503L307 258L483 0L369 0L247 187Z"  horiz-adv-x="502" vert-adv-y="1000"  />

      
      <glyph glyph-name="uni0446" unicode="&#x0446;" d="M71 0L71 503L167 503L167 83L369 83L369 503L465 503L465 83L550 83L550-135L469-135L459 0L71 0Z"  horiz-adv-x="572" vert-adv-y="1000"  />

      
      <glyph glyph-name="uni0447" unicode="&#x0447;" d="M339 199Q319 191 294.50 186Q270 181 229 181Q135 181 89.50 226.50Q44 272 44 368L44 503L140 503L140 369Q140 315 166 290Q192 265 249 265Q269 265 294 268.50Q319 272 339 282L339 503L435 503L435 0L339 0L339 199Z"  horiz-adv-x="505" vert-adv-y="1000"  />

      
      <glyph glyph-name="uni0448" unicode="&#x0448;" d="M71 0L71 503L167 503L167 83L334 83L334 503L430 503L430 83L597 83L597 503L693 503L693 0L71 0Z"  horiz-adv-x="764" vert-adv-y="1000"  />

      
      <glyph glyph-name="uni0449" unicode="&#x0449;" d="M697-135L687 0L71 0L71 503L167 503L167 83L334 83L334 503L430 503L430 83L597 83L597 503L693 503L693 83L778 83L778-135L697-135Z"  horiz-adv-x="801" vert-adv-y="1000"  />

      
      <glyph glyph-name="uni044A" unicode="&#x044A;" d="M121 0L121 420L8 420L8 503L217 503L217 335L284 335Q347 335 389 321Q431 307 456.50 284Q482 261 492.50 231Q503 201 503 170Q503 138 492.50 107.50Q482 77 456.50 53Q431 29 389 14.50Q347 0 284 0L121 0M293 78Q348 78 375 102.50Q402 127 402 169Q402 209 375 232.50Q348 256 293 256L217 256L217 78L293 78Z"  horiz-adv-x="521" vert-adv-y="1000"  />

      
      <glyph glyph-name="uni044B" unicode="&#x044B;" d="M71 503L167 503L167 335L234 335Q297 335 339 321Q381 307 406.50 284Q432 261 442.50 231Q453 201 453 170Q453 138 442.50 107.50Q432 77 406.50 53Q381 29 339 14.50Q297 0 234 0L71 0L71 503M243 78Q298 78 325 102.50Q352 127 352 169Q352 209 325 232.50Q298 256 243 256L167 256L167 78L243 78M514 503L610 503L610 0L514 0L514 503Z"  horiz-adv-x="680" vert-adv-y="1000"  />

      
      <glyph glyph-name="uni044C" unicode="&#x044C;" d="M71 503L167 503L167 335L234 335Q297 335 339 321Q381 307 406.50 284Q432 261 442.50 231Q453 201 453 170Q453 138 442.50 107.50Q432 77 406.50 53Q381 29 339 14.50Q297 0 234 0L71 0L71 503M243 78Q298 78 325 102.50Q352 127 352 169Q352 209 325 232.50Q298 256 243 256L167 256L167 78L243 78Z"  horiz-adv-x="471" vert-adv-y="1000"  />

      
      <glyph glyph-name="uni044D" unicode="&#x044D;" d="M167-10Q114-10 83-1Q52 8 35 19L35 112Q55 94 86.50 83.50Q118 73 160 73Q226 73 263 108.50Q300 144 308 222L124 222L124 295L308 295Q300 364 261 397Q222 430 161 430Q134 430 101 423Q68 416 40 396L40 487Q60 498 91.50 505.50Q123 513 171 513Q224 513 268 496Q312 479 344 446.50Q376 414 393.50 367Q411 320 411 261Q411 134 350 62Q289-10 167-10Z"  horiz-adv-x="448" vert-adv-y="1000"  />

      
      <glyph glyph-name="uni044E" unicode="&#x044E;" d="M471-10Q426-10 386.50 5Q347 20 317.50 49Q288 78 269 120.50Q250 163 246 218L167 218L167 0L71 0L71 503L167 503L167 301L248 301Q262 402 322.50 457.50Q383 513 471 513Q519 513 560.50 495.50Q602 478 632.50 444Q663 410 680.50 361.50Q698 313 698 251Q698 189 680.50 140.50Q663 92 632.50 58.50Q602 25 560.50 7.50Q519-10 471-10M471 74Q497 74 520 84Q543 94 560 116Q577 138 587 171Q597 204 597 251Q597 297 586.50 331Q576 365 559 386.50Q542 408 519 418.50Q496 429 471 429Q445 429 422 418.50Q399 408 382 386.50Q365 365 355.50 331Q346 297 346 250Q346 203 355.50 170Q365 137 382 115.50Q399 94 422 84Q445 74 471 74Z"  horiz-adv-x="734" vert-adv-y="1000"  />

      
      <glyph glyph-name="uni044F" unicode="&#x044F;" d="M336 253L336 425L268 425Q212 425 183 401Q154 377 154 339Q154 299 183 276Q212 253 268 253L336 253M276 179L143 0L32 0L177 197Q117 211 85 249Q53 287 53 342Q53 371 63.50 399.50Q74 428 98 451Q122 474 160.50 488.50Q199 503 254 503L432 503L432 0L336 0L336 179L276 179Z"  horiz-adv-x="503" vert-adv-y="1000"  />

      
      <glyph glyph-name="uni30" unicode="&#x30;" d="M291-10Q166-10 104 83.50Q42 177 42 373Q42 569 104.50 664.50Q167 760 291 760Q415 760 478 665Q541 570 541 374Q541 178 478.50 84Q416-10 291-10M291 81Q331 81 359 102Q387 123 403.50 161.50Q420 200 427.50 254Q435 308 435 374Q435 440 427.50 494Q420 548 403.50 587Q387 626 359 647.50Q331 669 291 669Q250 669 223 647.50Q196 626 179 587Q162 548 155 493.50Q148 439 148 373Q148 307 155 253.50Q162 200 179 161.50Q196 123 223 102Q250 81 291 81Z"  horiz-adv-x="583" vert-adv-y="1000"  />

      
      <glyph glyph-name="uni31" unicode="&#x31;" d="M163 644L17 583L17 675L213 757L264 757L264 0L163 0L163 644Z"  horiz-adv-x="350" vert-adv-y="1000"  />

      
      <glyph glyph-name="uni32" unicode="&#x32;" d="M33 0L33 81L248 351Q293 408 318 458Q343 508 343 559Q343 672 230 672Q188 672 146 659.50Q104 647 62 612L62 708Q78 721 100 731Q122 741 147 747.50Q172 754 198 757Q224 760 248 760Q350 760 399.50 709Q449 658 449 566Q449 530 440 498Q431 466 414.50 434.50Q398 403 375 370.50Q352 338 323 302L153 91L477 91L477 0L33 0Z"  horiz-adv-x="501" vert-adv-y="1000"  />

      
      <glyph glyph-name="uni33" unicode="&#x33;" d="M210-10Q162-10 116.50-0.50Q71 9 36 27L36 123Q76 100 114 89Q152 78 205 78Q274 78 313 116Q352 154 352 222Q352 286 315.50 322.50Q279 359 210 359Q196 359 174 357.50Q152 356 130 350L130 437Q183 443 220 455Q257 467 280.50 485Q304 503 315 525Q326 547 326 572Q326 619 298 645.50Q270 672 219 672Q170 672 127 657.50Q84 643 52 609L52 705Q83 733 132 746.50Q181 760 229 760Q283 760 321 746.50Q359 733 383.50 710.50Q408 688 419.50 658Q431 628 431 594Q431 556 418.50 526.50Q406 497 385.50 475.50Q365 454 338.50 440Q312 426 284 419L284 414Q369 404 413.50 352.50Q458 301 458 223Q458 176 445.50 134Q433 92 403.50 60Q374 28 326.50 9Q279-10 210-10Z"  horiz-adv-x="497" vert-adv-y="1000"  />

      
      <glyph glyph-name="uni34" unicode="&#x34;" d="M427 184L427-10L326-10L326 184L8 184L8 251L332 757L427 757L427 265L521 265L521 184L427 184M109 265L326 265L326 592L320 592L109 265Z"  horiz-adv-x="544" vert-adv-y="1000"  />

      
      <glyph glyph-name="uni35" unicode="&#x35;" d="M206-10Q163-10 113-1Q63 8 28 27L28 123Q68 100 112 89Q156 78 198 78Q284 78 324 119.50Q364 161 364 235Q364 307 316 343.50Q268 380 183 380Q161 380 140 378Q119 376 102 374Q83 371 65 368L92 750L438 750L438 659L178 659L163 464Q176 465 189.50 465.50Q203 466 214 466Q276 466 323.50 449.50Q371 433 403.50 403Q436 373 453 330Q470 287 470 235Q470 185 454.50 141Q439 97 406.50 63Q374 29 324 9.50Q274-10 206-10Z"  horiz-adv-x="504" vert-adv-y="1000"  />

      
      <glyph glyph-name="uni36" unicode="&#x36;" d="M291-10Q234-10 188 8Q142 26 110.50 65Q79 104 62 165.50Q45 227 45 314Q45 438 68 523Q91 608 134 660.50Q177 713 237 736.50Q297 760 371 760Q406 760 437 755.50Q468 751 495 740L495 649Q470 661 440 666.50Q410 672 383 672Q151 672 142 406L152 406Q171 440 210.50 466.50Q250 493 316 493Q368 493 409 475Q450 457 478.50 424Q507 391 522.50 345Q538 299 538 243Q538 186 521 139Q504 92 472.50 59Q441 26 395 8Q349-10 291-10M292 75Q353 75 392.50 118.50Q432 162 432 243Q432 283 421 314Q410 345 391.50 366Q373 387 347.50 398Q322 409 292 409Q228 409 189.50 365.50Q151 322 151 242Q150 162 188 118.50Q226 75 292 75Z"  horiz-adv-x="583" vert-adv-y="1000"  />

      
      <glyph glyph-name="uni37" unicode="&#x37;" d="M109 0Q110 27 115 56.50Q120 86 130.50 122.50Q141 159 158 204.50Q175 250 202 309L360 659L28 659L28 750L468 750L468 679L295 296Q268 238 252 193.50Q236 149 227 114Q218 79 214.50 51.50Q211 24 210 0L109 0Z"  horiz-adv-x="472" vert-adv-y="1000"  />

      
      <glyph glyph-name="uni38" unicode="&#x38;" d="M290-10Q231-10 184.50 5Q138 20 105.50 48.50Q73 77 56 117.50Q39 158 39 209Q39 276 75 327Q111 378 181 401L181 409Q152 418 130.50 434.50Q109 451 95.50 472Q82 493 75.50 518Q69 543 69 569Q69 609 83.50 644Q98 679 126 704.50Q154 730 195 745Q236 760 290 760Q344 760 385 745Q426 730 454 704.50Q482 679 496 644.50Q510 610 510 570Q510 517 483 472Q456 427 398 409L398 401Q468 378 504 327.50Q540 277 540 210Q540 107 475 48.50Q410-10 290-10M290 442Q342 442 373 470.50Q404 499 404 558Q404 615 373 647Q342 679 290 679Q236 679 205.50 647Q175 615 175 558Q175 499 206 470.50Q237 442 290 442M290 71Q359 71 396.50 110Q434 149 434 214Q434 283 396.50 321Q359 359 290 359Q221 359 183 321Q145 283 145 214Q145 149 183 110Q221 71 290 71Z"  horiz-adv-x="579" vert-adv-y="1000"  />

      
      <glyph glyph-name="uni39" unicode="&#x39;" d="M292 675Q227 675 189 631.50Q151 588 151 507Q151 427 190 384Q229 341 292 341Q359 341 395.50 384.50Q432 428 433 508Q433 589 397 632Q361 675 292 675M255 78Q309 78 344 98Q379 118 400 154Q421 190 430.50 239.50Q440 289 443 348L433 348Q410 303 372.50 280Q335 257 273 257Q164 257 104.50 324Q45 391 45 507Q45 564 62 611Q79 658 111.50 691Q144 724 189.50 742Q235 760 292 760Q353 760 399 741Q445 722 476 680.50Q507 639 522.50 574Q538 509 538 417Q538 288 518 205Q498 122 460.50 74Q423 26 369.50 8Q316-10 249-10Q235-10 215-8.50Q195-7 173.50-3.50Q152 0 129 6Q106 12 86 22L86 121Q128 96 170 87Q212 78 255 78Z"  horiz-adv-x="583" vert-adv-y="1000"  />

      
      <glyph glyph-name="uni5f" unicode="&#x5f;" d="M0-40L510-40L510-114L0-114L0-40Z"  horiz-adv-x="510" vert-adv-y="1000"  />

      
      <glyph glyph-name="uni2d" unicode="&#x2d;" d="M43 325L337 325L337 252L43 252L43 325Z"  horiz-adv-x="380" vert-adv-y="1000"  />

      
      <glyph glyph-name="uni2013" unicode="&#x2013;" d="M43 325L597 325L597 252L43 252L43 325Z"  horiz-adv-x="640" vert-adv-y="1000"  />

      
      <glyph glyph-name="uni2014" unicode="&#x2014;" d="M43 325L797 325L797 252L43 252L43 325Z"  horiz-adv-x="840" vert-adv-y="1000"  />

      
      <glyph glyph-name="uni28" unicode="&#x28;" d="M141 303Q141 196 159 115.50Q177 35 205.50-22Q234-79 270-113.50Q306-148 342-162L342-239Q294-226 240.50-188.50Q187-151 142.50-85Q98-19 69 77Q40 173 40 303Q40 433 69 529.50Q98 626 142.50 692.50Q187 759 240.50 797Q294 835 342 848L342 771Q306 757 270 722.50Q234 688 205.50 630Q177 572 159 491Q141 410 141 303Z"  horiz-adv-x="352" vert-adv-y="1000"  />

      
      <glyph glyph-name="uni29" unicode="&#x29;" d="M211 305Q211 411 193 492Q175 573 146.50 630.50Q118 688 82 722.50Q46 757 10 771L10 848Q58 835 111.50 797.50Q165 760 209.50 693.50Q254 627 283 531Q312 435 312 305Q312 174 283 77.50Q254-19 209.50-85Q165-151 111.50-188.50Q58-226 10-239L10-162Q46-148 82-113.50Q118-79 146.50-22Q175 35 193 116.50Q211 198 211 305Z"  horiz-adv-x="352" vert-adv-y="1000"  />

      
      <glyph glyph-name="uni5b" unicode="&#x5b;" d="M80-230L80 845L311 845L311 768L181 768L181-153L311-153L311-230L80-230Z"  horiz-adv-x="321" vert-adv-y="1000"  />

      
      <glyph glyph-name="uni5d" unicode="&#x5d;" d="M10-153L140-153L140 768L10 768L10 845L241 845L241-230L10-230L10-153Z"  horiz-adv-x="321" vert-adv-y="1000"  />

      
      <glyph glyph-name="uni7b" unicode="&#x7b;" d="M371-240Q303-240 257-229Q211-218 183-189Q155-160 143-109.50Q131-59 131 20L131 161Q131 176 127.50 194Q124 212 114.50 228.50Q105 245 87 257Q69 269 40 272L40 348Q69 354 86.50 364Q104 374 114 389Q124 404 127 424.50Q130 445 130 472L130 636Q130 699 142 739.50Q154 780 182 803.50Q210 827 256 836Q302 845 371 845L371 768Q319 768 291 761.50Q263 755 249.50 736.50Q236 718 233.50 684.50Q231 651 231 598L231 457Q231 431 229 407.50Q227 384 219.50 365Q212 346 196 332.50Q180 319 152 313L152 308Q180 302 196 288Q212 274 220 256.50Q228 239 230 218.50Q232 198 232 178L232 68Q232 4 234.50-40Q237-84 250-111.50Q263-139 291-151Q319-163 371-163L371-240L371-240Z"  horiz-adv-x="381" vert-adv-y="1000"  />

      
      <glyph glyph-name="uni7d" unicode="&#x7d;" d="M10-163Q62-163 90-151Q118-139 131-111.50Q144-84 146.50-40Q149 4 149 68L149 178Q149 198 151.50 218.50Q154 239 162 257Q170 275 186 288.50Q202 302 229 308L229 313Q202 319 186 332.50Q170 346 162 365Q154 384 152 407.50Q150 431 150 457L150 598Q150 651 147.50 684.50Q145 718 131.50 736.50Q118 755 90 761.50Q62 768 10 768L10 845Q79 845 125 836Q171 827 199 803.50Q227 780 239 739.50Q251 699 251 636L251 472Q251 445 254 424.50Q257 404 267 389Q277 374 294.50 364Q312 354 341 348L341 272Q312 269 294 257Q276 245 266 228.50Q256 212 253 194Q250 176 250 161L250 20Q250-59 238-109.50Q226-160 198-189Q170-218 124-229Q78-240 10-240L10-163Z"  horiz-adv-x="381" vert-adv-y="1000"  />

      
      <glyph glyph-name="uni23" unicode="&#x23;" d="M452 434L304 434L266 293L414 293L452 434M392 209L244 209L188 0L93 0L149 209L33 209L54 293L171 293L209 434L92 434L113 518L231 518L293 750L388 750L326 518L474 518L536 750L630 750L568 518L686 518L665 434L546 434L508 293L628 293L607 209L486 209L430 0L336 0L392 209Z"  horiz-adv-x="722" vert-adv-y="1000"  />

      
      <glyph glyph-name="uni25" unicode="&#x25;" d="M221 402Q183 402 150 413.50Q117 425 93 447.50Q69 470 55 503Q41 536 41 578Q41 620 55 653Q69 686 93 709.50Q117 733 150 745Q183 757 221 757Q258 757 291 745Q324 733 348.50 710Q373 687 387 654Q401 621 401 579Q401 537 387 504Q373 471 348.50 448.50Q324 426 291 414Q258 402 221 402M221 478Q257 478 282.50 502Q308 526 308 579Q308 631 282 655.50Q256 680 221 680Q185 680 159.50 655Q134 630 134 578Q134 527 159.50 502.50Q185 478 221 478M611 750L716 750L240 0L136 0L611 750M638-9Q600-9 567 3Q534 15 510 37.50Q486 60 472 93Q458 126 458 167Q458 209 472 242Q486 275 510 298.50Q534 322 567 334Q600 346 638 346Q676 346 709 334Q742 322 766 299Q790 276 804 243Q818 210 818 168Q818 127 804 93.50Q790 60 766 37.50Q742 15 709 3Q676-9 638-9M638 68Q673 68 699 92Q725 116 725 168Q725 220 699 244.50Q673 269 638 269Q602 269 576.50 244Q551 219 551 167Q551 117 576.50 92.50Q602 68 638 68Z"  horiz-adv-x="859" vert-adv-y="1000"  />

      
      <glyph glyph-name="uni27" unicode="&#x27;" d="M179 750L169 514L79 514L70 750L179 750Z"  horiz-adv-x="249" vert-adv-y="1000"  />

      
      <glyph glyph-name="uni22" unicode="&#x22;" d="M337 750L327 514L237 514L228 750L337 750M179 750L169 514L79 514L70 750L179 750Z"  horiz-adv-x="407" vert-adv-y="1000"  />

      
      <glyph glyph-name="uni2018" unicode="&#x2018;" d="M180.01 759.98L141.01 636.00Q167.01 632.00 181.01 614.00Q195.01 596.00 195.01 570.01Q195.01 542.01 175.51 522.51Q156.01 503.02 127.02 503.02Q106.02 503.02 91.02 512.01Q76.02 521.01 68.52 536.51Q61.02 552.01 60.52 572.01Q60.02 592.00 68.02 614.00L120.02 759.98L180.01 759.98Z"  horiz-adv-x="255" vert-adv-y="1000"  />

      
      <glyph glyph-name="uni2019" unicode="&#x2019;" d="M75 503L114 627Q88 631 74 649Q60 667 60 693Q60 721 79.50 740.50Q99 760 128 760Q149 760 164 751Q179 742 186.50 726.50Q194 711 194.50 691Q195 671 187 649L135 503L75 503Z"  horiz-adv-x="255" vert-adv-y="1000"  />

      
      <glyph glyph-name="uni201C" unicode="&#x201C;" d="M354.01 759.98L315.01 636.00Q341.01 632.00 355.01 614.00Q369.01 596.00 369.01 570.01Q369.01 542.01 349.51 522.51Q330.01 503.02 301.02 503.02Q280.02 503.02 265.02 512.01Q250.02 521.01 242.52 536.51Q235.02 552.01 234.52 572.01Q234.02 592.00 242.02 614.00L294.02 759.98L354.01 759.98M180.01 759.98L141.01 636.00Q167.01 632.00 181.01 614.00Q195.01 596.00 195.01 570.01Q195.01 542.01 175.51 522.51Q156.01 503.02 127.02 503.02Q106.02 503.02 91.02 512.01Q76.02 521.01 68.52 536.51Q61.02 552.01 60.52 572.01Q60.02 592.00 68.02 614.00L120.02 759.98L180.01 759.98Z"  horiz-adv-x="429" vert-adv-y="1000"  />

      
      <glyph glyph-name="uni201D" unicode="&#x201D;" d="M75 503L114 627Q88 631 74 649Q60 667 60 693Q60 721 79.50 740.50Q99 760 128 760Q149 760 164 751Q179 742 186.50 726.50Q194 711 194.50 691Q195 671 187 649L135 503L75 503M250 503L289 627Q263 631 249 649Q235 667 235 693Q235 721 254.50 740.50Q274 760 303 760Q324 760 339 751Q354 742 361.50 726.50Q369 711 369.50 691Q370 671 362 649L310 503L250 503Z"  horiz-adv-x="429" vert-adv-y="1000"  />

      
      <glyph glyph-name="uni201A" unicode="&#x201A;" d="M75-134L114-10Q88-6 74 12Q60 30 60 56Q60 84 79.50 103.50Q99 123 128 123Q149 123 164 114Q179 105 186.50 89.50Q194 74 194.50 54Q195 34 187 12L135-134L75-134Z"  horiz-adv-x="255" vert-adv-y="1000"  />

      
      <glyph glyph-name="uni201E" unicode="&#x201E;" d="M250-134L289-10Q263-6 249 12Q235 30 235 56Q235 84 254.50 103.50Q274 123 303 123Q324 123 339 114Q354 105 361.50 89.50Q369 74 369.50 54Q370 34 362 12L310-134L250-134M75-134L114-10Q88-6 74 12Q60 30 60 56Q60 84 79.50 103.50Q99 123 128 123Q149 123 164 114Q179 105 186.50 89.50Q194 74 194.50 54Q195 34 187 12L135-134L75-134Z"  horiz-adv-x="429" vert-adv-y="1000"  />

      
      <glyph glyph-name="uni2039" unicode="&#x2039;" d="M16 244L16 298L231 490L231 384L103 271L232 159L232 52L16 244Z"  horiz-adv-x="268" vert-adv-y="1000"  />

      
      <glyph glyph-name="uni203A" unicode="&#x203A;" d="M37 158L166 270L36 383L36 490L252 298L252 244L37 52L37 158Z"  horiz-adv-x="268" vert-adv-y="1000"  />

      
      <glyph glyph-name="uniab" unicode="&#xab;" d="M23 243L23 293L214 496L214 391L103 271L215 154L215 40L23 243M209 243L209 293L398 494L398 389L287 269L399 150L399 42L209 243Z"  horiz-adv-x="442" vert-adv-y="1000"  />

      
      <glyph glyph-name="unibb" unicode="&#xbb;" d="M228 144L340 265L227 382L227 496L419 293L419 243L228 40L228 144M44 147L155 267L43 386L43 494L233 293L233 243L44 41L44 147Z"  horiz-adv-x="442" vert-adv-y="1000"  />

      
      <glyph glyph-name="uni2a" unicode="&#x2a;" d="M348 461L249 532L265 403L169 403L187 532L83 461L43 535L164 583L45 629L86 701L187 631L170 760L265 760L249 630L348 701L387 629L269 582L388 535L348 461Z"  horiz-adv-x="431" vert-adv-y="1000"  />

      
      <glyph glyph-name="uni2e" unicode="&#x2e;" d="M128-12Q99-12 79.50 7.50Q60 27 60 56Q60 84 79.50 103.50Q99 123 128 123Q155 123 175 103.50Q195 84 195 56Q195 27 175 7.50Q155-12 128-12Z"  horiz-adv-x="255" vert-adv-y="1000"  />

      
      <glyph glyph-name="uni2c" unicode="&#x2c;" d="M75-134L114-10Q88-6 74 12Q60 30 60 56Q60 84 79.50 103.50Q99 123 128 123Q149 123 164 114Q179 105 186.50 89.50Q194 74 194.50 54Q195 34 187 12L135-134L75-134Z"  horiz-adv-x="255" vert-adv-y="1000"  />

      
      <glyph glyph-name="uni3a" unicode="&#x3a;" d="M128 324Q99 324 79.50 343.50Q60 363 60 392Q60 420 79.50 439.50Q99 459 128 459Q155 459 175 439.50Q195 420 195 392Q195 363 175 343.50Q155 324 128 324M128-12Q99-12 79.50 7.50Q60 27 60 56Q60 84 79.50 103.50Q99 123 128 123Q155 123 175 103.50Q195 84 195 56Q195 27 175 7.50Q155-12 128-12Z"  horiz-adv-x="255" vert-adv-y="1000"  />

      
      <glyph glyph-name="uni3b" unicode="&#x3b;" d="M128 324Q99 324 79.50 343.50Q60 363 60 392Q60 420 79.50 439.50Q99 459 128 459Q155 459 175 439.50Q195 420 195 392Q195 363 175 343.50Q155 324 128 324M75-134L114-10Q88-6 74 12Q60 30 60 56Q60 84 79.50 103.50Q99 123 128 123Q149 123 164 114Q179 105 186.50 89.50Q194 74 194.50 54Q195 34 187 12L135-134L75-134Z"  horiz-adv-x="257" vert-adv-y="1000"  />

      
      <glyph glyph-name="uni2026" unicode="&#x2026;" d="M515-12Q486-12 466.50 7.50Q447 27 447 56Q447 84 466.50 103.50Q486 123 515 123Q542 123 562 103.50Q582 84 582 56Q582 27 562 7.50Q542-12 515-12M322-12Q293-12 273.50 7.50Q254 27 254 56Q254 84 273.50 103.50Q293 123 322 123Q349 123 369 103.50Q389 84 389 56Q389 27 369 7.50Q349-12 322-12M128-12Q99-12 79.50 7.50Q60 27 60 56Q60 84 79.50 103.50Q99 123 128 123Q155 123 175 103.50Q195 84 195 56Q195 27 175 7.50Q155-12 128-12Z"  horiz-adv-x="643" vert-adv-y="1000"  />

      
      <glyph glyph-name="uni21" unicode="&#x21;" d="M192 750L168 220L94 220L71 750L192 750M133-12Q104-12 84.50 7.50Q65 27 65 56Q65 84 84.50 103.50Q104 123 133 123Q160 123 180 103.50Q200 84 200 56Q200 27 180 7.50Q160-12 133-12Z"  horiz-adv-x="265" vert-adv-y="1000"  />

      
      <glyph glyph-name="uni3f" unicode="&#x3f;" d="M225 671Q177 671 136.50 658Q96 645 56 611L56 708Q72 721 93.50 731Q115 741 139 747.50Q163 754 188.50 757Q214 760 239 760Q340 760 391 716.50Q442 673 442 592Q442 547 426.50 514Q411 481 387.50 456Q364 431 336.50 412.50Q309 394 285.50 377.50Q262 361 246.50 345Q231 329 231 310Q231 287 249.50 274Q268 261 305 262L305 190Q267 190 235 196Q203 202 180 215Q157 228 143.50 249Q130 270 130 301Q130 334 145.50 359Q161 384 183.50 404Q206 424 233 441.50Q260 459 282.50 478Q305 497 320.50 520Q336 543 336 574Q336 671 225 671M228-12Q199-12 179.50 7.50Q160 27 160 56Q160 84 179.50 103.50Q199 123 228 123Q255 123 275 103.50Q295 84 295 56Q295 27 275 7.50Q255-12 228-12Z"  horiz-adv-x="481" vert-adv-y="1000"  />

      
      <glyph glyph-name="uni2f" unicode="&#x2f;" d="M360 825L451 825L111-240L20-240L360 825Z"  horiz-adv-x="471" vert-adv-y="1000"  />

      
      <glyph glyph-name="uni5c" unicode="&#x5c;" d="M360-240L20 825L113 825L453-240L360-240Z"  horiz-adv-x="473" vert-adv-y="1000"  />

      
      <glyph glyph-name="uni7c" unicode="&#x7c;" d="M100 822L191 822L191-240L100-240L100 822Z"  horiz-adv-x="291" vert-adv-y="1000"  />

      
      <glyph glyph-name="uni40" unicode="&#x40;" d="M692-185Q676-194 654.50-201.50Q633-209 608.50-214.50Q584-220 558-222.50Q532-225 508-225Q464-225 413-219.50Q362-214 310.50-197Q259-180 211-149Q163-118 126-67.50Q89-17 67 56Q45 129 45 231Q45 362 84.50 453Q124 544 189.50 600.50Q255 657 338 682.50Q421 708 508 708Q601 708 681 683Q761 658 819.50 605Q878 552 911.50 469Q945 386 945 269Q945 139 894.50 64.50Q844-10 749-10Q711-10 686-2.50Q661 5 645 17.50Q629 30 620 45.50Q611 61 604 76L597 76Q574 37 541.50 13.50Q509-10 451-10Q357-10 309.50 48.50Q262 107 262 231Q262 350 314 411.50Q366 473 457 473Q512 473 545.50 451.50Q579 430 594 392L601 392L601 463L692 463L692 173Q692 141 697.50 122Q703 103 712 92Q721 81 733 77.50Q745 74 758 74Q785 74 802 90Q819 106 828 132Q837 158 840.50 191Q844 224 844 259Q844 365 815 434.50Q786 504 738.50 544.50Q691 585 631 601Q571 617 508 617Q447 617 382.50 600Q318 583 265.50 539.50Q213 496 179.50 421Q146 346 146 231Q146 144 166 83Q186 22 218.50-18.50Q251-59 291-82Q331-105 371.50-116.50Q412-128 448-131Q484-134 508-134Q529-134 553.50-131.50Q578-129 603-124Q628-119 651.50-111.50Q675-104 692-93L692-185M487 76Q535 76 565.50 106.50Q596 137 596 213L596 264Q596 319 569.50 353Q543 387 488 387Q429 387 396 349.50Q363 312 363 231Q363 150 395.50 113Q428 76 487 76Z"  horiz-adv-x="990" vert-adv-y="1000"  />

      
      <glyph glyph-name="uni26" unicode="&#x26;" d="M609-10Q584 9 559 29Q534 49 509 70Q469 32 415 11Q361-10 290-10Q177-10 111 39.50Q45 89 45 183Q45 219 56 248.50Q67 278 86 302Q105 326 130 346Q155 366 183 384Q148 428 125.50 473Q103 518 103 575Q103 614 114.50 648Q126 682 149.50 706.50Q173 731 209.50 745.50Q246 760 296 760Q346 760 382 747Q418 734 441 712Q464 690 474.50 660.50Q485 631 485 597Q485 561 473.50 532Q462 503 440.50 476.50Q419 450 388.50 425.50Q358 401 319 376L332 362Q410 279 499 201Q515 234 525 274Q535 314 537 362L625 362Q620 299 606 244Q592 189 566 144Q589 124 613 105Q637 86 662 66L609-10M204 580Q204 541 221 506Q238 471 267 436Q326 477 355 512Q384 547 384 593Q384 635 358 657Q332 679 295 679Q257 679 230.50 655.50Q204 632 204 580M296 72Q383 72 443 126Q388 174 336.50 223Q285 272 240 320L236 324Q198 299 173 268Q148 237 148 191Q148 134 187.50 103Q227 72 296 72Z"  horiz-adv-x="685" vert-adv-y="1000"  />

      
      <glyph glyph-name="unib7" unicode="&#xb7;" d="M131 223Q102 223 82.50 242.50Q63 262 63 291Q63 319 82.50 338.50Q102 358 131 358Q158 358 178 338.50Q198 319 198 291Q198 262 178 242.50Q158 223 131 223Z"  horiz-adv-x="262" vert-adv-y="1000"  />

      
      <glyph glyph-name="uni2022" unicode="&#x2022;" d="M152 202Q111 202 83 230Q55 258 55 298Q55 339 83 366.50Q111 394 152 394Q192 394 220 366.50Q248 339 248 298Q248 258 220 230Q192 202 152 202Z"  horiz-adv-x="303" vert-adv-y="1000"  />

      
      <glyph glyph-name="uni2b" unicode="&#x2b;" d="M309 315L309 131L228 131L228 315L60 315L60 394L228 394L228 570L309 570L309 394L476 394L476 315L309 315Z"  horiz-adv-x="536" vert-adv-y="1000"  />

      
      <glyph glyph-name="uni2212" unicode="&#x2212;" d="M60 394L474 394L474 315L60 315L60 394Z"  horiz-adv-x="534" vert-adv-y="1000"  />

      
      <glyph glyph-name="uni3d" unicode="&#x3d;" d="M60 489L456 489L456 409L60 409L60 489M60 300L456 300L456 220L60 220L60 300Z"  horiz-adv-x="516" vert-adv-y="1000"  />

      
      <glyph glyph-name="uni3c" unicode="&#x3c;" d="M30 320L30 374L405 589L405 497L147 349L406 200L406 105L30 320Z"  horiz-adv-x="466" vert-adv-y="1000"  />

      
      <glyph glyph-name="uni3e" unicode="&#x3e;" d="M60 199L318 347L61 495L61 589L436 374L436 320L60 105L60 199Z"  horiz-adv-x="466" vert-adv-y="1000"  />

      
      <glyph glyph-name="uni24" unicode="&#x24;" d="M149 561Q149 520 170 495.50Q191 471 223 452L223 663Q192 653 170.50 629.50Q149 606 149 561M367 194Q367 232 348.50 256Q330 280 299 298L299 86Q330 96 348.50 121Q367 146 367 194M223-88L223-10Q183-8 132.50 0.50Q82 9 37 35L37 139Q85 107 133 93.50Q181 80 223 78L223 335L217 338Q180 355 148 374.50Q116 394 93 419.50Q70 445 56.50 479Q43 513 43 561Q43 608 57.50 642Q72 676 97 699.50Q122 723 154.50 736.50Q187 750 223 756L223 833L299 833L299 760Q342 758 380.50 751.50Q419 745 441 733L441 637Q415 653 378 661.50Q341 670 299 672L299 413Q334 396 365.50 377Q397 358 421 333Q445 308 459 275Q473 242 473 196Q473 159 463 125.50Q453 92 432 65Q411 38 378 19.50Q345 1 299-6L299-88L223-88Z"  horiz-adv-x="510" vert-adv-y="1000"  />

      
      <glyph glyph-name="unia2" unicode="&#xa2;" d="M412 17Q398 9 369.50 0.50Q341-8 296-10L296-88L226-88L226-5Q135 10 86 75.50Q37 141 37 250Q37 304 51 347.50Q65 391 90 424Q115 457 149.50 478.50Q184 500 226 508L226 613L296 613L296 513Q333 511 359 505Q385 499 405 488L405 395Q381 412 351.50 419Q322 426 296 427L296 76Q333 77 362.50 86Q392 95 412 112L412 17M138 250Q138 183 161.50 143.50Q185 104 226 88L226 415Q186 398 162 357.50Q138 317 138 250Z"  horiz-adv-x="447" vert-adv-y="1000"  />

      
      <glyph glyph-name="unia3" unicode="&#xa3;" d="M486 0L22 0L22 71Q48 92 65.50 114Q83 136 93 163Q103 190 107.50 225Q112 260 112 306L30 306L30 388L112 388L112 525Q112 576 123.50 619Q135 662 161.50 693.50Q188 725 230 742.50Q272 760 334 760Q370 760 406.50 754Q443 748 466 737L466 638Q445 652 411.50 660.50Q378 669 339 669Q274 669 246 628.50Q218 588 218 514L218 388L423 388L423 306L218 306Q218 264 214 231Q210 198 202.50 172.50Q195 147 184.50 127Q174 107 160 91L486 91L486 0Z"  horiz-adv-x="509" vert-adv-y="1000"  />

      
      <glyph glyph-name="unia5" unicode="&#xa5;" d="M348 136L348 0L247 0L247 136L82 136L82 212L247 212L247 303L82 303L82 379L207 379L7 750L121 750L302 411L307 411L475 750L570 750L385 379L513 379L513 303L348 303L348 212L513 212L513 136L348 136Z"  horiz-adv-x="577" vert-adv-y="1000"  />

      
      <glyph glyph-name="uni20AC" unicode="&#x20AC;" d="M615 27Q577 4 533-3Q489-10 451-10Q312-10 235 62Q158 134 136 262L27 262L60 340L128 340Q127 348 127 357Q127 366 127 375Q127 385 127 394.50Q127 404 128 414L27 414L60 492L138 492Q164 618 244.50 689Q325 760 453 760Q471 760 491 758.50Q511 757 530.50 754Q550 751 567.50 746.50Q585 742 598 736L598 644Q548 672 460 672Q386 672 328.50 627Q271 582 247 492L523 492L492 414L234 414Q233 405 233 395.50Q233 386 233 375Q233 366 233 357Q233 348 234 340L464 340L433 262L244 262Q264 167 320 122.50Q376 78 461 78Q475 78 493.50 79Q512 80 532.50 84.50Q553 89 574 97.50Q595 106 615 121L615 27L615 27Z"  horiz-adv-x="655" vert-adv-y="1000"  />

      
      <glyph glyph-name="uni5e" unicode="&#x5e;" d="M379 376L246 626L114 377L23 377L221 751L274 751L470 376L379 376Z"  horiz-adv-x="493" vert-adv-y="1000"  />

      
      <glyph glyph-name="uni7e" unicode="&#x7e;" d="M528 447Q524 359 488 319Q452 279 395 279Q354 279 327 294Q300 309 277.50 327.50Q255 346 233 361Q211 376 181 376Q150 376 133.50 355.50Q117 335 112 295L35 295Q40 377 79 419.50Q118 462 181 462Q221 462 248.50 446.50Q276 431 298.50 413Q321 395 342 379.50Q363 364 389 364Q417 364 433 382.50Q449 401 451 447L528 447Z"  horiz-adv-x="563" vert-adv-y="1000"  />

      
      <glyph glyph-name="unib4" unicode="&#xb4;" d="M143 723L282 723L155 577L70 577L143 723Z"  horiz-adv-x="341" vert-adv-y="1000"  />

      
      <glyph glyph-name="uni60" unicode="&#x60;" d="M170 577L48 723L193 723L253 577L170 577Z"  horiz-adv-x="334" vert-adv-y="1000"  />

      
      <glyph glyph-name="uni02C6" unicode="&#x02C6;" d="M279 723L397 570L302 570L243 644L238 644L179 570L84 570L202 723L279 723Z"  horiz-adv-x="500" vert-adv-y="1000"  />

      
      <glyph glyph-name="uni02DC" unicode="&#x02DC;" d="M50 690Q56 701 71 711.50Q86 722 114 722Q132 722 148.50 717Q165 712 180.50 705.50Q196 699 211 694Q226 689 241 689Q262 689 276 697.50Q290 706 300 727L300 638Q286 605 239 605Q220 605 203.50 610.50Q187 616 171.50 622Q156 628 141 633.50Q126 639 110 639Q90 639 75.50 628.50Q61 618 50 601L50 690Z"  horiz-adv-x="350" vert-adv-y="1000"  />

      
      <glyph glyph-name="unia8" unicode="&#xa8;" d="M145 605Q116 605 97.50 623.50Q79 642 79 670Q79 697 97.50 716.50Q116 736 145 736Q171 736 191 716.50Q211 697 211 670Q211 642 191 623.50Q171 605 145 605M353 605Q326 605 306.50 623.50Q287 642 287 670Q287 697 306.50 716.50Q326 736 353 736Q380 736 399.50 716.50Q419 697 419 670Q419 642 399.50 623.50Q380 605 353 605Z"  horiz-adv-x="505" vert-adv-y="1000"  />

      
      <glyph glyph-name="uni02DA" unicode="&#x02DA;" d="M180 563Q138 563 109 589.50Q80 616 80 657Q80 698 109 723.50Q138 749 180 749Q199 749 216.50 742Q234 735 247.50 723Q261 711 269.50 694Q278 677 278 657Q278 637 269.50 619.50Q261 602 247.50 589.50Q234 577 216.50 570Q199 563 180 563M180 624Q194 624 205 633Q216 642 216 657Q216 671 205 680Q194 689 180 689Q164 689 154 680Q144 671 144 657Q144 642 154 633Q164 624 180 624Z"  horiz-adv-x="358" vert-adv-y="1000"  />

      
      <glyph glyph-name="unib8" unicode="&#xb8;" d="M189-36Q223-39 246-57Q269-75 269-117Q269-152 245-174Q221-196 166-196Q140-196 119-192Q98-188 82-178L82-110Q99-126 116-131.50Q133-137 152-137Q172-137 180-129Q188-121 188-110Q188-92 173-85.50Q158-79 124-79L124 0L189 0L189-36L189-36Z"  horiz-adv-x="334" vert-adv-y="1000"  />

      
      <glyph glyph-name="unia9" unicode="&#xa9;" d="M436-10Q358-10 288 15Q218 40 165.50 88.50Q113 137 82 209Q51 281 51 375Q51 469 82 540.50Q113 612 165.50 661Q218 710 288 735Q358 760 436 760Q513 760 583 735Q653 710 706 661Q759 612 790 540.50Q821 469 821 375Q821 281 790 209Q759 137 706 88.50Q653 40 583 15Q513-10 436-10M435 63Q500 63 555 83Q610 103 650 142.50Q690 182 712.50 240Q735 298 735 375Q735 446 712.50 504Q690 562 650 602.50Q610 643 555 665Q500 687 435 687Q373 687 318 667Q263 647 222.50 607.50Q182 568 158.50 509.50Q135 451 135 375Q135 298 159 240Q183 182 224 142.50Q265 103 319.50 83Q374 63 435 63M454 159Q356 159 300.50 215.50Q245 272 245 375Q245 427 261 467.50Q277 508 304.50 536.50Q332 565 369.50 580Q407 595 451 595Q488 595 513 590Q538 585 556 574L556 490Q535 506 508.50 511Q482 516 459 516Q406 516 371 483Q336 450 336 375Q336 300 371 268.50Q406 237 463 237Q494 237 519.50 244.50Q545 252 562 267L562 182Q549 174 522.50 166.50Q496 159 454 159Z"  horiz-adv-x="871" vert-adv-y="1000"  />

      
      <glyph glyph-name="uniae" unicode="&#xae;" d="M323 227Q269 227 220.50 244Q172 261 136 295Q100 329 78.50 378.50Q57 428 57 493Q57 558 78.50 608Q100 658 136 691.50Q172 725 220.50 742.50Q269 760 323 760Q377 760 425 742.50Q473 725 510 691.50Q547 658 568.50 608Q590 558 590 493Q590 428 568.50 378.50Q547 329 510 295Q473 261 425 244Q377 227 323 227M323 289Q366 289 402.50 302Q439 315 465 340.50Q491 366 506 404Q521 442 521 493Q521 540 506 578Q491 616 465 642.50Q439 669 402.50 683.50Q366 698 323 698Q282 698 246 685Q210 672 183 646Q156 620 141 582Q126 544 126 493Q126 442 141.50 404Q157 366 184 340.50Q211 315 247 302Q283 289 323 289M318 506Q343 506 357 517.50Q371 529 371 551Q371 576 356 585.50Q341 595 318 595L290 595L290 506L318 506M230 357L230 639L326 639Q385 639 409.50 615Q434 591 434 554Q434 528 421.50 506.50Q409 485 382 474L458 357L387 357L320 461L290 461L290 357L230 357Z"  horiz-adv-x="647" vert-adv-y="1000"  />

      
      <glyph glyph-name="uni2122" unicode="&#x2122;" d="M98 689L10 689L10 750L256 750L256 689L168 689L168 450L98 450L98 689M348 450L286 450L286 750L385 750L456 541L529 750L624 750L624 450L554 450L554 666L553 666L477 450L426 450L350 666L348 666L348 450Z"  horiz-adv-x="674" vert-adv-y="1000"  />

      
      <glyph glyph-name="unib0" unicode="&#xb0;" d="M157 524Q106 524 70.50 555Q35 586 35 644Q35 703 70.50 733Q106 763 157 763Q181 763 203 755.50Q225 748 242 733Q259 718 269 695.50Q279 673 279 644Q279 615 269 592.50Q259 570 242 555Q225 540 203 532Q181 524 157 524M158 585Q182 585 198 600Q214 615 214 644Q214 672 198 686.50Q182 701 158 701Q135 701 119 687Q103 673 103 644Q103 615 119.50 600Q136 585 158 585Z"  horiz-adv-x="315" vert-adv-y="1000"  />

      
      <glyph glyph-name="uni20BD" unicode="&#x20BD;" d="M300 390Q369 390 411 425.50Q453 461 453 531Q453 594 411 627.50Q369 661 300 661L213 661L213 390L300 390M213 159L213 0L112 0L112 159L27 159L27 238L112 238L112 311L27 311L27 390L112 390L112 750L305 750Q375 750 423.50 731.50Q472 713 502 682.50Q532 652 545.50 613Q559 574 559 534Q559 492 545.50 452Q532 412 501.50 380.50Q471 349 422.50 330Q374 311 305 311L213 311L213 238L447 238L447 159L213 159Z"  horiz-adv-x="581" vert-adv-y="1000"  />

      
      <glyph glyph-name="uniad" unicode="&#xad;" d="M43 325L337 325L337 252L43 252L43 325Z"  horiz-adv-x="380" vert-adv-y="1000"  />

      

  </font>
</defs>
</svg>
